<?xml version="1.0" encoding="UTF-8" standalone="no"?>
<!DOCTYPE svg PUBLIC "-//W3C//DTD SVG 1.1//EN" "http://www.w3.org/Graphics/SVG/1.1/DTD/svg11.dtd">
<svg version="1.1" xmlns="http://www.w3.org/2000/svg" xmlns:xlink="http://www.w3.org/1999/xlink" preserveAspectRatio="xMidYMid meet" viewBox="0 0 640 640" width="640" height="640"><defs><path d="M493.04 319.85C380.95 280.98 259.05 280.98 146.97 319.85" id="a1mRxNRPGi"></path><path d="M497.88 330.04C499.38 325.93 497.26 321.39 493.15 319.89C493.11 319.88 493.07 319.86 493.04 319.85" id="h2nc5EuqHJ"></path><path d="M146.97 319.85C142.83 321.28 140.64 325.8 142.08 329.93C142.09 329.97 142.1 330.01 142.12 330.04" id="c1V3qmvPYt"></path><path d="M421.07 518.48C355.5 496.41 284.5 496.41 218.93 518.48" id="a5PTSxIzi"></path><path d="M421.07 518.48C425.15 519.85 429.57 517.72 431.04 513.68" id="gIs03mxaq"></path><path d="M208.96 513.68C210.43 517.72 214.85 519.85 218.93 518.48" id="a2wGAIiS9m"></path><path d="M320 501.93L320 290.7" id="k1mFyhEhp"></path><path d="M431.04 513.68L497.88 330.04" id="dNUwP7ufw"></path><path d="M208.96 513.68L142.12 330.04" id="f1SO6HlEW"></path><path d="M320 396.31C295.41 396.31 270.86 398.46 246.64 402.73" id="e40PhkiskI"></path><path d="M464.49 421.79C441.38 413.38 417.58 407 393.36 402.73" id="a1ZQtDpfxb"></path><path d="M295.87 235.67L278.72 235.67" id="a4AP7PhVf8"></path><path d="M317.23 282.83L275.95 242.47" id="aXbbnvp7P"></path><path d="M278.72 235.67C276.54 235.67 274.76 237.45 274.76 239.63C274.76 240.7 275.19 241.72 275.95 242.47" id="elzrHWE7h"></path><path d="M299.83 109.09L299.83 231.71" id="b59EHRptyK"></path><path d="M295.87 235.67C298.06 235.67 299.83 233.9 299.83 231.71" id="c3TfehC3JS"></path><path d="M340.17 231.71L340.17 109.09" id="b3eXBjTfHe"></path><path d="M340.17 231.71C340.17 233.9 341.94 235.67 344.13 235.67" id="e2DzPUkYwg"></path><path d="M336.21 105.13L303.79 105.13" id="b6Y6KF8Kk"></path><path d="M340.17 109.09C340.17 106.9 338.4 105.13 336.21 105.13C336.21 105.13 336.21 105.13 336.21 105.13" id="a1Jz9ffqTt"></path><path d="M303.79 105.13C301.6 105.13 299.83 106.9 299.83 109.09C299.83 109.09 299.83 109.09 299.83 109.09" id="a2FhCjEdQ"></path><path d="M344.13 235.67L361.28 235.67" id="d24QPtOiGu"></path><path d="M364.05 242.47C365.61 240.94 365.64 238.43 364.11 236.86C363.36 236.1 362.34 235.67 361.28 235.67" id="a1Tw9IVwI4"></path><path d="M322.77 282.83L364.05 242.47" id="d5huysSyUV"></path><path d="M317.23 282.83C318.77 284.34 321.23 284.34 322.77 282.83" id="g1wd2cDnWH"></path><path d="M132.3 468.02L137.16 480.69" id="aE6XSquNn"></path><path d="M167.39 427.84L144.5 480.84" id="f58CbgfW"></path><path d="M137.16 480.69C137.95 482.73 140.24 483.75 142.28 482.97C143.27 482.59 144.07 481.82 144.5 480.84" id="a1cEmIExEq"></path><path d="M114.86 422.6L107.58 403.62" id="b1TQHmCU2j"></path><path d="M112.93 398.6C110.94 397.69 108.59 398.56 107.68 400.55C107.23 401.52 107.2 402.62 107.58 403.62" id="c299OreI56"></path><path d="M165.4 422.67L112.93 398.6" id="a1EpNziajO"></path><path d="M167.39 427.84C168.24 425.86 167.36 423.57 165.4 422.67" id="a1oRGX77m8"></path><path d="M113.02 427.52C74.15 448.08 38.57 474.31 7.44 505.36" id="c2GOZbzgtT"></path><path d="M7.44 505.36C5.89 506.9 5.89 509.41 7.43 510.96C7.44 510.97 7.45 510.98 7.46 510.99" id="e8f8RhWV57"></path><path d="M113.02 427.52C114.79 426.58 115.58 424.47 114.86 422.6" id="jw26oluiF"></path><path d="M126.7 465.97C93.47 484.17 62.98 506.98 36.13 533.72" id="j1W1VDLbQI"></path><path d="M30.56 533.74C32.11 535.26 34.59 535.25 36.13 533.72" id="jjIspPjfY"></path><path d="M132.3 468.02C131.52 465.98 129.23 464.96 127.18 465.74C127.02 465.81 126.86 465.88 126.7 465.97" id="dnTxda72A"></path><path d="M30.56 533.74L7.46 510.99" id="h9fCd22CZ"></path><path d="M507.7 468.02L502.84 480.69" id="aNE7vFQTW"></path><path d="M472.61 427.84L495.5 480.84" id="a53VKL622u"></path><path d="M495.5 480.84C496.37 482.85 498.7 483.77 500.71 482.91C501.69 482.48 502.45 481.69 502.84 480.69" id="aOe5ieboZ"></path><path d="M525.14 422.6L532.42 403.62" id="gK0p9lyOQ"></path><path d="M532.42 403.62C533.21 401.58 532.19 399.29 530.14 398.5C529.15 398.12 528.04 398.15 527.07 398.6" id="a61IkHqLv"></path><path d="M474.6 422.67L527.07 398.6" id="d6xm6wQp2o"></path><path d="M474.6 422.67C472.64 423.57 471.76 425.86 472.61 427.84" id="cxtbEirpw"></path><path d="M632.56 505.36C601.43 474.31 565.85 448.08 526.98 427.52" id="cBFEYJDyz"></path><path d="M632.54 510.99C634.1 509.45 634.12 506.94 632.59 505.38C632.58 505.38 632.57 505.37 632.56 505.36" id="c61nXYsL0i"></path><path d="M525.14 422.6C524.42 424.47 525.21 426.58 526.98 427.52" id="b5CJ1oBSOF"></path><path d="M603.87 533.72C577.02 506.98 546.53 484.17 513.3 465.97" id="a1jTx1ZcPU"></path><path d="M603.87 533.72C605.41 535.25 607.89 535.26 609.44 533.74" id="c1tPf1vEqa"></path><path d="M513.3 465.97C511.38 464.92 508.97 465.62 507.92 467.54C507.84 467.69 507.76 467.86 507.7 468.02" id="c7BBjDXj"></path><path d="M609.44 533.74L632.54 510.99" id="a2WQbQ9bjo"></path></defs><g><g><g><use xlink:href="#a1mRxNRPGi" opacity="1" fill="#000000" fill-opacity="0"></use><g><use xlink:href="#a1mRxNRPGi" opacity="1" fill-opacity="0" stroke="#000000" stroke-width="3" stroke-opacity="1"></use></g></g><g><use xlink:href="#h2nc5EuqHJ" opacity="1" fill="#000000" fill-opacity="0"></use><g><use xlink:href="#h2nc5EuqHJ" opacity="1" fill-opacity="0" stroke="#000000" stroke-width="3" stroke-opacity="1"></use></g></g><g><use xlink:href="#c1V3qmvPYt" opacity="1" fill="#000000" fill-opacity="0"></use><g><use xlink:href="#c1V3qmvPYt" opacity="1" fill-opacity="0" stroke="#000000" stroke-width="3" stroke-opacity="1"></use></g></g><g><use xlink:href="#a5PTSxIzi" opacity="1" fill="#000000" fill-opacity="0"></use><g><use xlink:href="#a5PTSxIzi" opacity="1" fill-opacity="0" stroke="#000000" stroke-width="3" stroke-opacity="1"></use></g></g><g><use xlink:href="#gIs03mxaq" opacity="1" fill="#000000" fill-opacity="0"></use><g><use xlink:href="#gIs03mxaq" opacity="1" fill-opacity="0" stroke="#000000" stroke-width="3" stroke-opacity="1"></use></g></g><g><use xlink:href="#a2wGAIiS9m" opacity="1" fill="#000000" fill-opacity="0"></use><g><use xlink:href="#a2wGAIiS9m" opacity="1" fill-opacity="0" stroke="#000000" stroke-width="3" stroke-opacity="1"></use></g></g><g><use xlink:href="#k1mFyhEhp" opacity="1" fill="#000000" fill-opacity="0"></use><g><use xlink:href="#k1mFyhEhp" opacity="1" fill-opacity="0" stroke="#000000" stroke-width="3" stroke-opacity="1"></use></g></g><g><use xlink:href="#dNUwP7ufw" opacity="1" fill="#000000" fill-opacity="0"></use><g><use xlink:href="#dNUwP7ufw" opacity="1" fill-opacity="0" stroke="#000000" stroke-width="3" stroke-opacity="1"></use></g></g><g><use xlink:href="#f1SO6HlEW" opacity="1" fill="#000000" fill-opacity="0"></use><g><use xlink:href="#f1SO6HlEW" opacity="1" fill-opacity="0" stroke="#000000" stroke-width="3" stroke-opacity="1"></use></g></g><g><use xlink:href="#e40PhkiskI" opacity="1" fill="#000000" fill-opacity="0"></use><g><use xlink:href="#e40PhkiskI" opacity="1" fill-opacity="0" stroke="#000000" stroke-width="3" stroke-opacity="1"></use></g></g><g><use xlink:href="#a1ZQtDpfxb" opacity="1" fill="#000000" fill-opacity="0"></use><g><use xlink:href="#a1ZQtDpfxb" opacity="1" fill-opacity="0" stroke="#000000" stroke-width="3" stroke-opacity="1"></use></g></g><g><use xlink:href="#a4AP7PhVf8" opacity="1" fill="#000000" fill-opacity="0"></use><g><use xlink:href="#a4AP7PhVf8" opacity="1" fill-opacity="0" stroke="#000000" stroke-width="3" stroke-opacity="1"></use></g></g><g><use xlink:href="#aXbbnvp7P" opacity="1" fill="#000000" fill-opacity="0"></use><g><use xlink:href="#aXbbnvp7P" opacity="1" fill-opacity="0" stroke="#000000" stroke-width="3" stroke-opacity="1"></use></g></g><g><use xlink:href="#elzrHWE7h" opacity="1" fill="#000000" fill-opacity="0"></use><g><use xlink:href="#elzrHWE7h" opacity="1" fill-opacity="0" stroke="#000000" stroke-width="3" stroke-opacity="1"></use></g></g><g><use xlink:href="#b59EHRptyK" opacity="1" fill="#000000" fill-opacity="0"></use><g><use xlink:href="#b59EHRptyK" opacity="1" fill-opacity="0" stroke="#000000" stroke-width="3" stroke-opacity="1"></use></g></g><g><use xlink:href="#c3TfehC3JS" opacity="1" fill="#000000" fill-opacity="0"></use><g><use xlink:href="#c3TfehC3JS" opacity="1" fill-opacity="0" stroke="#000000" stroke-width="3" stroke-opacity="1"></use></g></g><g><use xlink:href="#b3eXBjTfHe" opacity="1" fill="#000000" fill-opacity="0"></use><g><use xlink:href="#b3eXBjTfHe" opacity="1" fill-opacity="0" stroke="#000000" stroke-width="3" stroke-opacity="1"></use></g></g><g><use xlink:href="#e2DzPUkYwg" opacity="1" fill="#000000" fill-opacity="0"></use><g><use xlink:href="#e2DzPUkYwg" opacity="1" fill-opacity="0" stroke="#000000" stroke-width="3" stroke-opacity="1"></use></g></g><g><use xlink:href="#b6Y6KF8Kk" opacity="1" fill="#000000" fill-opacity="0"></use><g><use xlink:href="#b6Y6KF8Kk" opacity="1" fill-opacity="0" stroke="#000000" stroke-width="3" stroke-opacity="1"></use></g></g><g><use xlink:href="#a1Jz9ffqTt" opacity="1" fill="#000000" fill-opacity="0"></use><g><use xlink:href="#a1Jz9ffqTt" opacity="1" fill-opacity="0" stroke="#000000" stroke-width="3" stroke-opacity="1"></use></g></g><g><use xlink:href="#a2FhCjEdQ" opacity="1" fill="#000000" fill-opacity="0"></use><g><use xlink:href="#a2FhCjEdQ" opacity="1" fill-opacity="0" stroke="#000000" stroke-width="3" stroke-opacity="1"></use></g></g><g><use xlink:href="#d24QPtOiGu" opacity="1" fill="#000000" fill-opacity="0"></use><g><use xlink:href="#d24QPtOiGu" opacity="1" fill-opacity="0" stroke="#000000" stroke-width="3" stroke-opacity="1"></use></g></g><g><use xlink:href="#a1Tw9IVwI4" opacity="1" fill="#000000" fill-opacity="0"></use><g><use xlink:href="#a1Tw9IVwI4" opacity="1" fill-opacity="0" stroke="#000000" stroke-width="3" stroke-opacity="1"></use></g></g><g><use xlink:href="#d5huysSyUV" opacity="1" fill="#000000" fill-opacity="0"></use><g><use xlink:href="#d5huysSyUV" opacity="1" fill-opacity="0" stroke="#000000" stroke-width="3" stroke-opacity="1"></use></g></g><g><use xlink:href="#g1wd2cDnWH" opacity="1" fill="#000000" fill-opacity="0"></use><g><use xlink:href="#g1wd2cDnWH" opacity="1" fill-opacity="0" stroke="#000000" stroke-width="3" stroke-opacity="1"></use></g></g><g><use xlink:href="#aE6XSquNn" opacity="1" fill="#000000" fill-opacity="0"></use><g><use xlink:href="#aE6XSquNn" opacity="1" fill-opacity="0" stroke="#000000" stroke-width="3" stroke-opacity="1"></use></g></g><g><use xlink:href="#f58CbgfW" opacity="1" fill="#000000" fill-opacity="0"></use><g><use xlink:href="#f58CbgfW" opacity="1" fill-opacity="0" stroke="#000000" stroke-width="3" stroke-opacity="1"></use></g></g><g><use xlink:href="#a1cEmIExEq" opacity="1" fill="#000000" fill-opacity="0"></use><g><use xlink:href="#a1cEmIExEq" opacity="1" fill-opacity="0" stroke="#000000" stroke-width="3" stroke-opacity="1"></use></g></g><g><use xlink:href="#b1TQHmCU2j" opacity="1" fill="#000000" fill-opacity="0"></use><g><use xlink:href="#b1TQHmCU2j" opacity="1" fill-opacity="0" stroke="#000000" stroke-width="3" stroke-opacity="1"></use></g></g><g><use xlink:href="#c299OreI56" opacity="1" fill="#000000" fill-opacity="0"></use><g><use xlink:href="#c299OreI56" opacity="1" fill-opacity="0" stroke="#000000" stroke-width="3" stroke-opacity="1"></use></g></g><g><use xlink:href="#a1EpNziajO" opacity="1" fill="#000000" fill-opacity="0"></use><g><use xlink:href="#a1EpNziajO" opacity="1" fill-opacity="0" stroke="#000000" stroke-width="3" stroke-opacity="1"></use></g></g><g><use xlink:href="#a1oRGX77m8" opacity="1" fill="#000000" fill-opacity="0"></use><g><use xlink:href="#a1oRGX77m8" opacity="1" fill-opacity="0" stroke="#000000" stroke-width="3" stroke-opacity="1"></use></g></g><g><use xlink:href="#c2GOZbzgtT" opacity="1" fill="#000000" fill-opacity="0"></use><g><use xlink:href="#c2GOZbzgtT" opacity="1" fill-opacity="0" stroke="#000000" stroke-width="3" stroke-opacity="1"></use></g></g><g><use xlink:href="#e8f8RhWV57" opacity="1" fill="#000000" fill-opacity="0"></use><g><use xlink:href="#e8f8RhWV57" opacity="1" fill-opacity="0" stroke="#000000" stroke-width="3" stroke-opacity="1"></use></g></g><g><use xlink:href="#jw26oluiF" opacity="1" fill="#000000" fill-opacity="0"></use><g><use xlink:href="#jw26oluiF" opacity="1" fill-opacity="0" stroke="#000000" stroke-width="3" stroke-opacity="1"></use></g></g><g><use xlink:href="#j1W1VDLbQI" opacity="1" fill="#000000" fill-opacity="0"></use><g><use xlink:href="#j1W1VDLbQI" opacity="1" fill-opacity="0" stroke="#000000" stroke-width="3" stroke-opacity="1"></use></g></g><g><use xlink:href="#jjIspPjfY" opacity="1" fill="#000000" fill-opacity="0"></use><g><use xlink:href="#jjIspPjfY" opacity="1" fill-opacity="0" stroke="#000000" stroke-width="3" stroke-opacity="1"></use></g></g><g><use xlink:href="#dnTxda72A" opacity="1" fill="#000000" fill-opacity="0"></use><g><use xlink:href="#dnTxda72A" opacity="1" fill-opacity="0" stroke="#000000" stroke-width="3" stroke-opacity="1"></use></g></g><g><use xlink:href="#h9fCd22CZ" opacity="1" fill="#000000" fill-opacity="0"></use><g><use xlink:href="#h9fCd22CZ" opacity="1" fill-opacity="0" stroke="#000000" stroke-width="3" stroke-opacity="1"></use></g></g><g><use xlink:href="#aNE7vFQTW" opacity="1" fill="#000000" fill-opacity="0"></use><g><use xlink:href="#aNE7vFQTW" opacity="1" fill-opacity="0" stroke="#000000" stroke-width="3" stroke-opacity="1"></use></g></g><g><use xlink:href="#a53VKL622u" opacity="1" fill="#000000" fill-opacity="0"></use><g><use xlink:href="#a53VKL622u" opacity="1" fill-opacity="0" stroke="#000000" stroke-width="3" stroke-opacity="1"></use></g></g><g><use xlink:href="#aOe5ieboZ" opacity="1" fill="#000000" fill-opacity="0"></use><g><use xlink:href="#aOe5ieboZ" opacity="1" fill-opacity="0" stroke="#000000" stroke-width="3" stroke-opacity="1"></use></g></g><g><use xlink:href="#gK0p9lyOQ" opacity="1" fill="#000000" fill-opacity="0"></use><g><use xlink:href="#gK0p9lyOQ" opacity="1" fill-opacity="0" stroke="#000000" stroke-width="3" stroke-opacity="1"></use></g></g><g><use xlink:href="#a61IkHqLv" opacity="1" fill="#000000" fill-opacity="0"></use><g><use xlink:href="#a61IkHqLv" opacity="1" fill-opacity="0" stroke="#000000" stroke-width="3" stroke-opacity="1"></use></g></g><g><use xlink:href="#d6xm6wQp2o" opacity="1" fill="#000000" fill-opacity="0"></use><g><use xlink:href="#d6xm6wQp2o" opacity="1" fill-opacity="0" stroke="#000000" stroke-width="3" stroke-opacity="1"></use></g></g><g><use xlink:href="#cxtbEirpw" opacity="1" fill="#000000" fill-opacity="0"></use><g><use xlink:href="#cxtbEirpw" opacity="1" fill-opacity="0" stroke="#000000" stroke-width="3" stroke-opacity="1"></use></g></g><g><use xlink:href="#cBFEYJDyz" opacity="1" fill="#000000" fill-opacity="0"></use><g><use xlink:href="#cBFEYJDyz" opacity="1" fill-opacity="0" stroke="#000000" stroke-width="3" stroke-opacity="1"></use></g></g><g><use xlink:href="#c61nXYsL0i" opacity="1" fill="#000000" fill-opacity="0"></use><g><use xlink:href="#c61nXYsL0i" opacity="1" fill-opacity="0" stroke="#000000" stroke-width="3" stroke-opacity="1"></use></g></g><g><use xlink:href="#b5CJ1oBSOF" opacity="1" fill="#000000" fill-opacity="0"></use><g><use xlink:href="#b5CJ1oBSOF" opacity="1" fill-opacity="0" stroke="#000000" stroke-width="3" stroke-opacity="1"></use></g></g><g><use xlink:href="#a1jTx1ZcPU" opacity="1" fill="#000000" fill-opacity="0"></use><g><use xlink:href="#a1jTx1ZcPU" opacity="1" fill-opacity="0" stroke="#000000" stroke-width="3" stroke-opacity="1"></use></g></g><g><use xlink:href="#c1tPf1vEqa" opacity="1" fill="#000000" fill-opacity="0"></use><g><use xlink:href="#c1tPf1vEqa" opacity="1" fill-opacity="0" stroke="#000000" stroke-width="3" stroke-opacity="1"></use></g></g><g><use xlink:href="#c7BBjDXj" opacity="1" fill="#000000" fill-opacity="0"></use><g><use xlink:href="#c7BBjDXj" opacity="1" fill-opacity="0" stroke="#000000" stroke-width="3" stroke-opacity="1"></use></g></g><g><use xlink:href="#a2WQbQ9bjo" opacity="1" fill="#000000" fill-opacity="0"></use><g><use xlink:href="#a2WQbQ9bjo" opacity="1" fill-opacity="0" stroke="#000000" stroke-width="3" stroke-opacity="1"></use></g></g></g></g></svg>