<?xml version="1.0" encoding="iso-8859-1"?>
<!-- Generator: Adobe Illustrator 19.0.0, SVG Export Plug-In . SVG Version: 6.00 Build 0)  -->
<svg version="1.1" id="Capa_1" xmlns="http://www.w3.org/2000/svg" xmlns:xlink="http://www.w3.org/1999/xlink" x="0px" y="0px"
	 viewBox="0 0 512 512" style="enable-background:new 0 0 512 512;" xml:space="preserve">
<g>
	<g>
		<path d="M409.971,264.76c-4.073-0.748-7.982,1.949-8.729,6.024c-0.747,4.074,1.95,7.982,6.024,8.729
			c42.391,7.773,73.157,44.715,73.157,87.84c0,43.348-31.046,79.576-72.068,87.63c-0.081,0.013-0.163,0.018-0.244,0.033
			c-5.636,1.09-11.355,1.643-16.994,1.643c-49.244,0-89.307-40.063-89.307-89.306c0-43.687,31.464-80.196,73.158-87.84
			c4.074-0.747,6.771-4.655,6.024-8.729c-0.747-4.075-4.661-6.774-8.729-6.024c-23.905,4.383-44.629,16.722-59.689,33.966
			l-46.633-18.06v-26.028c16.899-12.937,28.552-32.38,31.197-54.557c20.085-0.891,35.04-16.961,35.04-36.067
			c0-8.853-3.253-17.297-9.035-23.815v-32.917C323.145,48.126,275.019,0,215.865,0S108.584,48.126,108.584,107.281v33.769
			c-5.848,6.463-9.031,14.47-9.031,22.963c0,19.085,14.924,35.174,35.035,36.066c2.635,22.317,14.414,42.568,32.965,55.815v24.771
			l-105.394,40.86c-0.047,0.018-0.094,0.037-0.141,0.056c-1.855,0.763-45.443,19.268-45.443,70.214V495.01
			c0,9.368,7.621,16.99,16.99,16.99c4.65,0,361.62,0,366.562,0c9.323,0,16.908-7.584,16.908-16.908v-26.69
			c45.018-11.554,78.389-52.476,78.389-101.047C495.424,316.986,459.485,273.839,409.971,264.76z M287.879,305.247l-27.019,54.149
			c-0.366-0.26-7.145-5.076-33.253-23.618c19.171-23.663,12.75-15.738,33.222-41.008L287.879,305.247z M236.096,360.209
			l-7.725,11.627h-23.187l-7.724-11.627l19.318-13.72L236.096,360.209z M182.555,283.075v-18.72
			c10.135,4.36,22.157,6.905,34.373,6.905c11.771,0,23.427-2.578,34.014-7.518v19.404l-34.165,42.172L182.555,283.075z
			 M309.923,179.859c-3.41,2.933-7.606,4.68-12.191,5.135v-41.956C316.942,144.898,323.648,168.055,309.923,179.859z
			 M134.001,184.994c-11.532-1.142-19.446-10.377-19.446-20.98c0-10.631,9.23-18.96,19.446-20.635V184.994z M134.246,128.222
			c-3.495,0.319-7.65,1.351-10.661,2.524v-23.465c0-50.883,41.396-92.28,92.279-92.28c50.882,0,92.28,41.396,92.28,92.28v22.807
			c-3.309-1.177-6.801-1.89-10.412-2.104c0-9.014,1.096-6.449-25.037-34.485c-2.089-2.242-4.54-5.531-9.724-6.62
			c-3.605-0.758-7.475-0.115-10.76,2.032c-29.473,19.253-66.459,30.061-101.985,27.733
			C141.544,116.071,135.584,121.008,134.246,128.222z M149.002,190.457c0-6.282,0-52.34,0-58.856
			c38.166,2.556,78.434-8.742,110.917-29.81c13.554,14.563,20.845,22.121,22.813,24.656c0,74.817,0.017,61.504-0.042,65.655
			c-0.875,35.358-29.861,64.157-65.762,64.157C176.988,256.26,149.002,225.466,149.002,190.457z M172.681,294.789l33.229,41.016
			c-10.825,7.688-27.584,19.593-33.217,23.593l-27.019-54.149L172.681,294.789z M101.01,497v-89.216c0-4.142-3.357-7.5-7.5-7.5
			s-7.5,3.358-7.5,7.5V497H33.565c-1.097,0-1.989-0.893-1.989-1.989V391.797c0-40.352,34.082-55.462,36.1-56.32l63.946-24.791
			l28.13,56.376c0,0,0,0,0.001,0.001c1.839,3.685,5.185,6.371,9.18,7.37c7.31,1.828,11.663-2.248,16.289-5.533l8.049,12.114
			L173.64,497H101.01z M332.605,496.999h-72.69l-6.732-39.777c-0.69-4.083-4.549-6.83-8.646-6.144
			c-4.084,0.691-6.834,4.563-6.143,8.647l6.309,37.274h-55.848l18.646-110.163h18.557l6.412,37.886
			c0.69,4.084,4.556,6.835,8.647,6.144c4.084-0.691,6.834-4.563,6.143-8.646l-6.974-41.206l8.049-12.114l4.722,3.354
			c7.045,5.005,16.891,2.532,20.745-5.19c0.001,0,0.001,0,0.001,0l28.128-56.373l1.28,0.495c-10.426,16.312-16.4,35.728-16.4,56.17
			c0,35.845,18.177,67.523,45.795,86.306V496.999z M402.036,495.093c0,1.052-0.855,1.907-1.907,1.907h-52.523v-34.859
			c13.251,6.107,27.99,9.522,43.513,9.522c3.687,0,7.328-0.195,10.918-0.57V495.093z"/>
	</g>
</g>
<g>
	<g>
		<path d="M426.617,345.192c-2.892-2.966-7.638-3.028-10.607-0.136l-29.487,28.742L374.17,361.69
			c-2.958-2.899-7.707-2.852-10.607,0.107c-2.899,2.958-2.852,7.707,0.106,10.607l17.589,17.237c1.458,1.429,3.354,2.144,5.25,2.144
			c1.889,0,3.778-0.709,5.235-2.129l34.737-33.858C429.447,352.906,429.507,348.158,426.617,345.192z"/>
	</g>
</g>
<g>
	<g>
		<path d="M391.118,289.43c-42.968,0-77.925,34.957-77.925,77.925s34.957,77.925,77.925,77.925s77.925-34.957,77.925-77.925
			C469.043,324.387,434.086,289.43,391.118,289.43z M391.118,430.278c-34.696,0-62.924-28.228-62.924-62.924
			c0-34.696,28.227-62.924,62.924-62.924c34.696,0,62.924,28.228,62.924,62.924C454.042,402.05,425.814,430.278,391.118,430.278z"/>
	</g>
</g>
<g>
</g>
<g>
</g>
<g>
</g>
<g>
</g>
<g>
</g>
<g>
</g>
<g>
</g>
<g>
</g>
<g>
</g>
<g>
</g>
<g>
</g>
<g>
</g>
<g>
</g>
<g>
</g>
<g>
</g>
</svg>
