<svg id="Layer_5" enable-background="new 0 0 62 62" height="512" viewBox="0 0 62 62" width="512" xmlns="http://www.w3.org/2000/svg"><g><path d="m59 34c1.654 0 3-1.346 3-3v-4c0-1.654-1.346-3-3-3h-1v-9c0-1.654-1.346-3-3-3h-5v-9c0-1.654-1.346-3-3-3h-32c-1.654 0-3 1.346-3 3v9h-3c-2.757 0-5 2.243-5 5v35h-1c-1.654 0-3 1.346-3 3 0 3.86 3.141 7 7 7h48c3.859 0 7-3.14 7-7 0-1.654-1.346-3-3-3h-1v-18zm-28.81-2h-4.19v-2h4.87c-.308.636-.535 1.308-.68 2zm2.008-4h-6.198v-2h7.865zm-8.198 3.382-3.658-1.829c-.211-.106-.342-.317-.342-.553s.131-.447.342-.553l3.658-1.829zm9.537-1.864 2.28-2.736c.711-.854 1.249-1.821 1.601-2.876.181-.542.686-.906 1.258-.906.73 0 1.324.594 1.324 1.325 0 1.458-.567 2.829-1.599 3.86l-.937.937c-.943.944-1.464 2.2-1.464 3.535v3.343h2v-2h7.382l-3 6h-8.662l-1.381-4.143c-.226-.676-.34-1.38-.34-2.095.001-1.548.547-3.054 1.538-4.244zm4.464-9.689c0-1.008.82-1.829 1.828-1.829.481 0 .952.195 1.293.536l3.767 3.768c.477.476.796 1.063.966 1.697h-3.887c-.166-1.679-1.57-3-3.291-3-.076 0-.149.013-.224.018-.288-.333-.452-.747-.452-1.19zm.077 12.171c.123-.55.393-1.056.801-1.465l.535-.535h14.586v2zm15.922-4h-12.972c.356-.625.616-1.297.777-2h12.195zm-2-4h-2v-6h2zm-19 18h10c.552 0 1 .449 1 1v5h-12v-5c0-.551.448-1 1-1zm11.429-1.621 2.961-5.92c.074-.149.136-.304.197-.458h.413v14h-2v-5c0-1.135-.64-2.113-1.571-2.622zm5.571-6.379h2v14h-2zm10-7v4c0 .551-.448 1-1 1h-3v-6h3c.552 0 1 .449 1 1zm-5-13c.552 0 1 .449 1 1v9h-2v-8h-4v-2zm-40-12h32c.552 0 1 .449 1 1v21h-.096c-.2-1.172-.743-2.254-1.601-3.111l-3.767-3.767c-.723-.724-1.683-1.122-2.707-1.122-2.11 0-3.828 1.717-3.828 3.829 0 .7.199 1.365.549 1.951-.463.386-.829.893-1.03 1.494-.084.253-.208.487-.319.727h-10.437l-5.316 2.658c-.575.288-.988.773-1.225 1.342h-2.223v2h2.222c.237.569.65 1.054 1.225 1.342l5.317 2.657h5.255c.023.848.156 1.686.424 2.491l1.27 3.811c-1.009.483-1.713 1.506-1.713 2.698v-3h-6v6h6v2h-16v-45c0-.551.448-1 1-1zm13 40v2h-2v-2zm-16 6h-2v-30h2zm48 7c0 2.757-2.243 5-5 5h-48c-2.757 0-5-2.243-5-5 0-.551.448-1 1-1h19v1c0 1.654 1.346 3 3 3h12c1.654 0 3-1.346 3-3v-1h19c.552 0 1 .449 1 1zm-36-1h14v1c0 .551-.448 1-1 1h-12c-.552 0-1-.449-1-1zm32-2h-50v-35c0-1.654 1.346-3 3-3h3v2h-2c-1.103 0-2 .897-2 2v30c0 1.103.897 2 2 2h42c1.103 0 2-.897 2-2v-14h2z"/><circle cx="55" cy="57" r="1"/><circle cx="51" cy="57" r="1"/><circle cx="47" cy="57" r="1"/><path d="m32 4h-16v14h16zm-2 12h-12v-10h12z"/><path d="m34 4h12v2h-12z"/><path d="m34 8h12v2h-12z"/><path d="m34 12h12v2h-12z"/><path d="m16 24h4v2h-4z"/><path d="m16 20h18v2h-18z"/><path d="m16 32h4v2h-4z"/><path d="m22 40h-6v6h6zm-2 4h-2v-2h2z"/><path d="m16 36h13v2h-13z"/></g></svg>