<svg height="512" viewBox="0 0 512 512" width="512" xmlns="http://www.w3.org/2000/svg"><g><path d="m448 72h-225.61a80 80 0 1 0 -86.39 95.6v328.4a8 8 0 0 0 8 8h256a8.008 8.008 0 0 0 5.66-2.34l48-48a8.008 8.008 0 0 0 2.34-5.66v-368a8 8 0 0 0 -8-8zm-368 16a64 64 0 1 1 64 64 64.072 64.072 0 0 1 -64-64zm328 388.69v-20.69h20.69zm32-36.69h-40a8 8 0 0 0 -8 8v40h-240v-320.4a80.115 80.115 0 0 0 72-79.6h216z"/><path d="m296 128a120 120 0 1 0 120 120 120.134 120.134 0 0 0 -120-120zm0 224a103.547 103.547 0 0 1 -66.38-24h2.38a32.042 32.042 0 0 1 32-32h9.38a23.99 23.99 0 0 0 45.24 0h9.38a32.042 32.042 0 0 1 32 32h2.38a103.547 103.547 0 0 1 -66.38 24zm-25.65-135.72c12.94 0 32.94-2.34 57.65-12.79v28.51a32 32 0 0 1 -64 0v-15.92c1.88.12 3.99.2 6.35.2zm-6.35-16.24v-.04a32.042 32.042 0 0 1 32-32c12.65 0 23.86 8.04 29.01 19.34-19.84 8.84-36.12 11.77-46.71 12.62a92.371 92.371 0 0 1 -14.3.08zm40 79.28v8.68a8 8 0 0 1 -16 0v-8.68a47.4 47.4 0 0 0 16 0zm70.51 36.81a48.082 48.082 0 0 0 -46.51-36.13h-8v-6.46a48.012 48.012 0 0 0 24-41.54v-32c0-.23-.01-.45-.03-.68a49.189 49.189 0 0 0 -13.93-32.66 47.093 47.093 0 0 0 -34.04-14.66 48.051 48.051 0 0 0 -48 48v32a48.012 48.012 0 0 0 24 41.54v6.46h-8a48.082 48.082 0 0 0 -46.51 36.13 104 104 0 1 1 157.02 0z"/><path d="m280 392h-112a8 8 0 0 0 0 16h112a8 8 0 0 0 0-16z"/><path d="m232 416h-64a8 8 0 0 0 0 16h64a8 8 0 0 0 0-16z"/><path d="m264 416h-8a8 8 0 0 0 0 16h8a8 8 0 0 0 0-16z"/><path d="m304 400a8 8 0 0 0 8 8h112a8 8 0 0 0 0-16h-112a8 8 0 0 0 -8 8z"/><path d="m376 416h-64a8 8 0 0 0 0 16h64a8 8 0 0 0 0-16z"/><path d="m408 416h-8a8 8 0 0 0 0 16h8a8 8 0 0 0 0-16z"/><path d="m189.657 66.343a8 8 0 0 0 -11.314 0l-42.343 42.344-18.343-18.344a8 8 0 0 0 -11.314 11.314l24 24a8 8 0 0 0 11.314 0l48-48a8 8 0 0 0 0-11.314z"/></g></svg>