<?xml version="1.0" encoding="UTF-8"?>
<svg xmlns="http://www.w3.org/2000/svg" viewBox="0 0 64 64" width="512" height="512"><g id="Check-Covid19-Fever-Female-Avatar"><circle cx="39" cy="29" r="2"/><circle cx="25" cy="29" r="2"/><path d="M42,43.76a16.815,16.815,0,0,0,5.07-7.43A16.62,16.62,0,0,0,48,30.81V25.82c.3.05.6.1.91.13.36.03.72.05,1.09.05a11.639,11.639,0,0,0,3.27-.46,12.043,12.043,0,1,0-14.89-8.6A45.812,45.812,0,0,0,29,16a5.007,5.007,0,0,1-4.33-2.51A4.865,4.865,0,0,1,24,11H22a7.03,7.03,0,0,0,.61,2.84,7.1,7.1,0,0,0-1,1.8A9.363,9.363,0,0,0,21,19a7.005,7.005,0,0,1-1.54,4.36c-.01.01-.02.01-.03.02l.01.01a1.047,1.047,0,0,1-.08.11,6.826,6.826,0,0,1-2.73,1.99A7.033,7.033,0,0,1,14,26v2a9.025,9.025,0,0,0,2-.23v3.04a16.984,16.984,0,0,0,6,12.95,16.449,16.449,0,0,0,3.81,2.46l.82.38a6.046,6.046,0,0,1-5.07.94,5.926,5.926,0,0,1-4.15-3.96,1.987,1.987,0,0,0-2.12-1.34,5.921,5.921,0,0,1-5.04-1.7,6,6,0,0,1,0-8.48l1.17-1.17A2.016,2.016,0,0,0,12,29.48V24.5C12,13.77,21.17,4.38,32.04,4a19.19,19.19,0,0,1,7.57,1.23l.72-1.86A21.026,21.026,0,0,0,31.96,2C20.06,2.42,10,12.72,10,24.5v4.97L8.83,30.64a8.033,8.033,0,0,0,0,11.32,7.847,7.847,0,0,0,6.68,2.25,7.918,7.918,0,0,0,5.43,5.23A10.959,10.959,0,0,0,15,59.2V60a2.006,2.006,0,0,0,2,2H47a2.006,2.006,0,0,0,2-2v-.8a10.97,10.97,0,0,0-5.94-9.76,7.793,7.793,0,0,0,5.39-5.22,7.934,7.934,0,0,0,6.72-2.26,8.033,8.033,0,0,0,0-11.32L54,29.48V28H52v1.48a2.016,2.016,0,0,0,.58,1.41l1.17,1.17a5.994,5.994,0,0,1-5.04,10.18,1.977,1.977,0,0,0-2.12,1.35,5.932,5.932,0,0,1-4.15,3.95,6.046,6.046,0,0,1-5.07-.94l.82-.38A16.449,16.449,0,0,0,42,43.76ZM43.47,6.43a10,10,0,1,1,9.25,17.19,9.751,9.751,0,0,1-3.63.33,8.756,8.756,0,0,1-1.82-.33A9.932,9.932,0,0,1,40,14,9.971,9.971,0,0,1,43.47,6.43ZM18,30.81V27.05a8.841,8.841,0,0,0,2.73-2.09A9.4,9.4,0,0,1,25,24a9.26,9.26,0,0,1,4.45,1.04l1-1.74A11.176,11.176,0,0,0,25,22a12.466,12.466,0,0,0-2.63.29A9.032,9.032,0,0,0,23,19a7.366,7.366,0,0,1,.47-2.64,6.468,6.468,0,0,1,.33-.7A7.016,7.016,0,0,0,29,18a43.252,43.252,0,0,1,10.18,1.16,12.034,12.034,0,0,0,2.07,3.06A12.621,12.621,0,0,0,39,22a11.176,11.176,0,0,0-5.45,1.3l1,1.74A9.119,9.119,0,0,1,39,24a9.221,9.221,0,0,1,4.55,1.09l.43-.71a11.868,11.868,0,0,0,2.02.91v5.52a14.754,14.754,0,0,1-.8,4.81L33.33,32.33a5.041,5.041,0,0,0-2.67,0L18.8,35.62A14.754,14.754,0,0,1,18,30.81ZM22.15,60H17v-.8a8.956,8.956,0,0,1,5.13-8.11l.85,3.94Zm19.76-8.9A8.985,8.985,0,0,1,47,59.2V60H41.85l-.83-4.97ZM37.89,50l1.88.37.24.06L39.2,54H33v2h6.15l.67,4H24.18l.67-4H27V54H24.81l-.78-3.57a1.519,1.519,0,0,1,.2-.06L26.11,50a3.008,3.008,0,0,0,2.84-2.45,10.131,10.131,0,0,0,6.1,0A3.008,3.008,0,0,0,37.89,50Zm-.54-5.6-1.77.82a8.387,8.387,0,0,1-7.16,0l-1.77-.82a14.638,14.638,0,0,1-3.35-2.16,14.879,14.879,0,0,1-3.73-4.76L31.2,34.26a3.1,3.1,0,0,1,1.6,0l11.63,3.22a14.879,14.879,0,0,1-3.73,4.76A14.638,14.638,0,0,1,37.35,44.4Z"/><rect x="29" y="54" width="2" height="2"/><path d="M43.46,17.535a2.98,2.98,0,0,0,.89,2.129,3.063,3.063,0,0,0,4.229,0L50,18.242l1.421,1.422a3,3,0,0,0,4.243-4.243L54.242,14l1.422-1.421a2.99,2.99,0,0,0-.014-4.243,3.065,3.065,0,0,0-4.229,0L50,9.758,48.579,8.336a3.056,3.056,0,0,0-4.243.014,2.99,2.99,0,0,0,0,4.229L45.758,14l-1.422,1.421A2.967,2.967,0,0,0,43.46,17.535Zm2.29-.7,2.129-2.128a1,1,0,0,0,0-1.414L45.75,11.165a.989.989,0,0,1,.016-1.415,1.012,1.012,0,0,1,1.4,0l2.128,2.129a1.029,1.029,0,0,0,1.414,0L52.835,9.75a1,1,0,0,1,1.415.016.989.989,0,0,1,0,1.4l-2.129,2.128a1,1,0,0,0,0,1.414l2.129,2.128a.989.989,0,0,1-.016,1.415,1.012,1.012,0,0,1-1.4,0l-2.128-2.129a1,1,0,0,0-1.414,0L47.165,18.25a1,1,0,0,1-1.415-.016.974.974,0,0,1-.29-.7A.984.984,0,0,1,45.75,16.835Z"/><rect x="25" y="37" width="14" height="2"/><rect x="27" y="41" width="10" height="2"/></g></svg>
