<svg height="512" viewBox="0 0 60 60" width="512" xmlns="http://www.w3.org/2000/svg"><g id="Page-1" fill="none" fill-rule="evenodd"><g id="062---Not-Approved-Luggage" fill="rgb(0,0,0)" fill-rule="nonzero"><path id="Shape" d="m11 12c3.3137085 0 6-2.6862915 6-6s-2.6862915-6-6-6-6 2.6862915-6 6c.00330738 3.31233757 2.68766243 5.9966926 6 6zm0-10c2.209139 0 4 1.790861 4 4s-1.790861 4-4 4-4-1.790861-4-4 1.790861-4 4-4z"/><path id="Shape" d="m0 20v11.5c0 1.9329966 1.56700338 3.5 3.5 3.5.52000782-.0029268 1.03268434-.1228931 1.5-.351v21.851c.00116554.9282342.36882741 1.8184575 1.023 2.477.66171794.6605445 1.56021767 1.0288699 2.49517942 1.0228585s1.82865108-.3858599 2.48182058-1.0548585c.01.01.016.022.026.032 1.0013485 1.000642 2.5068708 1.2995547 3.8145415.7573551 1.3076708-.5421996 2.1599653-1.8187341 2.1594585-3.2343551v-32.5l5 9.382v6.618c-1.6568542 0-3 1.3431458-3 3v12c0 1.6568542 1.3431458 3 3 3h7c1.6568542 0 3-1.3431458 3-3v-12c0-1.6568542-1.3431458-3-3-3v-7.51h-.014c.0068381-.570897-.1285676-1.1345144-.394-1.64l-8-15.006c-.6134545-1.136201-1.8007684-1.8442886-3.092-1.844h-11.5c-3.31233757.0033074-5.99669262 2.6876624-6 6zm30 23v12c0 .5522847-.4477153 1-1 1h-7c-.5522847 0-1-.4477153-1-1v-12c0-.5522847.4477153-1 1-1h7c.5522847 0 1 .4477153 1 1zm-6-3v-4.342c.9480075.4588771 2.0544533.4559266 3-.008v4.35zm-22-20c0-2.209139 1.790861-4 4-4h11.5c.5539951.0010272 1.063253.3043578 1.328.791l8 15c.3870331.7317259.1132631 1.6386448-.614 2.034-.7363848.3679169-1.6319208.097765-2.042-.616l-7.29-13.68c-.2161533-.4045571-.6798196-.6101903-1.1247782-.4988325-.4449586.1113579-.7571074.511151-.7572218.9698325v36.5c0 .8284271-.6715729 1.5-1.5 1.5s-1.5-.6715729-1.5-1.5v-16.5c0-.5522847-.4477153-1-1-1s-1 .4477153-1 1v16.5c0 .8284271-.67157288 1.5-1.5 1.5s-1.5-.6715729-1.5-1.5v-35.5c0-.5522847-.44771525-1-1-1s-1 .4477153-1 1v10.5c0 .8284271-.67157288 1.5-1.5 1.5s-1.5-.6715729-1.5-1.5z"/><path id="Shape" d="m27 44h-3c-.5522847 0-1 .4477153-1 1s.4477153 1 1 1h3c.5522847 0 1-.4477153 1-1s-.4477153-1-1-1z"/><path id="Shape" d="m57 39h-5v-1c0-1.6568542-1.3431458-3-3-3h-3c-1.6568542 0-3 1.3431458-3 3v1h-5c-1.6568542 0-3 1.3431458-3 3v13c0 1.6568542 1.3431458 3 3 3h19c1.6568542 0 3-1.3431458 3-3v-13c0-1.6568542-1.3431458-3-3-3zm-12-1c0-.5522847.4477153-1 1-1h3c.5522847 0 1 .4477153 1 1v1h-5zm13 17c0 .5522847-.4477153 1-1 1h-19c-.5522847 0-1-.4477153-1-1v-13c0-.5522847.4477153-1 1-1h19c.5522847 0 1 .4477153 1 1z"/><path id="Shape" d="m44 0c-8.836556 0-16 7.163444-16 16s7.163444 16 16 16 16-7.163444 16-16c-.0104696-8.8322157-7.1677843-15.98953038-16-16zm0 30c-7.7319865 0-14-6.2680135-14-14s6.2680135-14 14-14 14 6.2680135 14 14c-.0082673 7.7285595-6.2714405 13.9917327-14 14z"/><path id="Shape" d="m53.414 9.414-2.828-2.828c-.375096-.37524801-.8839266-.58607293-1.4145-.58607293s-1.039404.21082492-1.4145.58607293l-3.757 3.758-3.757-3.758c-.375096-.37524801-.8839266-.58607293-1.4145-.58607293s-1.039404.21082492-1.4145.58607293l-2.828 2.828c-.7807639.7809997-.7807639 2.0470003 0 2.828l3.757 3.758-3.757 3.758c-.7807639.7809997-.7807639 2.0470003 0 2.828l2.828 2.828c.7822521.778679 2.0467479.778679 2.829 0l3.757-3.758 3.757 3.758c.375096.375248.8839266.5860729 1.4145.5860729s1.039404-.2108249 1.4145-.5860729l2.828-2.828c.7807639-.7809997.7807639-2.0470003 0-2.828l-3.757-3.758 3.757-3.758c.7807639-.7809997.7807639-2.0470003 0-2.828zm-5.878 5.879c-.3903819.3904999-.3903819 1.0235001 0 1.414l4.464 4.464-2.829 2.829-4.464-4.465c-.3904999-.3903819-1.0235001-.3903819-1.414 0l-4.465 4.465-2.828-2.828 4.464-4.465c.3903819-.3904999.3903819-1.0235001 0-1.414l-4.464-4.465 2.829-2.828 4.464 4.465c.3966954.3751231 1.0173046.3751231 1.414 0l4.465-4.465 2.828 2.828z"/></g></g></svg>