<?xml version="1.0"?>
<svg xmlns="http://www.w3.org/2000/svg" viewBox="0 0 64 64" width="512" height="512"><g id="Spreading-Coronavirus-Covid_19-Pandemic-Transmission" data-name="Spreading-Coronavirus-Covid 19-Pandemic-Transmission"><path d="M37.65,19.85,35,19.21V17.19A6.044,6.044,0,0,0,37.65,14H38a3,3,0,0,0,2.84-3.97A3.056,3.056,0,0,0,38,8.01V8A6,6,0,0,0,26,8v.01a3.061,3.061,0,0,0-2.84,2.01A3,3,0,0,0,26,14h.35A6.044,6.044,0,0,0,29,17.19v2.02l-2.65.64A6.987,6.987,0,0,0,21,26.66V28a1,1,0,0,0,1,1H42a1,1,0,0,0,1-1V26.66A6.987,6.987,0,0,0,37.65,19.85ZM38,10.01a1.047,1.047,0,0,1,.94.65,1,1,0,0,1-.12.92A1.028,1.028,0,0,1,38,12ZM26,12a1.028,1.028,0,0,1-.82-.42,1.012,1.012,0,0,1-.12-.93,1.055,1.055,0,0,1,.94-.64Zm6-8a4,4,0,0,1,4,4,2.006,2.006,0,0,1-2-2,1,1,0,0,0-2,0,2.006,2.006,0,0,1-2,2H28A4,4,0,0,1,32,4Zm-4,8V10h2a4,4,0,0,0,3-1.36A4,4,0,0,0,36,10v2a4,4,0,0,1-8,0Zm5,5.91V20a1,1,0,0,1-2,0V17.91a5.6,5.6,0,0,0,2,0ZM41,27H23v-.34a4.976,4.976,0,0,1,3.83-4.86l2.43-.59a2.992,2.992,0,0,0,5.48,0l2.43.59A4.976,4.976,0,0,1,41,26.66Z"/><path d="M18.65,52.85,16,52.21V50.19A6.044,6.044,0,0,0,18.65,47H19a3,3,0,0,0,2.84-3.97A3.056,3.056,0,0,0,19,41.01V41A6,6,0,0,0,7,41v.01a3.061,3.061,0,0,0-2.84,2.01A3,3,0,0,0,7,47h.35A6.044,6.044,0,0,0,10,50.19v2.02l-2.65.64A6.987,6.987,0,0,0,2,59.66V61a1,1,0,0,0,1,1H23a1,1,0,0,0,1-1V59.66A6.987,6.987,0,0,0,18.65,52.85ZM19,43.01a1.047,1.047,0,0,1,.94.65,1,1,0,0,1-.12.92A1.028,1.028,0,0,1,19,45ZM7,45a1.028,1.028,0,0,1-.82-.42,1.012,1.012,0,0,1-.12-.93A1.055,1.055,0,0,1,7,43.01Zm6-8a4,4,0,0,1,4,4,2.006,2.006,0,0,1-2-2,1,1,0,0,0-2,0,2.006,2.006,0,0,1-2,2H9A4,4,0,0,1,13,37ZM9,45V43h2a4,4,0,0,0,3-1.36A4,4,0,0,0,17,43v2a4,4,0,0,1-8,0Zm5,5.91V53a1,1,0,0,1-2,0V50.91A6.638,6.638,0,0,0,13,51,6.638,6.638,0,0,0,14,50.91ZM22,60H4v-.34A4.976,4.976,0,0,1,7.83,54.8l2.43-.59a2.992,2.992,0,0,0,5.48,0l2.43.59A4.976,4.976,0,0,1,22,59.66Z"/><path d="M56.65,52.85,54,52.21V50.19A6.044,6.044,0,0,0,56.65,47H57a3,3,0,0,0,2.84-3.97A3.056,3.056,0,0,0,57,41.01V41a6,6,0,0,0-12,0v.01a3.061,3.061,0,0,0-2.84,2.01A3,3,0,0,0,45,47h.35A6.044,6.044,0,0,0,48,50.19v2.02l-2.65.64A6.987,6.987,0,0,0,40,59.66V61a1,1,0,0,0,1,1H61a1,1,0,0,0,1-1V59.66A6.987,6.987,0,0,0,56.65,52.85ZM57,43.01a1.047,1.047,0,0,1,.94.65,1,1,0,0,1-.12.92A1.028,1.028,0,0,1,57,45ZM45,45a1.028,1.028,0,0,1-.82-.42,1.012,1.012,0,0,1-.12-.93,1.055,1.055,0,0,1,.94-.64Zm6-8a4,4,0,0,1,4,4,2.006,2.006,0,0,1-2-2,1,1,0,0,0-2,0,2.006,2.006,0,0,1-2,2H47A4,4,0,0,1,51,37Zm-4,8V43h2a4,4,0,0,0,3-1.36A4,4,0,0,0,55,43v2a4,4,0,0,1-8,0Zm5,5.91V53a1,1,0,0,1-2,0V50.91a5.6,5.6,0,0,0,2,0ZM60,60H42v-.34a4.976,4.976,0,0,1,3.83-4.86l2.43-.59a2.992,2.992,0,0,0,5.48,0l2.43.59A4.976,4.976,0,0,1,60,59.66Z"/><path d="M40,38H38v1.586l-5-5V31H31v3.586l-5,5V38H24v4a1,1,0,0,0,1,1h4V41H27.414L32,36.414,36.586,41H35v2h4a1,1,0,0,0,1-1Z"/><path d="M8.567,14.019,7.051,15.536,8.465,16.95l1.516-1.517A3.915,3.915,0,0,0,11,15.858V18h2V15.858a3.915,3.915,0,0,0,1.019-.425l1.516,1.517,1.414-1.414-1.516-1.517A3.915,3.915,0,0,0,15.858,13H18V11H15.858a3.915,3.915,0,0,0-.425-1.019l1.516-1.517L15.535,7.05,14.019,8.567A3.915,3.915,0,0,0,13,8.142V6H11V8.142a3.915,3.915,0,0,0-1.019.425L8.465,7.05,7.051,8.464,8.567,9.981A3.915,3.915,0,0,0,8.142,11H6v2H8.142A3.915,3.915,0,0,0,8.567,14.019ZM12,10a2,2,0,1,1-2,2A2,2,0,0,1,12,10Z"/><path d="M48.567,14.019l-1.516,1.517,1.414,1.414,1.516-1.517A3.915,3.915,0,0,0,51,15.858V18h2V15.858a3.915,3.915,0,0,0,1.019-.425l1.516,1.517,1.414-1.414-1.516-1.517A3.915,3.915,0,0,0,55.858,13H58V11H55.858a3.915,3.915,0,0,0-.425-1.019l1.516-1.517L55.535,7.05,54.019,8.567A3.915,3.915,0,0,0,53,8.142V6H51V8.142a3.915,3.915,0,0,0-1.019.425L48.465,7.05,47.051,8.464l1.516,1.517A3.915,3.915,0,0,0,48.142,11H46v2h2.142A3.915,3.915,0,0,0,48.567,14.019ZM52,10a2,2,0,1,1-2,2A2,2,0,0,1,52,10Z"/></g></svg>
