<svg id="Capa_1" enable-background="new 0 0 512 512" height="512" viewBox="0 0 512 512" width="512" xmlns="http://www.w3.org/2000/svg"><g><path d="m368.226 296.597h-17.142c-1.166-7.4-4.05-14.365-8.458-20.422l12.121-12.121c2.929-2.929 2.929-7.678 0-10.606-2.929-2.929-7.678-2.929-10.606 0l-17.005 17.005c-2.929 2.929-2.929 7.678 0 10.606.003.003.006.005.009.008s.005.006.008.009c6.142 6.151 9.525 14.327 9.525 23.021 0 17.965-14.616 32.581-32.581 32.581s-32.581-14.616-32.581-32.581 14.616-32.581 32.581-32.581c4.142 0 7.5-3.358 7.5-7.5v-24.048c0-4.142-3.358-7.5-7.5-7.5s-7.5 3.358-7.5 7.5v17.145c-7.533 1.198-14.477 4.174-20.4 8.477l-12.143-12.143c-2.929-2.929-7.678-2.929-10.606 0-2.929 2.929-2.929 7.678 0 10.606l12.143 12.143c-4.303 5.923-7.279 12.867-8.477 20.4h-17.145c-4.142 0-7.5 3.358-7.5 7.5s3.358 7.5 7.5 7.5h17.145c1.198 7.533 4.174 14.477 8.477 20.4l-12.143 12.143c-2.929 2.929-2.929 7.678 0 10.606 1.464 1.464 3.384 2.197 5.303 2.197s3.839-.732 5.303-2.197l12.143-12.143c5.923 4.303 12.867 7.279 20.4 8.477v17.145c0 4.142 3.358 7.5 7.5 7.5s7.5-3.358 7.5-7.5v-17.145c7.533-1.198 14.477-4.174 20.4-8.477l12.143 12.143c1.464 1.464 3.384 2.197 5.303 2.197s3.839-.732 5.303-2.197c2.929-2.929 2.929-7.678 0-10.606l-12.143-12.143c4.303-5.923 7.279-12.867 8.477-20.4h17.145c4.142 0 7.5-3.358 7.5-7.5s-3.357-7.499-7.499-7.499z"/><path d="m317.785 304.583c4.142 0 7.5-3.358 7.5-7.5s-3.358-7.5-7.5-7.5h-.068c-4.142 0-7.466 3.358-7.466 7.5s3.392 7.5 7.534 7.5z"/><path d="m304.091 325.124c4.142 0 7.5-3.358 7.5-7.5s-3.358-7.5-7.5-7.5h-.068c-4.142 0-7.466 3.358-7.466 7.5s3.392 7.5 7.534 7.5z"/><path d="m290.396 289.583h-.068c-4.142 0-7.466 3.358-7.466 7.5s3.392 7.5 7.534 7.5 7.5-3.358 7.5-7.5-3.357-7.5-7.5-7.5z"/><path d="m472.436 432.871c-8.203 0-15.83 2.51-22.156 6.802l-62.106-62.106c17.196-19.654 27.633-45.365 27.633-73.47 0-33.214-14.576-63.083-37.66-83.562l44.416-57.479c5.357 2.713 11.405 4.252 17.809 4.252 21.816 0 39.564-17.749 39.564-39.565s-17.749-39.564-39.564-39.564-39.564 17.749-39.564 39.564c0 10.009 3.743 19.156 9.894 26.131l-44.41 57.473c-17.789-11.967-39.189-18.958-62.193-18.958-4.126 0-8.198.232-12.209.67l-16.568-92.779c7.282-4.005 12.229-11.751 12.229-20.633 0-12.976-10.557-23.532-23.532-23.532s-23.532 10.557-23.532 23.532c0 11.799 8.73 21.596 20.07 23.275l16.566 92.768c-17.478 4.351-33.342 12.826-46.493 24.332l-130.799-130.797c7.122-9.345 11.362-20.999 11.362-33.628 0-6.013-.956-11.931-2.841-17.587-1.31-3.93-5.557-6.055-9.486-4.744-3.93 1.31-6.054 5.557-4.744 9.486 1.375 4.125 2.072 8.447 2.072 12.845 0 22.385-18.211 40.597-40.597 40.597s-40.597-18.212-40.597-40.597 18.211-40.597 40.597-40.597c7.177 0 14.228 1.896 20.389 5.482 3.579 2.083 8.17.871 10.255-2.709 2.083-3.58.871-8.171-2.709-10.255-8.45-4.918-18.11-7.518-27.935-7.518-30.657 0-55.597 24.94-55.597 55.597s24.94 55.597 55.597 55.597c12.63 0 24.283-4.24 33.628-11.362l130.795 130.795c-14.156 16.179-23.728 36.464-26.67 58.809l-115.013-7.42c-2.677-10.053-11.856-17.484-22.74-17.484-12.976 0-23.532 10.557-23.532 23.532s10.557 23.532 23.532 23.532c9.819 0 18.249-6.048 21.771-14.612l115.023 7.421c.06 21.974 6.495 42.477 17.552 59.751l-37.947 27.961c-5.478-4.58-12.524-7.343-20.206-7.343-17.396 0-31.549 14.152-31.549 31.548s14.153 31.548 31.549 31.548 31.548-14.152 31.548-31.548c0-4.3-.867-8.4-2.432-12.138l37.955-27.967c20.507 24.199 51.105 39.589 85.235 39.589 28.105 0 53.816-10.437 73.47-27.633l62.106 62.106c-4.292 6.326-6.802 13.953-6.802 22.156 0 21.816 17.749 39.564 39.564 39.564s39.566-17.748 39.566-39.563-17.749-39.565-39.564-39.565zm-32.065-329.694c13.545 0 24.564 11.02 24.564 24.564s-11.02 24.565-24.564 24.565-24.564-11.02-24.564-24.565 11.019-24.564 24.564-24.564zm-184.887-23.532c0-4.705 3.828-8.532 8.532-8.532s8.532 3.828 8.532 8.532-3.828 8.532-8.532 8.532-8.532-3.827-8.532-8.532zm-103.693 353.226c-9.125 0-16.549-7.423-16.549-16.548s7.424-16.548 16.549-16.548 16.548 7.423 16.548 16.548-7.423 16.548-16.548 16.548zm-96.194-136.274c-4.705 0-8.532-3.828-8.532-8.532s3.828-8.532 8.532-8.532 8.532 3.828 8.532 8.532-3.828 8.532-8.532 8.532zm248.5 104.21c-53.326 0-96.709-43.384-96.709-96.71s43.384-96.709 96.709-96.709c53.326 0 96.71 43.384 96.71 96.709 0 53.326-43.384 96.71-96.71 96.71zm168.339 96.193c-13.545 0-24.564-11.02-24.564-24.564s11.02-24.564 24.564-24.564 24.564 11.019 24.564 24.564-11.02 24.564-24.564 24.564z"/></g></svg>