<svg id="_x33_0" enable-background="new 0 0 64 64" height="512" viewBox="0 0 64 64" width="512" xmlns="http://www.w3.org/2000/svg"><g><path d="m57.755 47.26 1.231-.879c2.514-1.795 4.014-4.71 4.014-7.798 0-.431-.029-.866-.088-1.295l-1.436-10.525c-.914-6.706-6.706-11.763-13.477-11.763-2.635 0-5.16.753-7.357 2.171-1.811-1.357-4.049-2.171-6.48-2.171h-1.162v-2.101c.637-.13 1.229-.384 1.753-.732l1.54 1.54 1.414-1.414-1.54-1.54c.348-.524.602-1.116.732-1.753h2.101v-2h-2.101c-.13-.637-.384-1.228-.732-1.753l1.54-1.54-1.414-1.414-1.54 1.54c-.524-.348-1.116-.602-1.753-.732v-2.101h-2v2.101c-.637.13-1.229.384-1.753.732l-1.54-1.54-1.414 1.414 1.54 1.54c-.348.525-.602 1.116-.732 1.753h-2.101v2h2.101c.13.637.384 1.228.732 1.753l-1.54 1.54 1.414 1.414 1.54-1.54c.525.348 1.116.602 1.753.732v2.101h-1.162c-2.147 0-4.144.635-5.83 1.716-1.744-1.121-3.749-1.716-5.846-1.716h-2.919c-2.469 0-4.79-.961-6.536-2.707l-.707-.707-.939.939c-1.32 1.321-2.05 3.074-2.059 4.94l-1.279-.853-1.15 1.724c-1.029 1.546-1.573 3.343-1.573 5.198 0 2.502.975 4.854 2.744 6.624l.241.242c-.605.701-.985 1.603-.985 2.6 0 2.206 1.794 4 4 4h.08c.378 2.625 2.213 4.78 4.66 5.618l-.164.493c-.253.761-.788 1.377-1.504 1.735l-.779.39c-5.116 2.557-8.293 7.698-8.293 13.416v4.348h62v-4.348c0-4.473-1.95-8.586-5.245-11.392zm-22.755-39.26c0 1.654-1.346 3-3 3-.499 0-.963-.134-1.378-.351 1.398-.624 2.378-2.021 2.378-3.649 0-.699-.186-1.365-.514-1.951 1.423.234 2.514 1.463 2.514 2.951zm-4.674-2.488c.421.374.674.908.674 1.488 0 1.041-.803 1.89-1.821 1.982-.108-.309-.179-.636-.179-.982 0-1.035.527-1.949 1.326-2.488zm24.674 49.488v6h-8v-2.348c0-4.473-1.95-8.586-5.244-11.392.143-.079.285-.162.43-.235l.763-.381c1.247 1.485 3.084 2.356 5.051 2.356s3.805-.871 5.051-2.356l.763.381c3.933 1.966 6.539 5.697 7.078 9.975h-3.892v-2zm-36 4h4v2h-4zm4-4v2h-3.892c.538-4.278 3.145-8.008 7.078-9.975l.763-.381c1.247 1.485 3.084 2.356 5.051 2.356 1.966 0 3.804-.871 5.051-2.356l.763.381c3.933 1.966 6.539 5.697 7.078 9.975h-3.892v-2h-2v6h-14v-6zm-11.636-8.615 2.692 1.615-2.564 1.538-1.055-2.638.529-.264c.142-.071.265-.168.398-.251zm11.636-15.385v4c-1.103 0-2-.897-2-2s.897-2 2-2zm1 8.587c.844 1.406 2.164 2.492 3.74 3.032l-.164.493c-.253.761-.788 1.377-1.504 1.735l-.779.39c-.448.224-.876.475-1.293.737-.42-.264-.848-.516-1.29-.737l-.779-.39c-.717-.358-1.251-.975-1.504-1.735l-.164-.493c1.573-.541 2.893-1.626 3.737-3.032zm17-8.587c1.103 0 2 .897 2 2s-.897 2-2 2zm13-2c.551 0 1 .448 1 1v3.382l-3.236 1.618h-7.32c.344-.591.556-1.268.556-2 0-.791-.238-1.524-.635-2.145.407-1.611.624-3.263.632-4.924 2.578 1.976 5.746 3.069 9.003 3.069zm-3.473 14.744c.208.624.532 1.188.947 1.673-.868 1-2.129 1.583-3.474 1.583-1.346 0-2.606-.583-3.474-1.583.415-.485.739-1.049.947-1.673l.253-.758c.091.004.181.014.274.014h4c.093 0 .183-.01.275-.014zm.473-2.845c-.323.066-.658.101-1 .101h-4c-.342 0-.677-.035-1-.101v-3.899h6zm-8.167-4.364.167.083v3.356c-.956-.723-1.654-1.768-1.9-2.985.626-.015 1.21-.182 1.733-.454zm10.167.083 2-1v.382c0 1.627-.793 3.061-2 3.974zm-9.26 6-.164.493c-.253.761-.788 1.377-1.504 1.735l-.779.39c-.442.221-.87.473-1.29.737-.418-.262-.845-.513-1.293-.737l-.779-.39c-.717-.358-1.251-.975-1.504-1.735l-.164-.493c1.576-.54 2.896-1.625 3.74-3.032.841 1.407 2.161 2.492 3.737 3.032zm-9.465.368.253.758c.208.624.532 1.188.947 1.673-.869 1-2.13 1.583-3.475 1.583-1.346 0-2.606-.583-3.474-1.583.415-.485.739-1.049.947-1.673l.253-.758c.091.004.181.014.274.014h4c.093 0 .183-.01.275-.014zm-13.64 3.399c.134.083.257.18.4.251l.779.39c.146.073.287.156.43.235-.748.637-1.427 1.341-2.029 2.102l-2.272-1.363zm20.365 12.615h4v2h-4zm7.001-42c5.773 0 10.714 4.313 11.494 10.032l1.436 10.525c.046.34.069.685.069 1.026 0 2.443-1.188 4.75-3.176 6.171l-1.761 1.258c-.436-.277-.884-.541-1.354-.776l-.779-.39c-.717-.358-1.251-.975-1.504-1.735l-.164-.493c2.751-.943 4.738-3.55 4.738-6.618v-6c0-1.654-1.346-3-3-3-2.991 0-5.903-1.055-8.201-2.97l-1.176-.98c-.451-1.692-1.3-3.219-2.444-4.479 1.765-1.027 3.753-1.571 5.822-1.571zm-13.839 0c4.873 0 8.838 3.965 8.838 8.838 0 1.186-.12 2.367-.346 3.53-.506-.231-1.063-.368-1.654-.368v-2h-2v9c0 2.757-2.243 5-5 5h-4c-2.757 0-5-2.243-5-5v-7.838c0-1.46.931-2.751 2.316-3.214l-.633-1.896c-2.203.734-3.683 2.788-3.683 5.11v.838c-.591 0-1.148.137-1.654.368-.226-1.163-.346-2.345-.346-3.53 0-4.873 3.965-8.838 8.838-8.838zm-29.162 16c0-1.103.897-2 2-2v4c-1.103 0-2-.897-2-2zm2-5.396v1.396c-.472 0-.918.097-1.339.247l-.503-.503c-1.391-1.391-2.158-3.242-2.158-5.21 0-1.459.428-2.873 1.237-4.088l.04-.06 1.276.851c.349.825.855 1.584 1.508 2.237l.232.232 1.414-1.414-.232-.232c-.951-.951-1.475-2.215-1.475-3.56 0-1.135.373-2.212 1.06-3.092 2.014 1.678 4.528 2.592 7.183 2.592h2.919c1.472 0 2.886.365 4.159 1.048-1.752 1.691-2.935 3.961-3.237 6.502l-6.479-1.439c-.326-.073-.663-.11-1-.11-2.54-.001-4.605 2.064-4.605 4.603zm2 8.396v-8.396c0-1.436 1.168-2.604 2.604-2.604.191 0 .38.021.565.062l6.856 1.523c.053 1.441.256 2.871.61 4.27-.397.621-.635 1.354-.635 2.145 0 2.172 1.741 3.935 3.9 3.99-.461 2.284-2.482 4.01-4.9 4.01h-4c-2.757 0-5-2.243-5-5zm5 7h4c.093 0 .183-.01.275-.014l.253.758c.146.437.365.832.615 1.204l-3.143 1.886-3.143-1.886c.25-.372.47-.767.616-1.204l.253-.758c.091.004.181.014.274.014zm-5.315 4.906 1.822 4.556 5.493-3.296 3.081 1.849c-1.337 2.263-2.081 4.881-2.081 7.637v2.348h-8v-6h-2v2h-3.892c.467-3.707 2.487-7.001 5.577-9.094zm-5.685 11.094h4v2h-4zm54 2v-2h4v2z"/><path d="m35 21.172h2v5.657h-2z" transform="matrix(.707 -.707 .707 .707 -6.426 32.485)"/><path d="m30 21.172h2v5.657h-2z" transform="matrix(.707 -.707 .707 .707 -7.891 28.95)"/><circle cx="12" cy="30" r="1"/><path d="m19.6 8.8-1.2-1.6-2.4 1.8v-5c0-.552.449-1 1-1h8v-2h-8c-1.654 0-3 1.346-3 3v5l-2.4-1.8-1.2 1.6 4.6 3.45z"/><path d="m48 4v5l-2.4-1.8-1.2 1.6 4.6 3.45 4.6-3.45-1.2-1.6-2.4 1.8v-5c0-1.654-1.346-3-3-3h-8v2h8c.551 0 1 .448 1 1z"/><path d="m19.789 36.658.105-.211-1.789-.895-.105.212c-.381.762-1.147 1.236-2 1.236s-1.619-.474-2-1.236l-.105-.211-1.789.895.105.211c.722 1.444 2.174 2.341 3.789 2.341s3.067-.897 3.789-2.342z"/><path d="m27.586 30-1.293 1.293 1.414 1.414 2.707-2.707-2.707-2.707-1.414 1.414z"/><path d="m36.293 27.293-2.707 2.707 2.707 2.707 1.414-1.414-1.293-1.293 1.293-1.293z"/><path d="m36.101 36.359c-.452-.541-1.134-1.359-2.436-1.359s-1.984.818-2.436 1.359c-.403.485-.562.641-.899.641-.321 0-.471-.129-.896-.64-.451-.542-1.133-1.36-2.434-1.36v2c.321 0 .471.129.896.64.451.542 1.133 1.36 2.434 1.36 1.302 0 1.984-.818 2.436-1.359.403-.485.562-.641.899-.641s.496.156.899.641c.452.541 1.134 1.359 2.436 1.359v-2c-.337 0-.496-.156-.899-.641z"/><circle cx="52" cy="32" r="1"/></g></svg>