<svg id="throw" enable-background="new 0 0 300 300" height="512" viewBox="0 0 300 300" width="512" xmlns="http://www.w3.org/2000/svg"><g><path d="m201.456 224.293c-2.047 0-3.707 1.66-3.707 3.707s1.659 3.707 3.707 3.707 3.707-1.659 3.707-3.707-1.66-3.707-3.707-3.707z"/><path d="m169.456 216.293c-2.047 0-3.707 1.66-3.707 3.707s1.659 3.707 3.707 3.707 3.707-1.659 3.707-3.707-1.66-3.707-3.707-3.707z"/><path d="m241.456 58c-2.155 0-4.174.537-6 1.422v-2.922c0-7.996-6.281-14.5-14-14.5-2.155 0-4.174.549-6 1.454v-7.083c0-7.924-6.281-14.371-14-14.371s-14 6.447-14 14.371v25.017c-10.362-6.06-23.47-3.794-31.105 5.717l-18.23 22.705c-2.691 3.633-3.27 8.256-1.953 12.311l-25.489.429c-.492 0-.933.082-1.406.111l-4.704-13.043c-.069-.193-.211-.329-.306-.504.157-.549.328-1.094.412-1.668.484-3.33-.355-6.65-2.367-9.35l-6.734-9.023c-4.098-5.496-10.09-9.066-16.875-10.055-6.805-.984-13.551.727-19.043 4.824-11.344 8.463-13.688 24.574-5.23 35.918l19.43 26.051c.414.556.951.952 1.539 1.222-1.523 5.675-1.302 11.685.742 17.35l1.75 4.85c.021.06.07.098.094.156l-1.239 4.043-29.169 23.578c-2.32 1.867-3.43 4.846-2.898 7.768.453 2.504 2.008 4.611 4.27 5.779 1.176.609 2.453.914 3.727.914 1.176 0 2.355-.26 3.457-.777l31.396-14.736 7.612 21.109c.359.998 1.102 1.811 2.059 2.264.539.252 1.121.379 1.703.379.457 0 .918-.078 1.355-.236l1.534-.553c.542.628 1.072 1.267 1.669 1.842v73.237c0 2.209 1.789 4 4 4 13.234 0 24-10.766 24-24v-48.018c9.555-3.99 16-13.453 16-23.982 0-2.902-.482-5.752-1.421-8.478 1.227-4.214 1.204-8.832-.396-13.268l-9.379-26.021c.847-1.861 1.721-3.864 2.588-5.903l26.408 50.629c4.969 8.848 14.328 14.428 24.426 14.559l36.527.48c.125.002.25.002.375.002 7.387 0 14.352-2.852 19.648-8.053 5.379-5.281 8.395-12.355 8.492-19.91l.73-48.037v-45.818c.001-7.821-6.28-14.182-13.999-14.182zm-142.874 38.594 2.877 7.979-7.011 2.529c.076-.452.169-.9.219-1.358l.734-6.775zm-37.743-1.614c-5.824-7.809-4.207-18.898 3.598-24.723 3.086-2.301 6.75-3.51 10.527-3.51.855 0 1.719.062 2.582.188 4.668.68 8.793 3.139 11.613 6.922l6.734 9.023c.734.986 1.043 2.197.863 3.414-.176 1.215-.816 2.289-1.801 3.025l-5.733 4.281c-.891.664-1.465 1.67-1.586 2.773l-.922 8.512c-.473 4.387-2.773 8.418-6.312 11.057l-2.523 1.883zm-8.242 88.256 30.125-24.35c.617-.502 1.074-1.178 1.309-1.939l6.824-22.271c.59-1.928 2.016-3.432 3.906-4.123.723-.262 1.465-.393 2.203-.393 1.203 0 2.395.346 3.445 1.023 2.512 1.621 3.555 4.715 2.543 7.527l-6.105 16.914c-2 5.529-6.027 9.947-11.344 12.443zm73.769 16.067c-1.723.486-2.91 2.059-2.91 3.848v50.849c0 7.441-5.105 13.713-12 15.494v-70.523c0-1.17-.522-2.27-1.41-3.029l22.668-8.174c2.481-.895 4.679-2.22 6.581-3.834-.791 7.189-5.853 13.362-12.929 15.369zm1.813-63.899 9.938 27.564c2.523 7-1.117 14.748-8.113 17.271l-28.699 10.35-6.762-18.752c4.454-3.445 7.869-8.068 9.829-13.496l6.105-16.916c2.289-6.336-.07-13.312-5.73-16.965-3.828-2.467-8.457-2.984-12.73-1.422-4.266 1.561-7.477 4.947-8.809 9.293l-.734 2.395c-.038-3.075.526-6.137 1.843-8.994 2.305-5.006 6.402-8.781 11.539-10.633l10.852-3.914c1.176-.426 2.48-.633 4.043-.635l26.852-.451c-2.316 5.949-6.121 15.482-9.285 22.254-.448.959-.499 2.055-.139 3.051zm119.277-17.465-.73 47.986c-.07 5.438-2.234 10.521-6.098 14.314-3.855 3.783-9 5.822-14.316 5.758l-36.527-.48c-7.25-.094-13.977-4.107-17.492-10.367l-26.859-51.498c-.762-1.465-.766-3.145 0-4.611.746-1.436 2.086-2.379 3.676-2.586 1.602-.234 3.234.408 4.246 1.6l14.996 18.467c.038.047.092.074.132.119.031.035.039.08.071.114 3.836 4.039 7.363 6.285 13.023 8.285 4.965 1.752 11.473 5.037 14.293 10.736.699 1.408 2.117 2.225 3.59 2.225.594 0 1.199-.133 1.77-.416 1.98-.979 2.793-3.379 1.812-5.359-4.016-8.104-12.441-12.482-18.801-14.729-3.933-1.39-6.275-2.791-8.785-5.198v-46.299c0-1.676-1.043-3.174-2.617-3.754-1.574-.574-3.34-.119-4.426 1.16l-15.211 17.859c-.895 1.168-2.184 1.912-3.633 2.094-1.43.186-2.859-.213-4.008-1.117-2.332-1.834-2.789-5.273-1.109-7.545l18.133-22.584c5.348-6.654 14.703-8.094 21.766-3.348l.961.615c.516.323 1.578.992 2.145 1.479v40.177c0 2.209 1.789 4 4 4s4-1.791 4-4v-74.665c0-3.514 2.691-6.371 6-6.371s6 2.857 6 6.371v77.629c0 2.209 1.789 4 4 4s4-1.791 4-4v-57.5c0-3.584 2.691-6.5 6-6.5s6 2.916 6 6.5v57.5c0 2.209 1.789 4 4 4s4-1.791 4-4v-41.818c0-3.408 2.691-6.182 6-6.182s6 2.773 6 6.182v45.757zm-92.051-8.207c1.57-.863 2.945-2.035 4.016-3.443l8.035-9.428v25.869l-7.949-9.789c-1.16-1.363-2.559-2.443-4.102-3.209z"/><path d="m114.972 62.484c.781.781 1.805 1.172 2.828 1.172s2.047-.391 2.828-1.172l2.828-2.828 2.828 2.828c.781.781 1.805 1.172 2.828 1.172s2.047-.391 2.828-1.172c1.562-1.562 1.562-4.094 0-5.656l-2.828-2.828 2.828-2.828c1.562-1.562 1.562-4.094 0-5.656s-4.094-1.562-5.656 0l-2.828 2.828-2.828-2.828c-1.562-1.562-4.094-1.562-5.656 0s-1.562 4.094 0 5.656l2.828 2.828-2.828 2.828c-1.563 1.563-1.563 4.094 0 5.656z"/></g></svg>