<svg height="480pt" viewBox="0 0 480 480.0399" width="480pt" xmlns="http://www.w3.org/2000/svg"><path d="m352.019531 480.039062c-4.417969 0-8-3.582031-8-8v-24c0-4.417968 3.582031-8 8-8s8 3.582032 8 8v24c0 4.417969-3.582031 8-8 8zm0 0"/><path d="m40.019531 200.039062h56c4.417969 0 8-3.582031 8-8 0-4.417968-3.582031-8-8-8h-4.320312c6.757812-11.648437 5.5-26.28125-3.148438-36.605468-8.648437-10.324219-22.835937-14.128906-35.488281-9.515625-12.65625 4.613281-21.066406 16.652343-21.042969 30.121093.011719 5.632813 1.53125 11.15625 4.402344 16-20.675781 1.867188-36.484375 19.242188-36.4023438 40v48c0 13.253907 10.7460938 24 23.9999998 24v72c0 13.253907 10.746094 24 24 24 5.910157-.011718 11.609375-2.207031 16-6.160156 4.394531 3.953125 10.089844 6.148438 16 6.160156 13.253907 0 24-10.746093 24-24v-80c0-4.417968-3.582031-8-8-8v-56c0-4.417968-3.582031-8-8-8s-8 3.582032-8 8v32h-32v-32c0-4.417968-3.582031-8-8-8s-8 3.582032-8 8v56h-8c-4.417969 0-8-3.582031-8-8v-48c0-13.253906 10.746094-24 24-24zm24-48c8.835938 0 16 7.164063 16 16 0 8.835938-7.164062 16-16 16-8.835937 0-16-7.164062-16-16 0-8.835937 7.164063-16 16-16zm-16 224c-4.417969 0-8-3.582031-8-8v-8h16v8c0 4.417969-3.582031 8-8 8zm40-8c0 4.417969-3.582031 8-8 8s-8-3.582031-8-8v-8h16zm-8-96v16c0 4.417969 3.582031 8 8 8v48h-16v-40c0-4.417968-3.582031-8-8-8s-8 3.582032-8 8v40h-16v-48c4.417969 0 8-3.582031 8-8v-16zm0 0"/><path d="m152.019531 200.039062h56c4.417969 0 8-3.582031 8-8 0-4.417968-3.582031-8-8-8h-4.320312c6.757812-11.648437 5.5-26.28125-3.148438-36.605468-8.648437-10.324219-22.835937-14.128906-35.488281-9.515625-12.65625 4.613281-21.066406 16.652343-21.042969 30.121093.011719 5.632813 1.53125 11.15625 4.402344 16-20.675781 1.867188-36.484375 19.242188-36.402344 40v48c0 13.253907 10.746094 24 24 24v72c0 13.253907 10.746094 24 24 24 5.910157-.011718 11.609375-2.207031 16-6.160156 4.394531 3.953125 10.089844 6.148438 16 6.160156 13.253907 0 24-10.746093 24-24v-80c0-4.417968-3.582031-8-8-8v-56c0-4.417968-3.582031-8-8-8s-8 3.582032-8 8v32h-32v-32c0-4.417968-3.582031-8-8-8s-8 3.582032-8 8v56h-8c-4.417969 0-8-3.582031-8-8v-48c0-13.253906 10.746094-24 24-24zm24-48c8.835938 0 16 7.164063 16 16 0 8.835938-7.164062 16-16 16-8.835937 0-16-7.164062-16-16 0-8.835937 7.164063-16 16-16zm-16 224c-4.417969 0-8-3.582031-8-8v-8h16v8c0 4.417969-3.582031 8-8 8zm40-8c0 4.417969-3.582031 8-8 8s-8-3.582031-8-8v-8h16zm-8-96v16c0 4.417969 3.582031 8 8 8v48h-16v-40c0-4.417968-3.582031-8-8-8s-8 3.582032-8 8v40h-16v-48c4.417969 0 8-3.582031 8-8v-16zm0 0"/><path d="m264.019531 200.039062h48c4.230469.023438 8.375 1.183594 12 3.359376 3.800781 1.988281 8.488281.628906 10.636719-3.082032 2.144531-3.714844.980469-8.457031-2.636719-10.757812-4.890625-2.902344-10.34375-4.730469-16-5.359375 2.757813-4.929688 4.140625-10.511719 4-16.160157 0-17.671874-14.324219-32-32-32-17.671875 0-32 14.328126-32 32 .011719 5.632813 1.53125 11.15625 4.402344 16-20.675781 1.867188-36.484375 19.242188-36.402344 40v48c0 13.253907 10.746094 24 24 24v72c0 13.253907 10.746094 24 24 24 5.910157-.011718 11.609375-2.207031 16-6.160156 4.394531 3.953125 10.089844 6.148438 16 6.160156 13.253907 0 24-10.746093 24-24v-72c4.417969 0 8-3.582031 8-8 0-4.417968-3.582031-8-8-8h-8v-56c0-4.417968-3.582031-8-8-8s-8 3.582032-8 8v32h-32v-32c0-4.417968-3.582031-8-8-8s-8 3.582032-8 8v56h-8c-4.417969 0-8-3.582031-8-8v-48c0-13.253906 10.746094-24 24-24zm24-48c8.835938 0 16 7.164063 16 16 0 8.835938-7.164062 16-16 16-8.835937 0-16-7.164062-16-16 0-8.835937 7.164063-16 16-16zm-16 224c-4.417969 0-8-3.582031-8-8v-8h16v8c0 4.417969-3.582031 8-8 8zm40-8c0 4.417969-3.582031 8-8 8s-8-3.582031-8-8v-8h16zm-8-96v16c0 4.417969 3.582031 8 8 8v48h-16v-40c0-4.417968-3.582031-8-8-8s-8 3.582032-8 8v40h-16v-48c4.417969 0 8-3.582031 8-8v-16zm0 0"/><path d="m443.621094 184.039062c2.867187-4.84375 4.386718-10.367187 4.398437-16 0-17.671874-14.324219-32-32-32-17.671875 0-32 14.328126-32 32 .011719 5.632813 1.53125 11.15625 4.402344 16-20.675781 1.867188-36.484375 19.242188-36.402344 40v48c0 13.253907 10.746094 24 24 24v72c0 13.253907 10.746094 24 24 24 5.910157-.011718 11.609375-2.207031 16-6.160156 4.394531 3.953125 10.089844 6.148438 16 6.160156 13.253907 0 24-10.746093 24-24v-72c13.253907 0 24-10.746093 24-24v-48c.085938-20.757812-15.726562-38.132812-36.398437-40zm-27.601563-32c8.835938 0 16 7.164063 16 16 0 8.835938-7.164062 16-16 16-8.835937 0-16-7.164062-16-16 0-8.835937 7.164063-16 16-16zm-16 224c-4.417969 0-8-3.582031-8-8v-8h16v8c0 4.417969-3.582031 8-8 8zm40-8c0 4.417969-3.582031 8-8 8s-8-3.582031-8-8v-8h16zm0-24h-16v-40c0-4.417968-3.582031-8-8-8s-8 3.582032-8 8v40h-16v-48c4.417969 0 8-3.582031 8-8v-16h32v16c0 4.417969 3.582031 8 8 8zm24-72c0 4.417969-3.582031 8-8 8h-8v-56c0-4.417968-3.582031-8-8-8s-8 3.582032-8 8v32h-32v-32c0-4.417968-3.582031-8-8-8s-8 3.582032-8 8v56h-8c-4.417969 0-8-3.582031-8-8v-48c0-13.253906 10.746094-24 24-24h48c13.253907 0 24 10.746094 24 24zm0 0"/><path d="m352.019531 184.039062c4.417969 0 8-3.582031 8-8v-16c0-4.417968-3.582031-8-8-8s-8 3.582032-8 8v16c0 4.417969 3.582031 8 8 8zm0 0"/><path d="m352.019531 88.039062c4.417969 0 8-3.582031 8-8v-16c0-4.417968-3.582031-8-8-8s-8 3.582032-8 8v16c0 4.417969 3.582031 8 8 8zm0 0"/><path d="m352.019531 40.039062c4.417969 0 8-3.582031 8-8v-24c0-4.417968-3.582031-7.9999995-8-7.9999995s-8 3.5820315-8 7.9999995v24c0 4.417969 3.582031 8 8 8zm0 0"/><path d="m352.019531 136.039062c4.417969 0 8-3.582031 8-8v-16c0-4.417968-3.582031-8-8-8s-8 3.582032-8 8v16c0 4.417969 3.582031 8 8 8zm0 0"/><path d="m352.019531 384.039062c-4.417969 0-8 3.582032-8 8v24c0 4.417969 3.582031 8 8 8s8-3.582031 8-8v-24c0-4.417968-3.582031-8-8-8zm0 0"/><path d="m352.019531 312.039062c-4.417969 0-8 3.582032-8 8v32c0 4.417969 3.582031 8 8 8s8-3.582031 8-8v-32c0-4.417968-3.582031-8-8-8zm0 0"/><path d="m418.339844 117.71875c1.503906 1.515625 3.546875 2.367188 5.679687 2.367188 2.132813 0 4.179688-.851563 5.679688-2.367188l40-40c2.269531-2.300781 2.933593-5.738281 1.679687-8.71875-1.226562-2.988281-4.128906-4.945312-7.359375-4.960938h-16v-40c0-4.417968-3.582031-8-8-8s-8 3.582032-8 8v48c0 4.417969 3.582031 8 8 8h4.722657l-20.722657 20.722657-20.71875-20.722657h4.71875c4.417969 0 8-3.582031 8-8v-48c0-4.417968-3.582031-8-8-8s-8 3.582032-8 8v40h-16c-3.230469.015626-6.132812 1.972657-7.359375 4.960938-1.253906 2.980469-.589844 6.417969 1.679688 8.71875zm0 0"/><path d="m224.898438 123.640625c1.359374 2.691406 4.109374 4.390625 7.121093 4.398437 1.253907.015626 2.496094-.285156 3.601563-.878906l48-24h.960937v-1.28125c.039063-.128906.039063-.269531 0-.398437.164063-.304688.300781-.628907.398438-.960938v-.480469s0 0 0-.558593c0 0 0 0 0-.402344v-1.277344s0 0 0-.402343c0 0 0 0 0-.558594v-.480469c-.097657-.332031-.234375-.65625-.398438-.960937.039063-.128907.039063-.269532 0-.398438v-1.28125h-.960937l-48-24c-2.570313-1.546875-5.789063-1.523438-8.339844.054688-2.546875 1.578124-4 4.453124-3.761719 7.441406.242188 2.988281 2.132813 5.59375 4.902344 6.746094l17.679687 4.078124c-80.335937-.953124-157.488281-31.550781-216.640624-85.917968-3.269532-3.003906-8.355469-2.789063-11.359376.480468-3.003906 3.269532-2.789062 8.355469.480469 11.359376 62.167969 57.050781 143.222657 89.128906 227.597657 90.078124l-17.757813 8.878907c-3.925781 2-5.496094 6.789062-3.523437 10.722656zm0 0"/></svg>