<?xml version="1.0" encoding="utf-8"?>
<svg id="master-artboard" viewBox="0 0 980 980" version="1.1" xmlns="http://www.w3.org/2000/svg" x="0px" y="0px" style="enable-background:new 0 0 1400 980;" width="980px" height="980px"><rect id="ee-background" x="0" y="0" width="980" height="980" style="fill: white; fill-opacity: 0; pointer-events: none;"/>


<g transform="matrix(15.312499046325684, 0, 0, 15.312499046325684, -0.8152732849121094, 0.00000476837158203125)"><path d="m2 7h1v25c0 .552.448 1 1 1h20c.552 0 1-.448 1-1v-25h1c.552 0 1-.448 1-1v-4c0-.552-.448-1-1-1h-24c-.552 0-1 .448-1 1v4c0 .552.448 1 1 1zm14 24h-4v-4h4zm7 0h-5v-5c0-.552-.448-1-1-1h-6c-.552 0-1 .448-1 1v5h-5v-24h18zm-20-28h22v2h-22z"/><path d="m8 15h4c.552 0 1-.448 1-1v-4c0-.552-.448-1-1-1h-4c-.552 0-1 .448-1 1v4c0 .552.448 1 1 1zm1-4h2v2h-2z"/><path d="m16 15h4c.552 0 1-.448 1-1v-4c0-.552-.448-1-1-1h-4c-.552 0-1 .448-1 1v4c0 .552.448 1 1 1zm1-4h2v2h-2z"/><path d="m8 23h4c.552 0 1-.448 1-1v-4c0-.552-.448-1-1-1h-4c-.552 0-1 .448-1 1v4c0 .552.448 1 1 1zm1-4h2v2h-2z"/><path d="m16 23h4c.552 0 1-.448 1-1v-4c0-.552-.448-1-1-1h-4c-.552 0-1 .448-1 1v4c0 .552.448 1 1 1zm1-4h2v2h-2z"/><path d="M 62 54 L 58 54 L 58 47 C 58 44.628 56.335 42.646 54.116 42.136 C 54.974 41.166000000000004 55.5 39.895 55.5 38.5 C 55.5 35.467 53.033 33 50 33 C 46.967 33 44.5 35.467 44.5 38.5 C 44.5 39.894 45.026 41.165 45.884 42.136 C 43.665 42.646 42 44.628 42 47 L 42 59 C 42 59.552 42.448 60 43 60 L 52 60 L 52 62 C 52 62.552 52.448 63 53 63 L 62 63 C 62.552 63 63 62.552 63 62 L 63 55 C 63 54.448 62.552 54 62 54 Z M 50 35 C 51.93 35 53.5 36.57 53.5 38.5 C 53.5 40.43 51.93 42 50 42 C 48.07 42 46.5 40.43 46.5 38.5 C 46.5 36.57 48.07 35 50 35 Z M 52 55 L 52 58 L 44 58 L 44 47 C 44 45.346000000000004 45.346000000000004 44 47 44 L 48.674 44 L 51.32599999999999 44 L 52.99999999999999 44 C 54.653999999999996 44 55.99999999999999 45.346000000000004 55.99999999999999 47 L 55.99999999999999 54 L 52.99999999999999 54 C 52.44799999999999 54 51.99999999999999 54.448 51.99999999999999 55 L 52 55 Z M 61 61 L 54 61 L 54 56 L 61 56 L 61 61 Z"/><path d="m41.282 9.475-2.11 2.175-2.111-2.175-1.436 1.393 2.153 2.218-2.153 2.218 1.436 1.392 2.111-2.174 2.11 2.174 1.436-1.392-2.153-2.218 2.153-2.218z"/><path d="m34 52c.178 0 .356-.047.515-.143l5-3c.301-.18.485-.506.485-.857s-.184-.677-.485-.857l-5-3c-.309-.186-.694-.191-1.007-.013-.314.177-.508.51-.508.87v6c0 .36.194.693.507.87.153.087.323.13.493.13zm1-5.234 2.056 1.234-2.056 1.234z"/><path d="m13 35h2v2h-2z"/><path d="m13 39h2v2h-2z"/><path d="m13 43h2v2h-2z"/><path d="m13 47h2v2h-2z"/><path d="m17 47h2v2h-2z"/><path d="m21 47h2v2h-2z"/><path d="m25 47h2v2h-2z"/><path d="m29 47h2v2h-2z"/><path d="m47 18v-10c0-1.654-1.346-3-3-3h-10c-1.654 0-3 1.346-3 3v2.382l-3.447 1.724c-.339.169-.553.515-.553.894s.214.725.553.895l3.447 1.723v2.382c0 1.654 1.346 3 3 3h10c1.654 0 3-1.346 3-3zm-14 0v-3c0-.379-.214-.725-.553-.895l-2.211-1.105 2.211-1.105c.339-.17.553-.516.553-.895v-3c0-.551.449-1 1-1h10c.551 0 1 .449 1 1v10c0 .551-.449 1-1 1h-10c-.551 0-1-.449-1-1z"/><path style="fill: rgb(0, 0, 0); fill-opacity: 1; stroke: rgb(0, 0, 0); stroke-opacity: 1; stroke-width: 0; paint-order: fill;"/></g></svg>