<svg id="Layer_1_1_" enable-background="new 0 0 64 64" height="512" viewBox="0 0 64 64" width="512" xmlns="http://www.w3.org/2000/svg"><path d="m54 25h-2c0 .075 0 .085-.207.292-.296.296-.793.792-.793 1.706 0 .915.496 1.411.792 1.708.208.207.208.217.208.293s0 .086-.208.293c-.296.297-.792.793-.792 1.708h2c0-.076 0-.086.208-.293.296-.297.792-.793.792-1.708s-.496-1.411-.792-1.708c-.208-.207-.208-.217-.208-.293 0-.075 0-.085.207-.292.296-.296.793-.792.793-1.706z"/><path d="m49 25h-2c0 .075 0 .085-.207.292-.296.296-.793.792-.793 1.706 0 .915.496 1.411.792 1.708.208.207.208.217.208.293s0 .086-.208.293c-.296.297-.792.793-.792 1.708h2c0-.076 0-.086.208-.293.296-.297.792-.793.792-1.708s-.496-1.411-.792-1.708c-.208-.207-.208-.217-.208-.293 0-.075 0-.085.207-.292.296-.296.793-.792.793-1.706z"/><path d="m2 7h1v25c0 .552.448 1 1 1h20c.552 0 1-.448 1-1v-25h1c.552 0 1-.448 1-1v-4c0-.552-.448-1-1-1h-24c-.552 0-1 .448-1 1v4c0 .552.448 1 1 1zm14 24h-4v-4h4zm7 0h-5v-5c0-.552-.448-1-1-1h-6c-.552 0-1 .448-1 1v5h-5v-24h18zm-20-28h22v2h-22z"/><path d="m8 15h4c.552 0 1-.448 1-1v-4c0-.552-.448-1-1-1h-4c-.552 0-1 .448-1 1v4c0 .552.448 1 1 1zm1-4h2v2h-2z"/><path d="m16 15h4c.552 0 1-.448 1-1v-4c0-.552-.448-1-1-1h-4c-.552 0-1 .448-1 1v4c0 .552.448 1 1 1zm1-4h2v2h-2z"/><path d="m8 23h4c.552 0 1-.448 1-1v-4c0-.552-.448-1-1-1h-4c-.552 0-1 .448-1 1v4c0 .552.448 1 1 1zm1-4h2v2h-2z"/><path d="m16 23h4c.552 0 1-.448 1-1v-4c0-.552-.448-1-1-1h-4c-.552 0-1 .448-1 1v4c0 .552.448 1 1 1zm1-4h2v2h-2z"/><path d="m62 54h-4v-7c0-2.372-1.665-4.354-3.884-4.864.858-.97 1.384-2.241 1.384-3.636 0-3.033-2.467-5.5-5.5-5.5s-5.5 2.467-5.5 5.5c0 1.394.526 2.665 1.384 3.636-2.219.51-3.884 2.492-3.884 4.864v12c0 .552.448 1 1 1h9v2c0 .552.448 1 1 1h9c.552 0 1-.448 1-1v-7c0-.552-.448-1-1-1zm-12-7.36.912 3.19-.912 1.367-.912-1.367zm0-11.64c1.93 0 3.5 1.57 3.5 3.5s-1.57 3.5-3.5 3.5-3.5-1.57-3.5-3.5 1.57-3.5 3.5-3.5zm2 20v3h-8v-11c0-1.654 1.346-3 3-3h1.674l-1.636 5.725c-.081.282-.033.585.129.83l2 3c.187.278.499.445.833.445s.646-.167.832-.445l2-3c.163-.244.21-.547.129-.83l-1.635-5.725h1.674c1.654 0 3 1.346 3 3v7h-3c-.552 0-1 .448-1 1zm9 6h-7v-5h7z"/><path d="m41.282 9.475-2.11 2.175-2.111-2.175-1.436 1.393 2.153 2.218-2.153 2.218 1.436 1.392 2.111-2.174 2.11 2.174 1.436-1.392-2.153-2.218 2.153-2.218z"/><path d="m34 52c.178 0 .356-.047.515-.143l5-3c.301-.18.485-.506.485-.857s-.184-.677-.485-.857l-5-3c-.309-.186-.694-.191-1.007-.013-.314.177-.508.51-.508.87v6c0 .36.194.693.507.87.153.087.323.13.493.13zm1-5.234 2.056 1.234-2.056 1.234z"/><path d="m13 35h2v2h-2z"/><path d="m13 39h2v2h-2z"/><path d="m13 43h2v2h-2z"/><path d="m13 47h2v2h-2z"/><path d="m17 47h2v2h-2z"/><path d="m21 47h2v2h-2z"/><path d="m25 47h2v2h-2z"/><path d="m29 47h2v2h-2z"/><path d="m47 18v-10c0-1.654-1.346-3-3-3h-10c-1.654 0-3 1.346-3 3v2.382l-3.447 1.724c-.339.169-.553.515-.553.894s.214.725.553.895l3.447 1.723v2.382c0 1.654 1.346 3 3 3h10c1.654 0 3-1.346 3-3zm-14 0v-3c0-.379-.214-.725-.553-.895l-2.211-1.105 2.211-1.105c.339-.17.553-.516.553-.895v-3c0-.551.449-1 1-1h10c.551 0 1 .449 1 1v10c0 .551-.449 1-1 1h-10c-.551 0-1-.449-1-1z"/></svg>