<svg id="garbage" enable-background="new 0 0 300 300" height="512" viewBox="0 0 300 300" width="512" xmlns="http://www.w3.org/2000/svg"><g><path d="m235.516 140.484c.781.781 1.805 1.172 2.828 1.172s2.047-.391 2.828-1.172l2.828-2.828 2.828 2.828c.781.781 1.805 1.172 2.828 1.172s2.047-.391 2.828-1.172c1.562-1.562 1.562-4.094 0-5.656l-2.828-2.828 2.828-2.828c1.562-1.562 1.562-4.094 0-5.656s-4.094-1.562-5.656 0l-2.828 2.828-2.828-2.828c-1.562-1.562-4.094-1.562-5.656 0s-1.562 4.094 0 5.656l2.828 2.828-2.828 2.828c-1.563 1.563-1.563 4.094 0 5.656z"/><path d="m238 184c7.719 0 14-6.281 14-14s-6.281-14-14-14-14 6.281-14 14 6.281 14 14 14zm0-20c3.309 0 6 2.691 6 6s-2.691 6-6 6-6-2.691-6-6 2.691-6 6-6z"/><path d="m202 105.707c2.047 0 3.707-1.659 3.707-3.707s-1.659-3.707-3.707-3.707-3.707 1.66-3.707 3.707 1.66 3.707 3.707 3.707z"/><path d="m132 52c2.211 0 4-1.791 4-4v-20c0-2.209-1.789-4-4-4s-4 1.791-4 4v20c0 2.209 1.789 4 4 4z"/><path d="m144 56c1.023 0 2.047-.391 2.828-1.172l12-12c1.562-1.562 1.562-4.094 0-5.656s-4.094-1.562-5.656 0l-12 12c-1.562 1.562-1.562 4.094 0 5.656.781.781 1.805 1.172 2.828 1.172z"/><path d="m117.172 54.828c.781.781 1.805 1.172 2.828 1.172s2.047-.391 2.828-1.172c1.562-1.562 1.562-4.094 0-5.656l-12-12c-1.562-1.562-4.094-1.562-5.656 0s-1.562 4.094 0 5.656z"/><path d="m130 184c-5.516 0-10 4.486-10 10v52c0 5.514 4.484 10 10 10s10-4.486 10-10v-52c0-5.514-4.484-10-10-10zm2 62c0 1.104-.898 2-2 2s-2-.896-2-2v-52c0-1.104.898-2 2-2s2 .896 2 2z"/><path d="m154 184c-5.516 0-10 4.486-10 10v52c0 5.514 4.484 10 10 10s10-4.486 10-10v-52c0-5.514-4.484-10-10-10zm2 62c0 1.104-.898 2-2 2s-2-.896-2-2v-52c0-1.104.898-2 2-2s2 .896 2 2z"/><path d="m106 184c-5.516 0-10 4.486-10 10v52c0 5.514 4.484 10 10 10s10-4.486 10-10v-52c0-5.514-4.484-10-10-10zm2 62c0 1.104-.898 2-2 2s-2-.896-2-2v-52c0-1.104.898-2 2-2s2 .896 2 2z"/><path d="m256 268h-46.47l9.107-2.807c2.109-.65 3.293-2.889 2.645-5l-7.068-22.936 5.955-1.835c5.148-1.586 8.047-7.062 6.461-12.209l-7.207-23.383c-1.59-5.145-7.051-8.051-12.211-6.457l-5.956 1.835-7.068-22.935c-.652-2.109-2.875-3.291-5.004-2.645l-5.426 1.672.231-2.992c.086-1.111-.297-2.209-1.055-3.025-.754-.818-1.821-1.283-2.934-1.283h-12v-33.732c0-10.842-6.604-20.168-16-24.174v-26.094c0-11.027-8.973-20-20-20s-20 8.973-20 20v9.926c0 5.566 2.087 10.643 5.498 14.53-12.211 2.252-21.498 12.958-21.498 25.812v33.732h-16c-1.113 0-2.18.465-2.934 1.281-.758.818-1.141 1.914-1.055 3.025l7.57 98.418c.034.44.182.849.272 1.275h-39.853c-2.211 0-4 1.791-4 4s1.789 4 4 4h212c2.211 0 4-1.791 4-4s-1.789-3.999-4-3.999zm-76.071-46.908 14.455 46.908h-18.238c.091-.427.238-.836.272-1.277zm29.637-20.074c.609-.186 1.105 0 1.348.127s.672.434.859 1.041l7.207 23.383c.188.607.004 1.105-.125 1.346-.129.242-.434.676-1.039.863h-.004l-5.955 1.835-8.246-26.76zm-14.782.361c.001.002 0 .005.001.008l10.602 34.404c.001.004.005.008.006.012l7.064 22.923-11.469 3.535-24.738-80.277 11.469-3.533zm-74.784-121.379c0-6.617 5.383-12 12-12s12 5.383 12 12v24h-2.27-7.656c-7.762 0-14.074-6.314-14.074-14.074zm-16 50.268c0-10.072 8.195-18.268 18.27-18.268h19.461c10.074 0 18.27 8.195 18.27 18.268v33.732h-8v-28c0-2.209-1.789-4-4-4s-4 1.791-4 4v28h-24v-28c0-2.209-1.789-4-4-4s-4 1.791-4 4v28h-8v-33.732zm-11.277 137.537c-.66-.316-1.109-.967-1.164-1.695l-7.239-94.11h91.359l-.142 1.833-5.468 1.685c-1.012.312-1.859 1.014-2.355 1.951-.496.939-.602 2.035-.289 3.049l6.153 19.968c-.029.153-.11.283-.122.442l-5.016 65.18c-.055.729-.5 1.377-1.156 1.693-.104.05-.166.142-.263.199h-74.04c-.095-.056-.157-.146-.258-.195z"/></g></svg>