<?xml version="1.0"?>
<svg xmlns="http://www.w3.org/2000/svg" viewBox="0 0 32 32" width="512" height="512"><g id="_12-next_month" data-name="12-next month"><path d="M28.094,4H27V3a1,1,0,0,0-2,0V4H17V3a1,1,0,0,0-2,0V4H7V3A1,1,0,0,0,5,3V4H3.906A2.91,2.91,0,0,0,1,6.906V27.094A2.91,2.91,0,0,0,3.906,30H28.094A2.91,2.91,0,0,0,31,27.094V6.906A2.91,2.91,0,0,0,28.094,4ZM3.906,6H5V7A1,1,0,0,0,7,7V6h8V7a1,1,0,0,0,2,0V6h8V7a1,1,0,0,0,2,0V6h1.094A.908.908,0,0,1,29,6.906V9H3V6.906A.908.908,0,0,1,3.906,6ZM28.094,28H3.906A.908.908,0,0,1,3,27.094V11H29V27.094A.908.908,0,0,1,28.094,28Z"/><path d="M18.707,15.293a1,1,0,0,0-1.414,1.414L20.586,20l-3.293,3.293a1,1,0,1,0,1.414,1.414l4-4a1,1,0,0,0,0-1.414Z"/><path d="M19,20a1,1,0,0,0-1-1H10a1,1,0,0,0,0,2h8A1,1,0,0,0,19,20Z"/></g></svg>
