<svg id="Capa_1" enable-background="new 0 0 511.164 511.164" height="512" viewBox="0 0 511.164 511.164" width="512" xmlns="http://www.w3.org/2000/svg"><g><path d="m72.424 141.264c6.757-3.751 10.955-10.96 10.955-18.812v-55.129c0-4.142-3.357-7.5-7.5-7.5s-7.5 3.358-7.5 7.5v55.128c0 2.407-1.24 4.59-3.235 5.698-3.792 2.107-8.015-1.824-8.291-2.086-2.925-2.89-7.637-2.889-10.558.016-2.938 2.919-2.953 7.668-.034 10.606 3.178 3.197 9.326 7.146 16.497 7.146 3.085 0 6.358-.731 9.666-2.567z"/><path d="m210.981 59.823h-20.036c-4.143 0-7.5 3.358-7.5 7.5v31.761.051 37.163c0 1.995.795 3.908 2.208 5.315 1.406 1.4 3.309 2.185 5.292 2.185h.033c.001 0 18.424-.082 23.502-.082 14.372 0 26.065-11.693 26.065-26.066 0-8.556-4.145-16.162-10.532-20.917 2.727-3.823 4.339-8.495 4.339-13.539 0-12.886-10.485-23.371-23.371-23.371zm0 15c4.616 0 8.371 3.755 8.371 8.371s-3.755 8.372-8.371 8.372c-1.466 0-4.221.008-7.229.019h-5.307v-16.762zm3.499 53.894c-2.935 0-10.31.027-16.035.05v-22.162c1.716-.007 3.549-.014 5.299-.02h10.736c6.102 0 11.065 4.964 11.065 11.066 0 6.101-4.964 11.066-11.065 11.066z"/><path d="m176.824 101.811c0-23.152-18.835-41.988-41.987-41.988s-41.988 18.835-41.988 41.988c0 23.152 18.836 41.987 41.988 41.987s41.987-18.835 41.987-41.987zm-68.975 0c0-14.881 12.106-26.988 26.988-26.988 14.881 0 26.987 12.106 26.987 26.988 0 14.881-12.106 26.987-26.987 26.987-14.882 0-26.988-12.106-26.988-26.987z"/><path d="m271.264 109.311h52.674c4.143 0 7.5-3.358 7.5-7.5s-3.357-7.5-7.5-7.5h-52.674c-4.143 0-7.5 3.358-7.5 7.5s3.357 7.5 7.5 7.5z"/><path d="m271.264 74.905h26.318c4.143 0 7.5-3.358 7.5-7.5s-3.357-7.5-7.5-7.5h-26.318c-4.143 0-7.5 3.358-7.5 7.5s3.357 7.5 7.5 7.5z"/><path d="m115.815 177.599h-67.397c-4.143 0-7.5 3.358-7.5 7.5s3.357 7.5 7.5 7.5h67.396c4.143 0 7.5-3.358 7.5-7.5s-3.357-7.5-7.499-7.5z"/><path d="m115.815 208.145h-67.397c-4.143 0-7.5 3.358-7.5 7.5s3.357 7.5 7.5 7.5h67.396c4.143 0 7.5-3.358 7.5-7.5s-3.357-7.5-7.499-7.5z"/><path d="m115.815 238.69h-67.397c-4.143 0-7.5 3.358-7.5 7.5s3.357 7.5 7.5 7.5h67.396c4.143 0 7.5-3.358 7.5-7.5s-3.357-7.5-7.499-7.5z"/><path d="m115.815 299.782h-67.397c-4.143 0-7.5 3.358-7.5 7.5s3.357 7.5 7.5 7.5h67.396c4.143 0 7.5-3.358 7.5-7.5s-3.357-7.5-7.499-7.5z"/><path d="m115.815 330.327h-67.397c-4.143 0-7.5 3.358-7.5 7.5s3.357 7.5 7.5 7.5h67.396c4.143 0 7.5-3.358 7.5-7.5s-3.357-7.5-7.499-7.5z"/><path d="m115.815 391.419h-67.397c-4.143 0-7.5 3.358-7.5 7.5s3.357 7.5 7.5 7.5h67.396c4.143 0 7.5-3.358 7.5-7.5s-3.357-7.5-7.499-7.5z"/><path d="m115.815 421.964h-67.397c-4.143 0-7.5 3.358-7.5 7.5s3.357 7.5 7.5 7.5h67.396c4.143 0 7.5-3.358 7.5-7.5s-3.357-7.5-7.499-7.5z"/><path d="m152.341 185.099c0 4.142 3.357 7.5 7.5 7.5h67.396c4.143 0 7.5-3.358 7.5-7.5s-3.357-7.5-7.5-7.5h-67.396c-4.143 0-7.5 3.358-7.5 7.5z"/><path d="m227.237 208.145h-67.396c-4.143 0-7.5 3.358-7.5 7.5s3.357 7.5 7.5 7.5h67.396c4.143 0 7.5-3.358 7.5-7.5s-3.358-7.5-7.5-7.5z"/><path d="m159.841 314.782h67.396c4.143 0 7.5-3.358 7.5-7.5s-3.357-7.5-7.5-7.5h-67.396c-4.143 0-7.5 3.358-7.5 7.5s3.357 7.5 7.5 7.5z"/><path d="m227.237 360.873h-67.396c-4.143 0-7.5 3.358-7.5 7.5s3.357 7.5 7.5 7.5h67.396c4.143 0 7.5-3.358 7.5-7.5s-3.358-7.5-7.5-7.5z"/><path d="m227.237 391.419h-67.396c-4.143 0-7.5 3.358-7.5 7.5s3.357 7.5 7.5 7.5h67.396c4.143 0 7.5-3.358 7.5-7.5s-3.358-7.5-7.5-7.5z"/><path d="m227.237 421.964h-67.396c-4.143 0-7.5 3.358-7.5 7.5s3.357 7.5 7.5 7.5h67.396c4.143 0 7.5-3.358 7.5-7.5s-3.358-7.5-7.5-7.5z"/><path d="m271.264 314.782h67.396c4.143 0 7.5-3.358 7.5-7.5s-3.357-7.5-7.5-7.5h-67.396c-4.143 0-7.5 3.358-7.5 7.5s3.357 7.5 7.5 7.5z"/><path d="m271.264 375.873h67.396c4.143 0 7.5-3.358 7.5-7.5s-3.357-7.5-7.5-7.5h-67.396c-4.143 0-7.5 3.358-7.5 7.5s3.357 7.5 7.5 7.5z"/><path d="m271.264 406.419h67.396c4.143 0 7.5-3.358 7.5-7.5s-3.357-7.5-7.5-7.5h-67.396c-4.143 0-7.5 3.358-7.5 7.5s3.357 7.5 7.5 7.5z"/><path d="m271.264 436.964h67.396c4.143 0 7.5-3.358 7.5-7.5s-3.357-7.5-7.5-7.5h-67.396c-4.143 0-7.5 3.358-7.5 7.5s3.357 7.5 7.5 7.5z"/><path d="m192.912 343.472c36.158 0 65.575-23.502 65.575-52.391 0-26.779-24.514-42.767-65.575-42.767-4.143 0-7.5 3.358-7.5 7.5s3.357 7.5 7.5 7.5c8.479 0 23.225.847 34.614 5.937-.097-.004-.192-.015-.29-.015h-67.396c-4.143 0-7.5 3.358-7.5 7.5s3.357 7.5 7.5 7.5h67.396c4.143 0 7.5-3.358 7.5-7.5 0-1.551-.471-2.992-1.278-4.188 5.961 4.123 10.029 10.042 10.029 18.534 0 20.618-22.688 37.391-50.575 37.391s-50.575-16.773-50.575-37.391c0-25.32 27.81-47.015 50.575-47.015 4.143 0 7.5-3.358 7.5-7.5s-3.357-7.5-7.5-7.5c-16.928 0-33.397 7.16-46.374 20.162-12.023 12.046-19.201 27.692-19.201 41.853 0 28.888 29.417 52.39 65.575 52.39z"/><path d="m499.454 100.711c5.926-11.49 3.997-26.014-5.463-35.475l-16.527-16.526c-11.09-11.103-29.152-11.849-41.12-1.698-3.315 2.814-7.092 6.02-11.289 9.606-3.149 2.69-3.521 7.425-.83 10.574 2.689 3.15 7.425 3.522 10.574.831 4.184-3.574 7.946-6.769 11.249-9.572 6.056-5.134 15.192-4.758 20.806.863l16.529 16.53c5.616 5.616 5.995 14.755.863 20.807-21.415 25.26-63.969 74.969-113.635 130.391-15.695-20.825-34.12-39.251-54.944-54.947 30.574-27.4 62.956-55.826 96.412-84.619 3.14-2.702 3.494-7.438.792-10.577-2.702-3.141-7.438-3.495-10.577-.792-5.997 5.161-11.946 10.306-17.872 15.44-.698-16.569-1.484-32.87-2.346-48.634-.901-16.536-14.016-29.713-30.5-30.65-103.861-5.96-209.255-3.873-313.255 6.203-15.513 1.508-27.775 13.877-29.155 29.412-11.662 131.584-12.199 265.014-1.593 396.608 2.113 25.241 24.343 47.645 49.579 49.946 20.792 1.819 41.859 3.339 62.62 4.516.145.008.288.013.432.013 3.947 0 7.255-3.085 7.481-7.076.234-4.136-2.928-7.678-7.063-7.913-20.608-1.169-41.522-2.677-62.135-4.481-17.987-1.639-34.458-18.243-35.965-36.233-.305-3.788-.599-7.577-.886-11.368 9.929 18.867 33.298 32.15 60.479 32.15 36.158 0 65.575-23.502 65.575-52.391 0-26.779-24.514-42.767-65.575-42.767-4.143 0-7.5 3.358-7.5 7.5s3.357 7.5 7.5 7.5c15.206 0 50.575 2.706 50.575 27.767 0 20.618-22.688 37.391-50.575 37.391s-50.575-16.773-50.575-37.391c0-25.32 27.81-47.015 50.575-47.015 4.143 0 7.5-3.358 7.5-7.5s-3.357-7.5-7.5-7.5c-16.928 0-33.397 7.16-46.374 20.162-7.717 7.732-13.424 16.948-16.532 26.301-6.932-115.379-5.3-231.846 4.897-346.893.741-8.35 7.33-14.999 15.663-15.809 103.233-10.001 207.853-12.074 310.95-6.157 8.852.503 15.893 7.593 16.377 16.492 1.066 19.484 2.015 39.795 2.824 60.418-9.459 8.244-18.806 16.438-28.029 24.569h-70.629c-4.143 0-7.5 3.358-7.5 7.5s3.357 7.5 7.5 7.5h53.673c-8.865 7.874-17.604 15.681-26.185 23.396-.793.713-1.425 1.588-1.854 2.564-.471 1.075-8.007 18.305-15.657 38.463h-9.975c-4.143 0-7.5 3.358-7.5 7.5s3.357 7.5 7.5 7.5h4.488c-1.729 4.931-3.368 9.841-4.828 14.563l-9.727 9.727c-4.551 4.55-7.057 10.6-7.057 17.035s2.506 12.485 7.056 17.035 10.6 7.056 17.034 7.056c4.993 0 9.75-1.515 13.759-4.316h46.665c4.143 0 7.5-3.358 7.5-7.5s-3.357-7.5-7.5-7.5h-25.786c27.099-9.058 57.128-22.117 59.97-23.36.161 67.573-1.434 135.87-4.797 203.332-.582 12.546 3.631 24.391 11.603 32.842-76.397 5.458-153.48 6.597-229.604 3.373-4.13-.187-7.635 3.037-7.811 7.176s3.037 7.635 7.176 7.811c28.402 1.203 56.922 1.803 85.505 1.803 59.478 0 119.181-2.601 178.318-7.785h.003c.007 0 .015-.001.022-.001 25.209-2.299 47.438-24.704 49.555-49.967 5.799-71.994 8.304-145.038 7.443-217.106-.222-17.568-14.161-31.617-31.73-31.984-6.743-.142-13.174-.271-19.404-.389 29.681-33.749 54.671-62.877 70.978-82.052 9.515 12.399 7.824 22.909-5.056 35.789-2.611 2.612-5.339 5.157-7.976 7.619-10.574 9.87-20.562 19.192-20.764 30.93-.109 6.342 2.725 12.448 8.423 18.146 1.465 1.464 3.385 2.197 5.304 2.197s3.839-.732 5.304-2.197c2.929-2.929 2.929-7.678 0-10.606-4.088-4.087-4.046-6.491-4.032-7.281.093-5.374 8.18-12.922 16.001-20.222 2.729-2.548 5.553-5.184 8.348-7.978 19.337-19.337 20.595-39.033 3.807-58.619zm-192.494 83.602c19.465 14.718 36.708 31.961 51.427 51.427-12.261 5.151-35.454 14.59-55.279 20.913l-17.056-17.063c6.315-19.819 15.757-43.017 20.908-55.277zm-28.726 89.243c-2.428 0-4.71-.946-6.428-2.663-1.717-1.717-2.662-4-2.662-6.428s.945-4.71 2.663-6.428l5.739-5.739 12.853 12.858-5.737 5.737c-1.717 1.717-4 2.663-6.428 2.663zm159.977-63.187c9.439.197 16.927 7.742 17.047 17.171.854 71.604-1.635 144.182-7.395 215.694-1.51 18.012-17.978 34.614-35.958 36.256-.004 0-.009.001-.014.001-7.844.708-15.103-1.716-20.445-6.827-5.85-5.598-8.839-13.679-8.419-22.73 3.632-72.859 5.226-146.721 4.759-219.595 6.236-6.981 12.348-13.856 18.308-20.59 10.146.175 20.689.378 32.117.62z"/></g></svg>