<?xml version="1.0" encoding="UTF-8"?>
<svg xmlns="http://www.w3.org/2000/svg" width="512" height="512" viewBox="0 0 512 512"><g><path d="M476,40h-4V24a8,8,0,0,0-8-8H432a8,8,0,0,0-8,8V40H376V24a8,8,0,0,0-8-8H336a8,8,0,0,0-8,8V40H280V24a8,8,0,0,0-8-8H240a8,8,0,0,0-8,8V40H184V24a8,8,0,0,0-8-8H144a8,8,0,0,0-8,8V40H88V24a8,8,0,0,0-8-8H48a8,8,0,0,0-8,8V40H36A28.031,28.031,0,0,0,8,68V420a28.031,28.031,0,0,0,28,28H138.55a167.693,167.693,0,0,0,234.9,0H476a28.031,28.031,0,0,0,28-28V68A28.031,28.031,0,0,0,476,40Zm-36-8h16V64H440Zm-96,0h16V64H344Zm-96,0h16V64H248Zm-96,0h16V64H152ZM56,32H72V64H56ZM256,480c-83.81,0-152-68.19-152-152s68.19-152,152-152,152,68.19,152,152S339.81,480,256,480Zm232-60a12.01,12.01,0,0,1-12,12H387.85A167.227,167.227,0,0,0,424,328c0-92.64-75.36-168-168-168S88,235.36,88,328a167.227,167.227,0,0,0,36.15,104H36a12.01,12.01,0,0,1-12-12V104H488Zm0-332H24V68A12.01,12.01,0,0,1,36,56h4V72a8,8,0,0,0,8,8H80a8,8,0,0,0,8-8V56h48V72a8,8,0,0,0,8,8h32a8,8,0,0,0,8-8V56h48V72a8,8,0,0,0,8,8h32a8,8,0,0,0,8-8V56h48V72a8,8,0,0,0,8,8h32a8,8,0,0,0,8-8V56h48V72a8,8,0,0,0,8,8h32a8,8,0,0,0,8-8V56h4a12.01,12.01,0,0,1,12,12Z"/><path d="M264,200a8,8,0,0,0-8-8c-74.991,0-136,61.009-136,136a8,8,0,0,0,16,0A120.136,120.136,0,0,1,256,208,8,8,0,0,0,264,200Z"/><path d="M335.2,271.432,312.568,248.8a8,8,0,0,0-11.313,0L256,294.059,210.745,248.8a8,8,0,0,0-11.313,0L176.8,271.432a8,8,0,0,0,0,11.313L222.059,328,176.8,373.255a8,8,0,0,0,0,11.313L199.432,407.2a8,8,0,0,0,11.313,0L256,361.941,301.255,407.2a8,8,0,0,0,11.313,0L335.2,384.568a8,8,0,0,0,0-11.313L289.941,328,335.2,282.745A8,8,0,0,0,335.2,271.432Zm-62.225,50.911a8,8,0,0,0,0,11.314l45.255,45.255-11.314,11.314-45.255-45.255a8,8,0,0,0-11.314,0l-45.255,45.255-11.314-11.314,45.255-45.255a8,8,0,0,0,0-11.314l-45.255-45.255,11.314-11.314,45.255,45.255a8,8,0,0,0,11.314,0l45.255-45.255,11.314,11.314Z"/></g></svg>
