<?xml version="1.0"?>
<svg xmlns="http://www.w3.org/2000/svg" viewBox="0 0 512 512" width="512" height="512"><g id="Events_Cancelling" data-name="Events Cancelling"><g id="Outline"><path d="M384,256A128.145,128.145,0,0,0,256,384c0,103.16,115.712,162.715,199.51,106.176a8,8,0,0,0-8.949-13.264A112,112,0,1,1,384,272c75.379,0,129.813,73.6,106.727,146.045a8,8,0,1,0,15.244,4.859C532.336,340.179,470.2,256,384,256Z"/><path d="M445.657,322.343a8,8,0,0,0-11.314,0L384,372.686l-50.343-50.343a8,8,0,0,0-11.314,11.314L372.686,384l-50.343,50.343a8,8,0,0,0,11.314,11.314L384,395.314C436.245,446.332,433.977,448,440,448a8.009,8.009,0,0,0,5.657-13.657L395.314,384l50.343-50.343A8,8,0,0,0,445.657,322.343Z"/><circle cx="480" cy="456" r="8"/><circle cx="64" cy="112" r="8"/><path d="M8,120H32a8,8,0,0,0,0-16H16V56H33.677A44.07,44.07,0,0,0,76,88a8,8,0,0,0,0-16,28,28,0,1,1,27.71-32H72a8,8,0,0,0,0,16h65.677A44.07,44.07,0,0,0,180,88a8,8,0,0,0,0-16,28,28,0,1,1,27.71-32H176a8,8,0,0,0,0,16h65.677A44.07,44.07,0,0,0,284,88a8,8,0,0,0,0-16,28,28,0,1,1,27.71-32H280a8,8,0,0,0,0,16h65.677A44.07,44.07,0,0,0,388,88a8,8,0,0,0,0-16,28,28,0,1,1,27.71-32H384a8,8,0,0,0,0,16h48v48H96a8,8,0,0,0,0,16H432V240a8,8,0,0,0,16,0V120h8a8,8,0,0,0,0-16h-8V56h32V264a8,8,0,0,0,16,0V48a8,8,0,0,0-8-8H431.81a43.991,43.991,0,0,0-87.62,0H327.81a43.991,43.991,0,0,0-87.62,0H223.81a43.991,43.991,0,0,0-87.62,0H119.81a43.991,43.991,0,0,0-87.62,0H8a8,8,0,0,0-8,8v64A8,8,0,0,0,8,120Z"/><path d="M248,456H16V144a8,8,0,0,0-16,0V464a8,8,0,0,0,8,8H248a8,8,0,0,0,0-16Z"/><path d="M96,144a8,8,0,0,0-8-8H40a8,8,0,0,0-8,8v48a8,8,0,0,0,8,8H88a8,8,0,0,0,8-8ZM80,184H48V152H80Z"/><path d="M176,144a8,8,0,0,0-8-8H120a8,8,0,0,0-8,8v48a8,8,0,0,0,8,8h48a8,8,0,0,0,8-8Zm-16,40H128V152h32Z"/><path d="M256,144a8,8,0,0,0-8-8H200a8,8,0,0,0-8,8v48a8,8,0,0,0,8,8h48a8,8,0,0,0,8-8Zm-16,40H208V152h32Z"/><path d="M336,144a8,8,0,0,0-8-8H280a8,8,0,0,0-8,8v48a8,8,0,0,0,8,8h48a8,8,0,0,0,8-8Zm-16,40H288V152h32Z"/><path d="M416,144a8,8,0,0,0-8-8H360a8,8,0,0,0-8,8v48a8,8,0,0,0,8,8h48a8,8,0,0,0,8-8Zm-16,40H368V152h32Z"/><path d="M96,224a8,8,0,0,0-8-8H40a8,8,0,0,0-8,8v48a8,8,0,0,0,8,8H88a8,8,0,0,0,8-8ZM80,264H48V232H80Z"/><path d="M176,224a8,8,0,0,0-8-8H120a8,8,0,0,0-8,8v48a8,8,0,0,0,8,8h48a8,8,0,0,0,8-8Zm-16,40H128V232h32Z"/><path d="M256,224a8,8,0,0,0-8-8H200a8,8,0,0,0-8,8v48a8,8,0,0,0,8,8h48a8,8,0,0,0,8-8Zm-16,40H208V232h32Z"/><path d="M328,248a8,8,0,0,0,8-8V224a8,8,0,0,0-8-8H280a8,8,0,0,0-8,8v40a8,8,0,0,0,16,0V232h32v8A8,8,0,0,0,328,248Z"/><path d="M408,216H360a8,8,0,0,0,0,16h48a8,8,0,0,0,0-16Z"/><path d="M96,304a8,8,0,0,0-8-8H40a8,8,0,0,0-8,8v48a8,8,0,0,0,8,8H88a8,8,0,0,0,8-8ZM80,344H48V312H80Z"/><path d="M176,304a8,8,0,0,0-8-8H120a8,8,0,0,0-8,8v48a8,8,0,0,0,8,8h48a8,8,0,0,0,8-8Zm-16,40H128V312h32Z"/><path d="M248,312a8,8,0,0,0,0-16H200a8,8,0,0,0-8,8v48a8,8,0,0,0,8,8h32a8,8,0,0,0,0-16H208V312Z"/><path d="M88,376H40a8,8,0,0,0-8,8v48a8,8,0,0,0,8,8H88a8,8,0,0,0,8-8V384A8,8,0,0,0,88,376Zm-8,48H48V392H80Z"/><path d="M168,376H120a8,8,0,0,0-8,8v48a8,8,0,0,0,8,8h48a8,8,0,0,0,8-8V384A8,8,0,0,0,168,376Zm-8,48H128V392h32Z"/><path d="M232,392a8,8,0,0,0,0-16H200a8,8,0,0,0-8,8v48a8,8,0,0,0,8,8h32a8,8,0,0,0,0-16H208V392Z"/></g></g></svg>
