<svg id="Capa_1" enable-background="new 0 0 512 512" height="512" viewBox="0 0 512 512" width="512" xmlns="http://www.w3.org/2000/svg"><g><path d="m501.158 218.501-41.042-19.162c-9.16-4.276-19.345-6.537-29.454-6.537h-62.029c-.073-.09-.14-.183-.218-.271l-123.392-138.635c-2.749-3.089-7.482-3.363-10.57-.615-3.089 2.749-3.364 7.481-.615 10.57l114.774 128.952h-82.975c-4.135 0-7.486 3.352-7.486 7.486 0 4.135 3.352 7.486 7.486 7.486h165.025c7.935 0 15.929 1.774 23.119 5.131l41.042 19.162c1.989.928 2.204 2.729 2.204 3.46 0 .732-.214 2.532-2.204 3.461l-41.042 19.162c-7.19 3.357-15.185 5.131-23.119 5.131h-223.389c-38.828 0-77.651-4.621-115.393-13.735l-45.956-11.097c-2.001-.483-2.3-2.038-2.3-2.922s.299-2.438 2.3-2.921l45.956-11.097c37.743-9.114 76.567-13.735 115.393-13.735h22.679c4.135 0 7.486-3.352 7.486-7.486 0-4.135-3.352-7.486-7.486-7.486h-14.41l-56.867-175.186h32.185c1.16 0 2.269.497 3.04 1.364l18.604 20.903c2.748 3.089 7.481 3.363 10.57.615 3.089-2.749 3.364-7.481.615-10.57l-18.603-20.903c-3.61-4.056-8.795-6.382-14.225-6.382h-37.186c-3.617 0-7.046 1.747-9.173 4.673s-2.729 6.727-1.612 10.166l56.928 175.375c-35.825.529-71.59 4.883-106.502 12.941l-37.716-45.145c-3.261-3.904-8.049-6.143-13.136-6.143h-31.129c-3.626 0-7.06 1.754-9.186 4.691-2.126 2.938-2.718 6.748-1.584 10.192l21.766 66.135-21.765 66.135c-1.134 3.444-.541 7.254 1.584 10.192 2.126 2.938 5.56 4.692 9.186 4.692h31.128c5.086 0 9.874-2.239 13.136-6.143l37.717-45.146c34.911 8.059 70.676 12.412 106.502 12.941l-56.929 175.374c-1.117 3.44-.514 7.241 1.612 10.167s5.555 4.673 9.173 4.673h37.186c5.431 0 10.616-2.326 14.225-6.382l25.903-29.102c13.259 44.158 54.275 76.426 102.693 76.426 40.352 0 76.898-22.305 95.377-58.211 1.892-3.676.445-8.191-3.231-10.083s-8.19-.444-10.083 3.231c-15.9 30.897-47.345 50.09-82.063 50.09-50.856 0-92.23-41.374-92.23-92.23s41.374-92.23 92.23-92.23 92.23 41.374 92.23 92.23c0 3.912-.248 7.851-.735 11.708-.519 4.102 2.386 7.848 6.488 8.367 4.115.515 7.848-2.386 8.367-6.488.566-4.478.853-9.049.853-13.587 0-52.747-38.293-96.715-88.538-105.573l16.069-18.053c.078-.088.145-.181.218-.271h62.029c10.109 0 20.294-2.261 29.454-6.537l41.042-19.162c6.688-3.122 10.842-9.647 10.842-17.028-.001-7.381-4.156-13.906-10.843-17.028zm-484.8-49.017h26.106c.638 0 1.237.28 1.645.77l32.945 39.434-34.643 8.366c-3.356.81-6.252 2.469-8.518 4.71zm27.751 131.321c-.409.489-1.009.77-1.646.77h-26.105l17.535-53.28c2.266 2.242 5.161 3.9 8.517 4.71l34.644 8.366zm289.643-5.854c-.024 0-.047-.001-.07-.001-59.112 0-107.203 48.091-107.203 107.203 0 4.228.254 8.398.733 12.5l-33.312 37.425c-.771.867-1.879 1.364-3.04 1.364h-32.185l56.867-175.186h133.07z"/><path d="m376.527 359.152c-2.923-2.923-7.664-2.923-10.587 0l-32.259 32.259-32.259-32.259c-2.923-2.924-7.663-2.924-10.587 0-2.924 2.923-2.924 7.664 0 10.587l32.259 32.259-32.259 32.259c-2.924 2.923-2.924 7.664 0 10.587 2.923 2.924 7.664 2.924 10.587 0l32.259-32.259 32.259 32.259c2.923 2.924 7.664 2.923 10.587 0 2.924-2.923 2.924-7.664 0-10.587l-32.259-32.259 32.259-32.259c2.924-2.923 2.924-7.664 0-10.587z"/></g></svg>