<svg id="Capa_1" enable-background="new 0 0 512 512" height="512" viewBox="0 0 512 512" width="512" xmlns="http://www.w3.org/2000/svg"><g><path d="m446.607 365.38c-5.857-5.858-15.355-5.858-21.213 0l-19.394 19.393-19.394-19.394c-5.857-5.858-15.355-5.858-21.213 0s-5.858 15.355 0 21.213l19.394 19.394-19.394 19.394c-5.858 5.858-5.858 15.355 0 21.213 5.857 5.858 15.355 5.859 21.213 0l19.394-19.394 19.394 19.394c5.857 5.858 15.355 5.859 21.213 0 5.858-5.858 5.858-15.355 0-21.213l-19.394-19.394 19.394-19.394c5.857-5.857 5.857-15.354 0-21.212z"/><path d="m420.414 301.961-60.032-108.059 91.489-91.489c23.394-23.394 23.394-61.458 0-84.853s-61.459-23.395-84.853 0l-91.489 91.489-167.391-92.995c-5.854-3.252-13.156-2.229-17.891 2.505l-42.427 42.427c-3.007 3.007-4.596 7.148-4.373 11.395s2.238 8.198 5.543 10.873l145.108 117.43-76.707 86.886-54.221-18.076c-5.331-1.778-11.207-.426-15.226 3.501l-43.426 42.427c-3.479 3.4-5.095 8.276-4.332 13.081.762 4.805 3.808 8.941 8.169 11.097l81.335 40.194 40.173 80.346c2.156 4.313 6.254 7.326 11.014 8.098 4.735.77 9.586-.776 13.009-4.2l42.426-42.426c4.018-4.017 5.42-9.96 3.624-15.35l-18.074-54.221 85.917-75.851 50.013 72.901c-10.619 16.403-16.792 35.941-16.792 56.895 0 58.449 47.103 106 105 106 57.97 0 106-47.866 106-106 0-53.054-39.931-97.037-91.586-104.025zm-159.783-59.481-106.066 93.64c-4.512 3.983-6.207 10.278-4.303 15.988l18.282 54.845-21.155 21.155-33.119-66.238c-1.462-2.924-3.84-5.291-6.771-6.74l-66.871-33.046 21.736-21.235 54.959 18.32c5.71 1.901 12.005.209 15.988-4.303l93.64-106.066c5.648-6.396 4.825-16.219-1.809-21.587l-144.325-116.797 22.643-22.643 167.391 92.995c5.854 3.252 13.156 2.23 17.891-2.506l99.49-99.49c11.698-11.697 30.73-11.696 42.426 0 11.697 11.697 11.697 30.73 0 42.427l-99.49 99.49c-4.736 4.735-5.758 12.037-2.506 17.891l57.898 104.217c-18.189 3.419-34.736 11.542-48.329 23.056l-55.304-80.614c-5.092-7.423-15.546-8.719-22.296-2.759zm145.369 239.506c-41.355 0-75-34.093-75-76 0-41.355 33.645-75 75-75 41.907 0 76 33.645 76 75 0 41.196-34.804 76-76 76z"/></g></svg>