<svg id="Capa_1" enable-background="new 0 0 512 512" height="512" viewBox="0 0 512 512" width="512" xmlns="http://www.w3.org/2000/svg"><g><path d="m314.096 176.87-14.174-.028c-.005 0-.01 0-.016 0-4.135 0-7.491 3.349-7.5 7.485-.008 4.142 3.343 7.506 7.485 7.515l14.189.028c10.643 0 18.669-8.538 18.669-19.86v-40.2c0-4.143-3.358-7.5-7.5-7.5h-17.094c-4.142 0-7.5 3.357-7.5 7.5s3.358 7.5 7.5 7.5h9.594v32.7c.001.811-.176 4.86-3.653 4.86z"/><path d="m377.155 191.87c13.327 0 24.168-10.855 24.168-24.198v-19.192c0-13.327-10.842-24.17-24.168-24.17h-3.033c-13.342 0-24.197 10.843-24.197 24.17v19.192c0 13.343 10.854 24.198 24.197 24.198zm-12.23-24.198v-19.192c0-5.057 4.125-9.17 9.197-9.17h3.033c5.056 0 9.168 4.113 9.168 9.17v19.192c0 5.072-4.113 9.198-9.168 9.198h-3.033c-5.072 0-9.197-4.126-9.197-9.198z"/><path d="m461.562 143.859c0-10.779-8.769-19.549-19.547-19.549h-15.081c-5.511 0-9.995 4.483-9.995 9.994v23.786 23.758c0 5.526 4.483 10.022 9.995 10.022h21.856c10.779 0 19.548-8.77 19.548-19.549v-2.183c0-6.68-3.372-12.583-8.5-16.111 1.099-2.442 1.724-5.14 1.724-7.987zm-29.623-4.549h10.076c2.507 0 4.547 2.041 4.547 4.549v2.183c0 2.508-2.04 4.549-4.547 4.549h-10.076zm21.398 33.011c0 2.466-2.083 4.549-4.548 4.549h-16.851v-11.28h10.076 6.775c2.465 0 4.548 2.083 4.548 4.549z"/><path d="m512 159.109c0-35.06-13.898-68.011-39.132-92.781-51.979-51.055-136.581-51.055-188.59-.002-2.956 2.902-3 7.65-.098 10.606 2.901 2.956 7.65 2.999 10.606.099 46.213-45.366 121.386-45.366 167.573 0 22.338 21.929 34.641 51.078 34.641 82.079s-12.302 60.151-34.643 82.082c-46.186 45.363-121.358 45.362-167.569.001-17.734-17.422-28.876-39.08-33-61.894.001-.049.007-.096.007-.146 0-.931-.178-1.819-.488-2.642-3.731-24.072.327-49.286 12.729-72.077 1.98-3.639.635-8.192-3.003-10.173-3.639-1.979-8.193-.636-10.173 3.003-12.29 22.584-17.564 48.783-15.093 74.389h-211.875c-18.688.001-33.892 15.206-33.892 33.895v244.521c0 18.689 15.204 33.895 33.892 33.895h79.969c4.142 0 7.5-3.357 7.5-7.5s-3.358-7.5-7.5-7.5h-79.969c-1.341 0-2.648-.146-3.911-.413l155.054-136.076 25.739 20.8c.124.101.25.196.38.288 5.557 3.934 11.948 7.382 19.669 7.382 5.894 0 12.563-2.011 20.222-7.351.087-.062.174-.124.259-.188l27.027-20.613 155.266 135.407c-1.676.489-3.442.764-5.274.764h-279.82c-4.142 0-7.5 3.357-7.5 7.5s3.358 7.5 7.5 7.5h279.82c8.875 0 16.96-3.434 23.008-9.037.059-.053.116-.11.173-.166 6.586-6.187 10.711-14.965 10.711-24.692v-188.778c3.678-2.913 7.237-6.041 10.652-9.395 25.235-24.774 39.133-57.726 39.133-92.787zm-494.451 300.395c-1.611-2.78-2.549-5.997-2.549-9.435v-244.521c0-3.153.786-6.122 2.158-8.738l156.038 126.097zm224.789-118.126c-9.618 6.664-14.712 5.43-22.328.076l-30.27-24.462c-.152-.132-.307-.26-.467-.377l-160.063-129.349c1.5-.385 3.063-.611 4.681-.611h214.232c5.36 24.733 17.731 47.14 36.155 65.241 11.886 11.668 25.478 20.661 39.991 26.995l-50.108 38.216c-.038.028-.075.057-.112.086zm204.876 108.69c0 3.01-.726 5.847-1.983 8.375l-154.726-134.936 50.574-38.572c12.227 3.497 24.865 5.25 37.504 5.25 23.8 0 47.594-6.208 68.631-18.607z"/></g></svg>