<svg height="512pt" viewBox="0 -24 512 512" width="512pt" xmlns="http://www.w3.org/2000/svg"><path d="m424.699219 0h-337.398438c-48.21875 0-87.300781 39.011719-87.300781 87.300781v361.5c0 12.539063 14.703125 19.773438 24.601562 11.523438l92.230469-76.855469h307.867188c48.210937 0 87.300781-39.007812 87.300781-87.300781v-208.867188c0-48.214843-39.003906-87.300781-87.300781-87.300781zm57.300781 296.167969c0 31.644531-25.601562 57.300781-57.300781 57.300781h-313.300781c-3.507813 0-6.90625 1.226562-9.601563 3.476562l-71.796875 59.828126v-329.472657c0-31.648437 25.601562-57.300781 57.300781-57.300781h337.398438c31.648437 0 57.300781 25.605469 57.300781 57.300781zm0 0"/><path d="m159.601562 112.46875h-32.132812c-8.285156 0-15 6.714844-15 15 0 8.28125 6.714844 15 15 15h17.132812v81.398438c0 9.445312-7.6875 17.132812-17.152343 17.132812-9.4375 0-17.113281-7.679688-17.113281-17.132812 0-8.285157-6.71875-14.992188-15-14.992188-8.285157 0-15 6.722656-15 15.007812 0 25.980469 21.136718 47.117188 47.132812 47.117188 25.988281 0 47.132812-21.144531 47.132812-47.132812v-96.398438c0-8.285156-6.71875-15-15-15zm0 0"/><path d="m247.96875 112.46875c-30.421875 0-55.167969 24.746094-55.167969 55.164062v48.203126c0 30.417968 24.746094 55.164062 55.167969 55.164062 30.417969 0 55.164062-24.746094 55.164062-55.164062v-48.203126c0-30.417968-24.746093-55.164062-55.164062-55.164062zm25.164062 103.363281c0 13.878907-11.289062 25.167969-25.167968 25.167969-13.875 0-25.164063-11.289062-25.164063-25.167969v-48.199219c0-13.875 11.289063-25.167968 25.164063-25.167968 13.878906 0 25.167968 11.292968 25.167968 25.167968zm0 0"/><path d="m384.53125 112.46875h-48.199219c-8.28125 0-15 6.714844-15 15v128.53125c0 8.285156 6.71875 15 15 15h48.199219c25.800781 0 47.132812-20.847656 47.132812-47.132812 0-12.046876-4.492187-23.390626-12.667968-32.132813 8.175781-8.75 12.667968-20.09375 12.667968-32.132813.003907-25.804687-20.847656-47.132812-47.132812-47.132812zm0 64.265625h-33.199219v-34.265625h33.199219c22.660156 0 22.6875 34.265625 0 34.265625zm0 64.265625h-33.199219v-34.265625h33.199219c22.660156 0 22.6875 34.265625 0 34.265625zm0 0"/></svg>