<svg height="512" viewBox="0 0 60 60" width="512" xmlns="http://www.w3.org/2000/svg"><g id="016---Search-Questions"><path id="Shape" d="m25 0c-13.800722.0154309-24.9845691 11.199278-25 25 0 20.405 23.21 32.125 39.612 20.266l13.557 13.555c.7454601.7595803 1.7667453 1.1849053 2.831 1.179 1.6136655-.0079106 3.0651277-.9830113 3.6825024-2.4739263.6173746-1.490915.2801775-3.2066836-.8555024-4.3530737l-13.561-13.561c11.861-16.405.134-39.612-20.266-39.612zm-23 25c0-12.7025492 10.2974508-23 23-23s23 10.2974508 23 23-10.2974508 23-23 23c-12.6966095-.0143284-22.98567159-10.3033905-23-23zm48.327 22.5-2.827 2.826-2.825-2.826 2.825-2.826zm7.085 9.917c-.7888669.7567226-2.0341331.7567226-2.823 0l-5.674-5.677 2.826-2.826 5.674 5.673c.7757813.7843176.7744424 2.047329-.003 2.83zm-11.325-14.157-2.827 2.826-2.06-2.064c1.01349-.8649098 1.9570902-1.80851 2.822-2.822z"/><path id="Shape" d="m44.617 29.032c-.5345918-.1379304-1.0798152.1834739-1.218.718-2.5027536 9.7149451-12.1246 15.8123146-21.9781044 13.9275369-9.8535043-1.8847777-16.54583846-11.1027225-15.28654801-21.0555172 1.25929044-9.9527947 10.03659771-17.21342284 20.04901821-16.58463824s17.8124071 8.93047434 17.8166342 18.96261854c0 .5522847.4477153 1 1 1s1-.4477153 1-1c-.0042908-11.0788493-8.6174716-20.24714244-19.6744794-20.94248334-11.0570078-.69534089-20.75091932 7.32167604-22.14311626 18.31270454-1.39219695 10.9910285 5.99665356 21.171862 16.87782846 23.2553576 10.8811748 2.0834955 21.50829-4.6476935 24.2747672-15.3755788.1379304-.5345918-.1834739-1.0798152-.718-1.218z"/><path id="Shape" d="m28 28.543c4.8935161-1.53894 7.8288974-6.5311027 6.7946444-11.5555585-1.034253-5.0244559-5.7026603-8.45142601-10.8061492-7.93254476-5.1034888.51888126-8.9866443 4.81530476-8.9884952 9.94510326 0 1.6568542 1.3431458 3 3 3s3-1.3431458 3-3c-.0017519-1.0716734.4272453-2.0990926 1.1905612-2.8513132.7633158-.7522206 1.7969059-1.1661291 2.8684388-1.1486868 2.147051.0705197 3.8710251 1.7949311 3.941 3.942.0335708 2.0417598-1.4791199 3.7796714-3.506 4.028-1.9973373.250231-3.4954878 1.9490496-3.494 3.962v3.068c0 1.6568542 1.3431458 2.9999999 3 2.9999999s3-1.3431457 3-2.9999999zm-1.22-1.743c-.4558841.1028134-.7797664.5076662-.78.975v2.225c0 .5522847-.4477153 1-1 1s-1-.4477153-1-1v-3.068c-.0024164-1.0025539.7424098-1.8498634 1.737-1.976 3.0412178-.371921 5.3117394-2.9785125 5.263-6.042-.1024021-3.2174496-2.6828022-5.8039726-5.9-5.914-1.6085541-.026813-3.1604941.5934713-4.3074339 1.7216089-1.1469398 1.1281375-1.7927896 2.6696135-1.7925661 4.2783911 0 .5522847-.4477153 1-1 1s-1-.4477153-1-1c-.0314802-4.418278 3.524722-8.0255198 7.943-8.057s8.0255198 3.524722 8.057 7.943c.0432811 3.7716404-2.5449543 7.0647746-6.22 7.914z"/><path id="Shape" d="m25 35c-1.6568542 0-3 1.3431458-3 3s1.3431458 3 3 3 3-1.3431458 3-3-1.3431458-3-3-3zm0 4c-.5522847 0-1-.4477153-1-1s.4477153-1 1-1 1 .4477153 1 1-.4477153 1-1 1z"/></g></svg>