<?xml version="1.0" encoding="iso-8859-1"?>
<!-- Generator: Adobe Illustrator 19.0.0, SVG Export Plug-In . SVG Version: 6.00 Build 0)  -->
<svg version="1.1" id="Capa_1" xmlns="http://www.w3.org/2000/svg" xmlns:xlink="http://www.w3.org/1999/xlink" x="0px" y="0px"
	 viewBox="0 0 60 60" style="enable-background:new 0 0 60 60;" xml:space="preserve">
<g>
	<g>
		<path d="M59,21H1c-0.6,0-1,0.4-1,1v14c0,0.6,0.4,1,1,1h20v-2H2V23h40v12h-3v2h20c0.6,0,1-0.4,1-1V22C60,21.4,59.6,21,59,21z
			 M58,35H44V23h14V35z"/>
		<path d="M35,43H25c-3.9,0-7,3.1-7,7v10h2V50c0-2.8,2.2-5,5-5h1.3l2.8,7.4c0.1,0.3,0.5,0.6,0.9,0.6s0.8-0.3,1.1-0.6l2.8-7.4H35
			c2.8,0,5,2.2,5,5v10h2V50C42,46.1,38.9,43,35,43z M30.1,49.2L28.5,45h3.2L30.1,49.2z"/>
		<rect x="29" y="54" width="2" height="2"/>
		<rect x="29" y="58" width="2" height="2"/>
		<path d="M29,42h2c2.8,0,5-2.2,5-5v-3c0-2.8-2.2-5-5-5h-2c-2.8,0-5,2.2-5,5v3C24,39.8,26.2,42,29,42z M26,34c0-1.7,1.3-3,3-3h2
			c1.7,0,3,1.3,3,3v3c0,1.7-1.3,3-3,3h-2c-1.7,0-3-1.3-3-3V34z"/>
		<rect x="23" y="53" width="2" height="7"/>
		<rect x="35" y="53" width="2" height="7"/>
		<rect x="5" y="26" width="3" height="2"/>
		<rect x="10" y="26" width="3" height="2"/>
		<rect x="15" y="26" width="3" height="2"/>
		<rect x="20" y="26" width="3" height="2"/>
		<rect x="5" y="30" width="3" height="2"/>
		<rect x="10" y="30" width="3" height="2"/>
		<rect x="15" y="30" width="3" height="2"/>
		<path d="M51,33c2.2,0,4-1.8,4-4s-1.8-4-4-4s-4,1.8-4,4S48.8,33,51,33z M51,27c1.1,0,2,0.9,2,2s-0.9,2-2,2s-2-0.9-2-2
			S49.9,27,51,27z"/>
		<path d="M7,14h13.7l5.7,3.8c0.2,0.1,0.4,0.2,0.6,0.2s0.3,0,0.5-0.1c0.3-0.2,0.5-0.5,0.5-0.9V1c0-0.6-0.4-1-1-1H7C6.4,0,6,0.4,6,1
			v12C6,13.6,6.4,14,7,14z M8,2h18v13.2l-4.4-3C21.4,12.1,21.2,12,21,12H8V2z"/>
		<path d="M32.5,17.9C32.7,18,32.8,18,33,18s0.4-0.1,0.6-0.2l5.7-3.8H53c0.6,0,1-0.4,1-1V1c0-0.6-0.4-1-1-1H33c-0.6,0-1,0.4-1,1v16
			C32,17.4,32.2,17.7,32.5,17.9z M34,2h18v9.9H39c-0.2,0-0.4,0.1-0.6,0.2l-4.4,3V2z"/>
		<rect x="10" y="4" width="7" height="2"/>
		<rect x="19" y="4" width="4" height="2"/>
		<rect x="10" y="8" width="7" height="2"/>
		<rect x="19" y="8" width="4" height="2"/>
		<rect x="36" y="4" width="7" height="2"/>
		<rect x="45" y="4" width="4" height="2"/>
		<rect x="36" y="8" width="7" height="2"/>
		<rect x="45" y="8" width="4" height="2"/>
		<rect y="58" width="2" height="2"/>
		<rect x="4" y="58" width="2" height="2"/>
		<rect x="8" y="58" width="2" height="2"/>
		<rect x="12" y="58" width="2" height="2"/>
		<rect x="4" y="54" width="2" height="2"/>
		<rect x="8" y="54" width="2" height="2"/>
		<rect x="12" y="54" width="2" height="2"/>
		<rect x="8" y="50" width="2" height="2"/>
		<rect x="12" y="50" width="2" height="2"/>
		<rect x="12" y="46" width="2" height="2"/>
		<rect x="46" y="58" width="2" height="2"/>
		<rect x="50" y="58" width="2" height="2"/>
		<rect x="54" y="58" width="2" height="2"/>
		<rect x="58" y="58" width="2" height="2"/>
		<rect x="46" y="54" width="2" height="2"/>
		<rect x="50" y="54" width="2" height="2"/>
		<rect x="54" y="54" width="2" height="2"/>
		<rect x="46" y="50" width="2" height="2"/>
		<rect x="50" y="50" width="2" height="2"/>
		<rect x="46" y="46" width="2" height="2"/>
	</g>
</g>
<g>
</g>
<g>
</g>
<g>
</g>
<g>
</g>
<g>
</g>
<g>
</g>
<g>
</g>
<g>
</g>
<g>
</g>
<g>
</g>
<g>
</g>
<g>
</g>
<g>
</g>
<g>
</g>
<g>
</g>
</svg>
