<svg id="_x33_0" enable-background="new 0 0 64 64" height="512" viewBox="0 0 64 64" width="512" xmlns="http://www.w3.org/2000/svg"><g><path d="m57 23c1.103 0 2-.897 2-2v-10.586l3.707-3.707-1.414-1.414-2.293 2.293v-.586c0-1.103-.897-2-2-2h-10c-1.103 0-2 .897-2 2v4h-9.917c-.046 0-.083-.037-.083-.083 0-.04.029-.075.068-.082l1.76-.293c2.418-.402 4.172-2.473 4.172-4.924 0-1.444-1.175-2.618-2.677-2.618-.343 0-.678.064-.994.191l-1.482.593c-2.044.817-4.183 1.39-6.361 1.706-3.145-2.89-7.196-4.49-11.486-4.49-9.374 0-17 7.626-17 17 0 7.434 5.401 15.614 10.147 21h-8.147c-1.103 0-2 .897-2 2v20c0 1.103.897 2 2 2h30c1.103 0 2-.897 2-2v-20c0-1.103-.897-2-2-2h-8.224c2.482-2.841 5.118-6.391 7.032-10h6.192c1.654 0 3-1.346 3-3 0-.395-.081-.77-.22-1.116 1.275-.346 2.22-1.501 2.22-2.884 0-.771-.301-1.468-.78-2 .48-.532.78-1.229.78-2 0-.352-.072-.686-.184-1h2.184v4c0 1.103.897 2 2 2h4v2h-4c-1.103 0-2 .897-2 2v14c0 1.103.897 2 2 2h4v2h-4c-1.103 0-2 .897-2 2v14c0 1.103.897 2 2 2h10c1.103 0 2-.897 2-2v-14c0-1.103-.897-2-2-2h-4v-2h4c1.103 0 2-.897 2-2v-14c0-1.103-.897-2-2-2h-4v-2zm.001 38h-10.001v-14h10zm0-20h-10.001v-14h10zm-39.001-38c3.33 0 6.498 1.094 9.102 3.091-.722.261-1.42.584-2.079.978-2.096-1.351-4.506-2.069-7.023-2.069-7.168 0-13 5.832-13 13s5.832 13 13 13c2.889 0 5.69-.975 7.961-2.738 1.153.42 2.362.662 3.595.708-3.939 6.991-9.95 12.747-11.555 13.9-2.418-1.754-15.001-14.22-15.001-24.87 0-8.271 6.729-15 15-15zm-7.751 7.204 10.751 1.654v12.284l-10.751 1.654c-2.005-1.994-3.249-4.752-3.249-7.796s1.244-5.802 3.249-7.796zm11.546 15.839 2.077 1.246c-1.748 1.106-3.782 1.711-5.872 1.711-2.026 0-3.919-.56-5.55-1.519zm.948-17.201-1.092 1.092-9.201-1.415c1.631-.959 3.524-1.519 5.55-1.519 1.867 0 3.665.469 5.274 1.353-.18.159-.36.319-.531.489zm-19.743 52.158v-14.095c2.312 3.666 6.394 6.095 11 6.095h1v2c0 1.103.897 2 2 2h2c1.103 0 2-.897 2-2v-2h1c4.606 0 8.688-2.429 11-6.095v14.095zm14-6v-4h2l.001 4zm15.945-14c-.509 5.629-5.256 10-10.945 10h-1c0-1.103-.897-2-2-2h-2c-1.103 0-2 .897-2 2h-1c-5.689 0-10.436-4.371-10.945-10h9.945c2.415 2.476 4.403 4 5 4 .655 0 2.607-1.558 4.952-4zm8.055-23c0 .551-.448 1-1 1h-5v2h5c.552 0 1 .449 1 1s-.448 1-1 1h-5v2h3c.552 0 1 .449 1 1s-.448 1-1 1h-8.004c-1.778 0-3.525-.484-5.051-1.399l-1.945-1.167v-13.02l1.157-1.158c1.492-1.492 3.465-2.478 5.554-2.776 2.354-.336 4.669-.955 6.878-1.838l1.484-.593c.079-.033.163-.049.309-.049.341 0 .618.277.618.618 0 1.469-1.052 2.71-2.5 2.952l-1.76.293c-1.009.168-1.74 1.032-1.74 2.054 0 1.149.935 2.083 2.083 2.083h10.917c.552 0 1 .449 1 1s-.448 1-1 1h-11v2h5c.552 0 1 .449 1 1zm6-1.184c1.161-.414 2-1.514 2-2.816s-.839-2.402-2-2.816v-4.184h10v2.586l-5 5-1.293-1.293-1.414 1.414 2.707 2.707 5-5v8.586h-10z"/><path d="m49 49h6v2h-6z"/><path d="m49 53h6v2h-6z"/><path d="m49 57h6v2h-6z"/><path d="m49 29h6v2h-6z"/><path d="m49 33h6v2h-6z"/><path d="m49 37h6v2h-6z"/></g></svg>