<svg id="job-search-male" enable-background="new 0 0 300 300" height="512" viewBox="0 0 300 300" width="512" xmlns="http://www.w3.org/2000/svg"><g><path d="m69.85 61.351c-1.562-1.562-4.094-1.562-5.656 0l-4.52 4.52-4.52-4.52c-1.562-1.562-4.094-1.562-5.656 0s-1.562 4.094 0 5.656l4.52 4.52-4.52 4.52c-1.562 1.562-1.562 4.094 0 5.656.781.781 1.805 1.172 2.828 1.172s2.047-.391 2.828-1.172l4.52-4.52 4.52 4.52c.781.781 1.805 1.172 2.828 1.172s2.047-.391 2.828-1.172c1.562-1.562 1.562-4.094 0-5.656l-4.52-4.52 4.52-4.52c1.562-1.562 1.562-4.094 0-5.656z"/><circle cx="233.674" cy="99.527" r="4.53"/><circle cx="57.674" cy="111.527" r="4.53"/><circle cx="173.674" cy="111.527" r="4"/><circle cx="125.674" cy="111.527" r="4"/><path d="m147.674 213.527h-16c-2.209 0-4 1.791-4 4s1.791 4 4 4h12v16.283c0 2.049-1.668 3.717-3.717 3.717h-4.283v-4c0-2.209-1.791-4-4-4s-4 1.791-4 4v8c0 2.209 1.791 4 4 4h8.283c6.461 0 11.717-5.256 11.717-11.717v-20.283c0-2.209-1.791-4-4-4z"/><path d="m171.957 213.527h-4.566c-6.461 0-11.717 5.256-11.717 11.717v12.566c0 6.461 5.256 11.717 11.717 11.717h4.566c6.461 0 11.717-5.256 11.717-11.717v-12.566c0-6.462-5.256-11.717-11.717-11.717zm3.717 24.283c0 2.049-1.668 3.717-3.717 3.717h-4.566c-2.049 0-3.717-1.668-3.717-3.717v-12.566c0-2.049 1.668-3.717 3.717-3.717h4.566c2.049 0 3.717 1.668 3.717 3.717z"/><path d="m203.957 213.527h-12.283c-2.209 0-4 1.791-4 4v12 16c0 2.209 1.791 4 4 4h12.283c6.461 0 11.717-5.256 11.717-11.717v-1.064c0-2.319-.708-4.476-1.918-6.267 1.18-1.432 1.918-3.24 1.918-5.235 0-6.462-5.256-11.717-11.717-11.717zm-8.283 8h8.283c2.049 0 3.717 1.668 3.717 3.717 0 .156-.127.283-.283.283h-2.936-8.781zm12 16.283c0 2.049-1.668 3.717-3.717 3.717h-8.283v-8h8.781c1.775 0 3.219 1.443 3.219 3.219z"/><path d="m239.674 213.747v-16.22c0-2.209-1.791-4-4-4h-12.688c-2.312-13.516-11.059-25.188-23.431-30.811l-8.188-3.723c.428-5.484.329-10.484.121-14.032 6.858-3.323 11.863-7.026 13.095-8.495 1.189-1.418 1.387-3.752.281-5.238-.895-1.205-2.807-2.248-5.238-1.203l-.002.002c-1.073.46-2.091.833-3.084 1.166 1.101-2.489 2.037-5.049 2.789-7.674 2.611.094 5.102-.646 7.518-2.15 3.715-2.312 6.227-6.082 6.721-10.084.492-4.008-.746-8.027-3.402-11.029-1.75-1.98-4.008-3.404-6.49-4.145v-26.584c0-24.57-26.43-38.451-51.299-39.037-27.051-.559-54.928 13.402-56.477 46.188-.172 3.631-.178 4.309-.197 6.373l-.027 13.051c-2.285.676-4.367 1.936-6.074 3.703-2.662 2.758-4.053 6.391-3.918 10.232.154 4.277 2.582 8.41 6.496 11.053 2.475 1.67 5.021 2.557 7.648 2.439.704 2.576 1.582 5.095 2.623 7.549-.88-.305-1.784-.649-2.726-1.052-1.701-.73-4.135-.285-5.238 1.203-1.105 1.486-.908 3.82.281 5.238 1.208 1.44 6.018 5.031 12.662 8.301-.184 3.032-.307 7.536.005 12.658l-11.64 5.289c-14.652 6.66-24.119 21.541-24.119 37.91v45.631c0 12.832 10.439 23.271 23.271 23.271h140.729c2.209 0 4-1.791 4-4v-16.22c6.781-1.059 12-6.888 12-13.961v-7.637c-.002-7.074-5.221-12.903-12.002-13.962zm-36.899-76.369-.002.002c-.002 0-.004 0-.004.002.002-.002.004-.002.006-.004zm-6.531 32.621c9.552 4.34 16.438 13.179 18.638 23.527h-61.47c6.486-1.199 12.8-5.342 15.22-13.037 2.312 1.609 5.189 2.5 8.217 2.352 5.43-.207 10.004-3.545 11.652-8.504.759-2.286 1.318-4.666 1.771-7.053zm-44.058-131.511c21.082.496 43.488 11.545 43.488 31.039v13.815c-12.028 8.822-25.607 12.184-38.465 9.362-11.334-2.488-20.732-9.539-25.781-19.348-.586-1.137-1.68-1.924-2.943-2.121-1.268-.191-2.547.225-3.447 1.131-5.228 5.248-13.011 8.52-21.315 9.086.02-1.032.059-2.087.169-4.396 1.379-29.277 26.963-39.051 48.294-38.568zm-55.534 75.97c-1.773-1.199-2.914-3.004-2.975-4.707-.059-1.65.537-3.209 1.678-4.391 1.143-1.184 2.676-1.834 4.318-1.834 2.209 0 4-1.791 4-4l.017-10.061c8.567-.486 16.801-3.372 23.171-8.128 6.479 9.672 16.674 16.557 28.633 19.182 3.584.787 7.205 1.176 10.834 1.174 9.994 0 20.019-2.998 29.346-8.705v6.539c0 2.209 1.791 4 4 4 1.719 0 3.357.738 4.498 2.027 1.154 1.307 1.67 2.994 1.453 4.754-.199 1.625-1.324 3.221-3.008 4.27-1.682 1.047-3.113 1.213-4.922.572-1.086-.381-2.277-.283-3.279.277-1.002.559-1.717 1.52-1.961 2.641-1.122 5.143-3.048 10.024-5.647 14.578-6.157-.435-10.629-3.677-15.255-7.049-4.424-3.223-9-6.555-14.771-6.555-2.58 0-5.031.758-7.107 2.148-2.076-1.391-4.527-2.148-7.107-2.148-5.771 0-10.348 3.332-14.771 6.555-4.726 3.442-9.294 6.741-15.659 7.061-2.499-4.546-4.328-9.406-5.372-14.496-.23-1.123-.93-2.094-1.924-2.664-.99-.57-2.178-.689-3.27-.324-1.543.523-2.972.601-4.92-.716zm85.946 25.641c-7.99 3.041-17.668 4.756-25.807.686-1.76-.881-2.98-1.887-3.73-3.08-1.461-2.332-5.312-2.332-6.773 0-.75 1.193-1.971 2.199-3.732 3.08-8.141 4.072-17.816 2.355-25.805-.686 6.627-1.389 11.611-5.018 15.754-8.035 3.699-2.695 6.895-5.021 10.062-5.021 1.535 0 2.957.727 3.9 1.99 1.508 2.027 4.906 2.027 6.414 0 .943-1.264 2.365-1.99 3.9-1.99 3.168 0 6.363 2.326 10.062 5.021 4.143 3.017 9.126 6.646 15.755 8.035zm-50.776 11.047c4.861 0 9.738-.918 14.309-3.205 1.332-.666 2.51-1.404 3.543-2.227 1.033.822 2.209 1.561 3.541 2.227 9.787 4.896 20.948 3.493 30.402.258.177 5.949-.047 15.605-2.707 23.617-.895 2.691-3.568 3-4.365 3.031-1.793.064-4.023-.674-4.982-2.955l-1.641-3.912c-.736-1.752-2.607-2.73-4.467-2.371-1.863.369-3.211 2.006-3.223 3.906 0 .025-.025 2.641-.844 7.01-1.301 6.949-7.244 9.414-11.938 9.414s-10.637-2.465-11.938-9.412c-.816-4.371-.842-6.986-.842-7 0-1.904-1.344-3.545-3.211-3.922-1.857-.371-3.74.619-4.477 2.373l-1.645 3.914c-.955 2.283-3.162 3.041-4.98 2.955-.797-.031-3.471-.34-4.363-3.031-2.67-8.034-2.913-17.578-2.712-23.751 5.156 1.804 10.832 3.081 16.54 3.081zm-52.148 49.478c0-13.24 7.627-25.262 19.43-30.629l9.25-4.204c.479 2.888 1.132 5.787 2.048 8.548 1.648 4.957 6.221 8.295 11.652 8.502 2.992.129 5.904-.742 8.215-2.352 2.42 7.696 8.734 11.838 15.22 13.037h-41.816c-2.209 0-4 1.791-4 4v17.478c-4.717 2.306-8 7.109-8 12.703v7.637c0 4.508 2.154 8.484 5.442 11.083l-11.68 11.68c-3.484-2.802-5.762-7.045-5.762-11.853v-45.63zm26.181 40.903c-3.408 0-6.182-2.773-6.182-6.182v-7.637c0-3.408 2.773-6.182 6.182-6.182h5.818v20h-5.818zm-12.376 19.851 6.195-6.195v6.344h-4.729c-.502 0-.976-.101-1.466-.149zm14.195.149v-12h8c2.209 0 4-1.791 4-4v-28c0-2.209-1.791-4-4-4h-8v-12h124v12h-4c-2.209 0-4 1.791-4 4v28c0 2.209 1.791 4 4 4h4v12zm136-26.182c0 3.408-2.773 6.182-6.182 6.182h-5.818v-20h5.818c3.408 0 6.182 2.773 6.182 6.182z"/></g></svg>