<?xml version="1.0" encoding="iso-8859-1"?>
<!-- Generator: Adobe Illustrator 19.0.0, SVG Export Plug-In . SVG Version: 6.00 Build 0)  -->
<svg version="1.1" id="Layer_1" xmlns="http://www.w3.org/2000/svg" xmlns:xlink="http://www.w3.org/1999/xlink" x="0px" y="0px"
	 viewBox="0 0 512 512" style="enable-background:new 0 0 512 512;" xml:space="preserve">
<g>
	<g>
		<path d="M500.319,431.745h-21.188v-45.567c0-6.246-5.065-11.311-11.311-11.311h-14.99V227.474h9.694
			c6.246,0,11.311-5.065,11.311-11.311v-36.349h11.902c6.246,0,11.311-5.065,11.311-11.311v-36.962c0-4.209-2.337-8.07-6.066-10.021
			L261.245,1.289c-3.285-1.719-7.204-1.719-10.488,0L21.018,121.52c-3.729,1.952-6.066,5.814-6.066,10.021v36.962
			c0,6.246,5.065,11.311,11.311,11.311h11.902v36.349c0,6.246,5.065,11.311,11.311,11.311h9.696v147.392h-14.99
			c-6.246,0-11.311,5.065-11.311,11.311v45.567H11.681c-6.246,0-11.311,5.065-11.311,11.311v57.634
			C0.37,506.935,5.435,512,11.681,512h488.639c6.246,0,11.311-5.065,11.311-11.311v-57.634
			C511.63,436.809,506.565,431.745,500.319,431.745z M49.475,157.194H37.573V138.39l6.855-3.588
			c0.123,0.005,0.243,0.019,0.368,0.019h305.915c6.246,0,11.311-5.065,11.311-11.311c0-6.246-5.065-11.311-11.311-11.311H87.617
			L256,24.078L474.427,138.39v18.804h-11.902h-105.91h-47.66h-105.91h-47.66H49.475z M430.208,374.867H388.93V227.474h41.277
			V374.867z M377.62,204.853h-9.694v-25.039h83.289v25.039h-9.694H377.62z M356.615,227.474h9.694v147.392H299.26V227.474h9.694
			c6.246,0,11.311-5.065,11.311-11.311v-36.349h25.039v36.349C345.304,222.409,350.369,227.474,356.615,227.474z M224.051,204.853
			h-9.694v-25.039h83.289v25.039h-0.001h-9.694H224.051z M276.639,227.474v147.392h-41.277V227.474H276.639z M203.046,227.474h9.694
			v147.392h-67.049V227.474h9.694c6.246,0,11.311-5.065,11.311-11.311v-36.349h25.039v36.349
			C191.735,222.409,196.8,227.474,203.046,227.474z M70.482,204.854h-9.696v-25.039h83.289v25.039h-9.694H70.482z M123.069,227.474
			v147.392H81.792V227.474H123.069z M22.991,489.379v-35.012H44.18l331.872,0.023c0.001,0,0.001,0,0.001,0
			c6.246,0,11.311-5.064,11.311-11.31c0-6.247-5.064-11.312-11.31-11.312l-320.563-0.022v-34.258h14.991h63.898h89.67h63.899h89.67
			h63.899h14.99v45.567c0,6.246,5.065,11.311,11.311,11.311h21.188v35.012H22.991z"/>
	</g>
</g>
<g>
	<g>
		<path d="M399.125,121.301c-0.147-0.725-0.362-1.438-0.645-2.115c-0.283-0.68-0.633-1.346-1.041-1.957
			c-0.419-0.622-0.882-1.199-1.414-1.719c-0.52-0.52-1.097-0.995-1.708-1.403c-0.622-0.407-1.278-0.758-1.957-1.041
			s-1.39-0.498-2.115-0.645c-1.459-0.294-2.963-0.294-4.421,0c-0.725,0.147-1.438,0.362-2.115,0.645
			c-0.68,0.283-1.336,0.633-1.957,1.041c-0.611,0.407-1.199,0.882-1.719,1.403c-0.52,0.52-0.995,1.097-1.403,1.719
			c-0.407,0.611-0.758,1.267-1.041,1.957c-0.283,0.679-0.498,1.39-0.645,2.115c-0.147,0.724-0.214,1.47-0.214,2.204
			c0,0.747,0.068,1.483,0.214,2.217c0.147,0.725,0.362,1.426,0.645,2.115c0.283,0.68,0.633,1.336,1.041,1.947
			c0.407,0.622,0.882,1.199,1.403,1.719c0.52,0.52,1.107,0.995,1.719,1.414c0.622,0.407,1.278,0.758,1.957,1.041
			s1.39,0.498,2.115,0.645c0.734,0.147,1.47,0.226,2.204,0.226c2.987,0,5.893-1.21,7.997-3.325c0.532-0.52,0.995-1.097,1.414-1.719
			c0.407-0.611,0.758-1.267,1.041-1.947c0.283-0.689,0.498-1.39,0.645-2.115c0.147-0.734,0.226-1.47,0.226-2.217
			C399.351,122.771,399.272,122.023,399.125,121.301z"/>
	</g>
</g>
<g>
	<g>
		<path d="M424.474,440.86c-0.149-0.71-0.374-1.423-0.657-2.114c-0.283-0.679-0.635-1.335-1.041-1.945
			c-0.407-0.622-0.882-1.199-1.403-1.719c-0.52-0.52-1.097-0.995-1.72-1.414c-0.611-0.407-1.267-0.758-1.945-1.041
			c-0.69-0.283-1.402-0.498-2.126-0.645c-1.459-0.294-2.952-0.294-4.411,0c-0.724,0.147-1.436,0.362-2.115,0.645
			c-0.689,0.283-1.345,0.633-1.956,1.041c-0.622,0.419-1.199,0.894-1.72,1.414c-0.52,0.52-0.995,1.097-1.401,1.719
			c-0.407,0.611-0.758,1.267-1.041,1.945c-0.283,0.69-0.509,1.403-0.645,2.115c-0.147,0.735-0.226,1.483-0.226,2.217
			c0,2.975,1.21,5.893,3.314,7.997c0.521,0.52,1.098,0.995,1.72,1.403c0.611,0.406,1.267,0.758,1.956,1.041
			c0.68,0.283,1.391,0.497,2.115,0.645c0.725,0.147,1.471,0.225,2.206,0.225c2.975,0,5.893-1.209,7.997-3.314
			c2.103-2.104,3.314-5.022,3.314-7.997C424.688,442.343,424.62,441.595,424.474,440.86z"/>
	</g>
</g>
<g>
</g>
<g>
</g>
<g>
</g>
<g>
</g>
<g>
</g>
<g>
</g>
<g>
</g>
<g>
</g>
<g>
</g>
<g>
</g>
<g>
</g>
<g>
</g>
<g>
</g>
<g>
</g>
<g>
</g>
</svg>
