<svg id="Layer_1" enable-background="new 0 0 512 512" height="512" viewBox="0 0 512 512" width="512" xmlns="http://www.w3.org/2000/svg"><g><g><path d="m512 216c0-13.036-8.361-24.151-20-28.279v-63.434c11.641-4.127 20-15.249 20-28.286 0-16.542-13.458-30-30-30h-102.867c-4.526 0-8.488 3.04-9.659 7.412l-14.091 52.587h-12.327c-4.526 0-8.488 3.04-9.659 7.412l-14.092 52.588h-55.478l-30.167-112.588c-1.172-4.371-5.134-7.412-9.66-7.412h-41.5c-5.523 0-10 4.477-10 10s4.477 10 10 10h33.827l26.795 100h-33.122v-50.001c0-16.542-13.458-29.999-30-29.999s-30 13.458-30 29.999v50.001h-25v-50.001c0-16.542-13.458-29.999-30-29.999s-30 13.458-30 29.999v50.001h-25v-70c0-5.523-4.477-10-10-10-5.514 0-10-4.486-10-10s4.486-10 10-10h62.5c5.523 0 10-4.477 10-10s-4.477-10-10-10h-62.5c-16.542 0-30 13.458-30 30 0 13.038 8.359 24.159 20 28.286v63.434c-11.639 4.128-20 15.243-20 28.28 0 13.038 8.359 24.159 20 28.287v63.434c-11.639 4.127-20 15.242-20 28.279 0 13.038 8.359 24.159 20 28.286v61.714h-10c-5.523 0-10 4.477-10 10s4.477 10 10 10h492c5.523 0 10-4.477 10-10s-4.477-10-10-10h-10v-61.714c11.641-4.127 20-15.249 20-28.286 0-13.036-8.361-24.151-20-28.279v-63.434c11.641-4.128 20-15.25 20-28.287zm-30 10c-5.523 0-10 4.477-10 10v70h-25v-50.001c0-16.542-13.458-29.999-30-29.999s-30 13.458-30 29.999v50.001h-61.017l-26.795-100h182.812c5.514 0 10 4.486 10 10s-4.486 10-10 10zm-55 80h-20v-50.001c0-5.514 4.486-9.999 10-9.999s10 4.485 10 9.999zm0-120h-20v-50.001c0-5.514 4.486-9.999 10-9.999s10 4.485 10 9.999zm-76.271-40h12.327c4.526 0 8.488-3.04 9.659-7.412l14.092-52.588h95.193c5.514 0 10 4.486 10 10s-4.486 10-10 10c-5.523 0-10 4.477-10 10v70h-25v-50.001c0-16.542-13.458-29.999-30-29.999s-30 13.458-30 29.999v50.001h-46.989zm-180.729-10.001c0-5.514 4.486-9.999 10-9.999s10 4.485 10 9.999v50.001h-20zm-85 0c0-5.514 4.486-9.999 10-9.999s10 4.485 10 9.999v50.001h-20zm-55 70.001h248.483l26.795 100h-95.278v-50.001c0-16.542-13.458-29.999-30-29.999s-30 13.458-30 29.999v50.001h-25v-50.001c0-16.542-13.458-29.999-30-29.999s-30 13.458-30 29.999v50.001h-25v-70c0-5.523-4.477-10-10-10-5.514 0-10-4.486-10-10s4.486-10 10-10zm160 100h-20v-50.001c0-5.514 4.486-9.999 10-9.999s10 4.485 10 9.999zm-85 0h-20v-50.001c0-5.514 4.486-9.999 10-9.999s10 4.485 10 9.999zm-20 120v-50.001c0-5.514 4.486-10 10-10s10 4.486 10 10v50.001zm85 0v-50.001c0-5.514 4.486-10 10-10s10 4.486 10 10v50.001zm85 0v-50.001c0-5.514 4.486-10 10-10s10 4.486 10 10v50.001zm10-80.001c-16.542 0-30 13.458-30 30v50.001h-25v-50.001c0-16.542-13.458-30-30-30s-30 13.458-30 30v50.001h-25v-50.001c0-16.542-13.458-30-30-30s-30 13.458-30 30v50.001h-25v-70c0-5.523-4.477-10-10-10-5.514 0-10-4.486-10-10s4.486-10 10-10h300.637l26.794 100h-62.431v-50.001c0-16.542-13.458-30-30-30zm142 80.001v-50.001c0-5.514 4.486-10 10-10s10 4.486 10 10v50.001zm75-80.001c-5.523 0-10 4.477-10 10v70h-25v-50.001c0-16.542-13.458-30-30-30s-30 13.458-30 30v50.002h-8.863l-26.794-100h130.657c5.514 0 10 4.486 10 10s-4.486 9.999-10 9.999z"/><path d="m137.504 86c5.523 0 10-4.477 10-10s-4.477-10-10-10h-.008c-5.523 0-9.996 4.477-9.996 10s4.481 10 10.004 10z"/></g></g></svg>