<svg id="Capa_1" enable-background="new 0 0 511.146 511.146" height="512" viewBox="0 0 511.146 511.146" width="512" xmlns="http://www.w3.org/2000/svg"><g><path d="m490.351 459.414h-13.325v-28.929c0-6.801-3.94-12.684-9.649-15.53l-12.182-14.194v-162.825l12.182-14.193c5.709-2.846 9.65-8.73 9.65-15.531v-28.929h3.878c8.463 0 15.348-6.885 15.348-15.348v-21.931c0-7.662-5.65-14.012-12.998-15.148l-214.182-123.206c-8.467-4.871-18.985-4.865-27.446.012l-213.739 123.195c-7.347 1.138-12.994 7.487-12.994 15.148v21.931c0 8.463 6.885 15.348 15.348 15.348h4.878v28.929c0 6.801 3.941 12.685 9.65 15.531l12.182 14.193v162.826l-12.182 14.194c-5.709 2.846-9.649 8.729-9.649 15.53v28.929h-14.326c-11.454 0-20.771 9.318-20.771 20.771v19.319c0 6.419 5.222 11.641 11.64 11.641h487.818c6.418 0 11.64-5.222 11.64-11.641v-19.319c0-11.454-9.318-20.773-20.771-20.773zm-174.824 0v-28.929c0-6.801-3.94-12.684-9.649-15.53l-12.182-14.194v-107.41c0-4.143-3.358-7.5-7.5-7.5s-7.5 3.357-7.5 7.5v110.188c0 1.792.642 3.525 1.809 4.885l4.036 4.702h-21.513v-187.553h21.512l-4.035 4.701c-1.167 1.359-1.809 3.093-1.809 4.885v26.229c0 4.143 3.358 7.5 7.5 7.5s7.5-3.357 7.5-7.5v-23.452l12.183-14.193c5.709-2.846 9.649-8.73 9.649-15.531v-28.929h42.591v28.929c0 6.801 3.94 12.684 9.649 15.531l12.182 14.193v162.826l-12.183 14.194c-5.708 2.846-9.648 8.729-9.648 15.53v28.929h-42.592zm-161.499 0v-28.929c0-6.8-3.94-12.683-9.648-15.53l-12.183-14.194v-30.433c0-4.143-3.358-7.5-7.5-7.5s-7.5 3.357-7.5 7.5v33.21c0 1.792.642 3.524 1.809 4.885l4.036 4.702h-21.512v-187.552h21.512l-4.035 4.701c-1.167 1.359-1.809 3.093-1.809 4.885v103.208c0 4.143 3.358 7.5 7.5 7.5s7.5-3.357 7.5-7.5v-100.431l12.182-14.193c5.709-2.846 9.649-8.73 9.649-15.531v-28.929h42.591v28.929c0 6.801 3.94 12.684 9.649 15.531l12.183 14.193v162.826l-12.182 14.194c-5.709 2.846-9.649 8.729-9.649 15.53v28.929h-42.593zm-87.921-46.288 4.036-4.702c1.167-1.36 1.809-3.093 1.809-4.885v-168.381c0-1.792-.642-3.525-1.809-4.885l-4.035-4.701h20.422v187.554zm234.42-204.914c0 1.302-1.059 2.36-2.36 2.36h-84.188c-1.301 0-2.36-1.059-2.36-2.36v-28.929h88.908zm-72.922 204.914 4.036-4.702c1.167-1.359 1.809-3.093 1.809-4.885v-168.381c0-1.792-.642-3.525-1.809-4.885l-4.035-4.701h20.422v187.554zm-15.986 17.36c0-1.301 1.059-2.359 2.36-2.359h84.188c1.301 0 2.36 1.059 2.36 2.359v28.929h-88.908zm234.42-204.913-4.035 4.701c-1.167 1.359-1.809 3.093-1.809 4.885v168.381c0 1.792.642 3.524 1.809 4.885l4.036 4.702h-20.422v-187.554zm-35.422 187.553h-21.512l4.036-4.702c1.167-1.36 1.809-3.093 1.809-4.885v-168.381c0-1.792-.642-3.525-1.809-4.885l-4.035-4.701h21.512v187.554zm-37.499 17.36c0-1.301 1.059-2.359 2.36-2.359h84.188c1.301 0 2.36 1.059 2.36 2.359v28.929h-88.908zm88.908-222.274c0 1.302-1.059 2.36-2.36 2.36h-84.188c-1.301 0-2.36-1.059-2.36-2.36v-28.929h88.908zm-212.909-191.555c3.846-2.219 8.627-2.219 12.476-.006l191.232 110.006h-30.084l-29.661-17.062c-3.591-2.064-8.175-.829-10.241 2.761-2.065 3.591-.829 8.176 2.761 10.241l7.059 4.061h-274.311l46.643-26.885h50.758c4.142 0 7.5-3.357 7.5-7.5s-3.358-7.5-7.5-7.5h-24.734l64.353-37.093 64.481 37.093h-23.452c-4.142 0-7.5 3.357-7.5 7.5s3.358 7.5 7.5 7.5h49.451c.024 0 .047-.003.071-.004l10.988 6.321c3.591 2.064 8.176.829 10.241-2.762 2.065-3.59.829-8.175-2.761-10.24l-105.283-60.563c-2.318-1.333-5.17-1.332-7.485.003l-163.309 94.129h-30.038zm-219.223 147.279v-21.931c0-.191.156-.348.348-.348h450.641c.005 0 .01.001.015.001h.009c.191.001.346.156.346.347v21.931c0 .191-.156.348-.348.348h-450.664c-.192-.001-.347-.157-.347-.348zm109.134 15.347v28.929c0 1.302-1.059 2.36-2.36 2.36h-84.188c-1.301 0-2.36-1.059-2.36-2.36v-28.929zm-88.908 251.203c0-1.301 1.059-2.359 2.36-2.359h84.188c1.301 0 2.36 1.059 2.36 2.359v28.929h-88.908zm446.002 65.66h-481.098v-15.96c0-3.183 2.589-5.771 5.771-5.771h469.556c3.183 0 5.771 2.589 5.771 5.771z"/><path d="m256.073 69.092c-12.782 0-23.18 10.398-23.18 23.181s10.398 23.181 23.18 23.181 23.18-10.398 23.18-23.181-10.398-23.181-23.18-23.181zm0 31.361c-4.511 0-8.18-3.67-8.18-8.181s3.669-8.181 8.18-8.181 8.18 3.67 8.18 8.181-3.669 8.181-8.18 8.181z"/></g></svg>