<?xml version="1.0" encoding="UTF-8" standalone="no"?>
<svg xmlns="http://www.w3.org/2000/svg" xmlns:xlink="http://www.w3.org/1999/xlink" version="1.1" preserveAspectRatio="xMidYMid meet" viewBox="0 0 640 640" width="640" height="640">
  <defs>
    <path d="M-1.47 455.71L116.9 274.08" id="aXQgpg7as"></path>
    <path d="M44.45 230.71L576.08 230.71L576.08 321.53L44.45 321.53L44.45 230.71Z" id="acI76Xqln"></path>
    <path d="M81.18 455.71L199.55 274.08" id="d58MKSNtIn"></path>
    <path d="M163.43 455.71L281.8 274.08" id="f14uwItcpv"></path>
    <path d="M245.47 457.76L363.84 276.12" id="e2o5BH2jw3"></path>
    <path d="M330.57 457.76L448.94 276.12" id="c19upq2tvh"></path>
    <path d="M416.9 457.76L535.27 276.12" id="a1T8vOWDKx"></path>
    <path d="" id="b1bbuRvVbz"></path>
    <path d="M573.02 346.02L-3.51 346.02" id="a2MPNCgNWA"></path>
    <path d="M31.8 380.31L-23.31 380.31" id="a4tfEgZ5rq"></path>
    <path d="M548.12 421.73C180.03 420.37 -8.61 419.69 -17.8 419.69C-26.98 419.69 -38 419.69 -50.86 419.69" id="cBYvZfAU6"></path>
    <path d="M564.86 385.41L-14.73 385.41" id="aDPMqarHq"></path>
    <path d="" id="g7bUEpVB7l"></path>
    <path d="M576.08 230.71L627.1 128.67L153.63 135.82L44.45 230.71" id="b2nmkk3ruN"></path>
    <path d="M576.08 321.53L633.22 209.29L633.22 125.61" id="a5u1R1BB2k"></path>
    <path d="M93.18 473.96L69.36 517.11L42.29 482.44L91.49 475.1C64.06 493.6 46.92 505.16 40.07 509.79C11.93 528.76 4.51 566.95 23.49 595.08C29.05 603.33 16.62 584.89 23.49 595.08C39.72 619.14 70.57 628.56 97.47 617.67C104.68 614.75 88.24 621.4 97.47 617.67C119.89 608.59 136.04 588.61 140.23 564.79C140.24 564.68 140.29 564.42 140.37 563.98" id="d2JoZryi5s"></path>
    <path d="M110.22 113.02L153.77 89.95L119.59 62.28L111.39 111.35C130.36 84.25 142.22 67.31 146.97 60.53C166.43 32.74 204.74 25.98 232.53 45.45C240.69 51.16 222.47 38.4 232.53 45.45C256.31 62.09 265.19 93.11 253.83 119.82C250.78 126.97 257.72 110.65 253.83 119.82C244.36 142.07 224.1 157.87 200.21 161.64C200.11 161.66 199.84 161.7 199.4 161.77" id="h1jlw2NaK"></path>
    <path d="M135.31 102.35L104.69 119.69L110.22 95.2" id="a4hpUfK1TP"></path>
    <path d="M65.32 477.92L99.53 469.68L87.47 491.7" id="b5BmUSM08T"></path>
    <path d="M52.65 480.69L76.67 480.69L76.67 504.16L52.65 504.16L52.65 480.69Z" id="bgVWyjWQ0"></path>
    <path d="M118.57 69.29L142.59 69.29L142.59 92.76L118.57 92.76L118.57 69.29Z" id="b3ktpuq84i"></path>
    <path d="M295.52 113.02L339.08 89.95L304.89 62.28L296.69 111.35C315.67 84.25 327.53 67.31 332.27 60.53C351.73 32.74 390.04 25.98 417.84 45.45C426 51.16 407.77 38.4 417.84 45.45C441.61 62.09 450.49 93.11 439.13 119.82C436.09 126.97 443.03 110.65 439.13 119.82C429.67 142.07 409.41 157.87 385.52 161.64C385.41 161.66 385.14 161.7 384.71 161.77" id="a2damq9Mc5"></path>
    <path d="M320.61 102.35L290 119.69L295.52 95.2" id="bDoxAiBv"></path>
    <path d="M303.88 69.29L327.9 69.29L327.9 92.76L303.88 92.76L303.88 69.29Z" id="a3n3qCYYPS"></path>
    <path d="M471.64 113.02L515.2 89.95L481.01 62.28L472.81 111.35C491.79 84.25 503.65 67.31 508.39 60.53C527.86 32.74 566.17 25.98 593.96 45.45C602.12 51.16 583.9 38.4 593.96 45.45C617.74 62.09 626.62 93.11 615.26 119.82C612.21 126.97 619.15 110.65 615.26 119.82C605.79 142.07 585.53 157.87 561.64 161.64C561.53 161.66 561.26 161.7 560.83 161.77" id="a3ZQGNik8L"></path>
    <path d="M496.73 102.35L466.12 119.69L471.64 95.2" id="g1khbrLdJL"></path>
    <path d="M480 69.29L504.02 69.29L504.02 92.76L480 92.76L480 69.29Z" id="l2ko74s1EL"></path>
    <path d="M245.86 478.23L222.04 521.38L194.96 486.72L244.17 479.37C216.74 497.87 199.6 509.44 192.74 514.06C164.61 533.04 157.19 571.22 176.16 599.35C181.73 607.61 169.29 589.17 176.16 599.35C192.39 623.41 223.25 632.83 250.15 621.94C257.35 619.02 240.92 625.68 250.15 621.94C272.56 612.87 288.72 592.88 292.9 569.07C292.92 568.96 292.97 568.69 293.04 568.26" id="gX5fvAj5w"></path>
    <path d="M218 482.2L252.2 473.96L240.15 495.98" id="fThQ6zdcT"></path>
    <path d="M205.33 484.97L229.35 484.97L229.35 508.44L205.33 508.44L205.33 484.97Z" id="e12ENgI65R"></path>
    <path d="M406.27 476.1L382.44 519.24L355.37 484.58L404.57 477.24C377.15 495.74 360.01 507.3 353.15 511.92C325.02 530.9 317.6 569.08 336.57 597.22C342.14 605.47 329.7 587.03 336.57 597.22C352.8 621.28 383.65 630.7 410.56 619.8C417.76 616.89 401.33 623.54 410.56 619.8C432.97 610.73 449.13 590.75 453.31 566.93C453.33 566.82 453.38 566.55 453.45 566.12" id="awmPtocl"></path>
    <path d="M378.4 480.06L412.61 471.82L400.55 493.84" id="b1nXYRyJKR"></path>
    <path d="M365.74 482.83L389.76 482.83L389.76 506.3L365.74 506.3L365.74 482.83Z" id="b8NsHb7mw"></path>
  </defs>
  <g>
    <g>
      <g>
        <g>
          <use xlink:href="#aXQgpg7as" opacity="1" fill-opacity="0" stroke="#000000" stroke-width="14" stroke-opacity="1"></use>
        </g>
      </g>
      <g>
        <use xlink:href="#acI76Xqln" opacity="1" fill="#ffffff" fill-opacity="0"></use>
        <g>
          <use xlink:href="#acI76Xqln" opacity="1" fill-opacity="0" stroke="#000000" stroke-width="14" stroke-opacity="1"></use>
        </g>
      </g>
      <g>
        <g>
          <use xlink:href="#d58MKSNtIn" opacity="1" fill-opacity="0" stroke="#000000" stroke-width="14" stroke-opacity="1"></use>
        </g>
      </g>
      <g>
        <g>
          <use xlink:href="#f14uwItcpv" opacity="1" fill-opacity="0" stroke="#000000" stroke-width="14" stroke-opacity="1"></use>
        </g>
      </g>
      <g>
        <g>
          <use xlink:href="#e2o5BH2jw3" opacity="1" fill-opacity="0" stroke="#000000" stroke-width="14" stroke-opacity="1"></use>
        </g>
      </g>
      <g>
        <g>
          <use xlink:href="#c19upq2tvh" opacity="1" fill-opacity="0" stroke="#000000" stroke-width="14" stroke-opacity="1"></use>
        </g>
      </g>
      <g>
        <g>
          <use xlink:href="#a1T8vOWDKx" opacity="1" fill-opacity="0" stroke="#000000" stroke-width="14" stroke-opacity="1"></use>
        </g>
      </g>
      <g>
        <g>
          <use xlink:href="#b1bbuRvVbz" opacity="1" fill-opacity="0" stroke="#000000" stroke-width="14" stroke-opacity="1"></use>
        </g>
      </g>
      <g>
        <g>
          <use xlink:href="#a2MPNCgNWA" opacity="1" fill-opacity="0" stroke="#000000" stroke-width="14" stroke-opacity="1"></use>
        </g>
      </g>
      <g>
        <g>
          <use xlink:href="#a4tfEgZ5rq" opacity="1" fill-opacity="0" stroke="#000000" stroke-width="14" stroke-opacity="1"></use>
        </g>
      </g>
      <g>
        <g>
          <use xlink:href="#cBYvZfAU6" opacity="1" fill-opacity="0" stroke="#000000" stroke-width="14" stroke-opacity="1"></use>
        </g>
      </g>
      <g>
        <g>
          <use xlink:href="#aDPMqarHq" opacity="1" fill-opacity="0" stroke="#000000" stroke-width="14" stroke-opacity="1"></use>
        </g>
      </g>
      <g>
        <g>
          <use xlink:href="#g7bUEpVB7l" opacity="1" fill-opacity="0" stroke="#000000" stroke-width="14" stroke-opacity="1"></use>
        </g>
      </g>
      <g>
        <g>
          <use xlink:href="#b2nmkk3ruN" opacity="1" fill-opacity="0" stroke="#000000" stroke-width="14" stroke-opacity="1"></use>
        </g>
      </g>
      <g>
        <g>
          <use xlink:href="#a5u1R1BB2k" opacity="1" fill-opacity="0" stroke="#000000" stroke-width="14" stroke-opacity="1"></use>
        </g>
      </g>
      <g>
        <g>
          <use xlink:href="#d2JoZryi5s" opacity="1" fill-opacity="0" stroke="#000000" stroke-width="15" stroke-opacity="1"></use>
        </g>
      </g>
      <g>
        <g>
          <use xlink:href="#h1jlw2NaK" opacity="1" fill-opacity="0" stroke="#000000" stroke-width="15" stroke-opacity="1"></use>
        </g>
      </g>
      <g>
        <g>
          <use xlink:href="#a4hpUfK1TP" opacity="1" fill-opacity="0" stroke="#000000" stroke-width="8" stroke-opacity="1"></use>
        </g>
      </g>
      <g>
        <g>
          <use xlink:href="#b5BmUSM08T" opacity="1" fill-opacity="0" stroke="#000000" stroke-width="8" stroke-opacity="1"></use>
        </g>
      </g>
      <g>
        <use xlink:href="#bgVWyjWQ0" opacity="1" fill="#000000" fill-opacity="1"></use>
      </g>
      <g>
        <use xlink:href="#b3ktpuq84i" opacity="1" fill="#000000" fill-opacity="1"></use>
      </g>
      <g>
        <g>
          <use xlink:href="#a2damq9Mc5" opacity="1" fill-opacity="0" stroke="#000000" stroke-width="15" stroke-opacity="1"></use>
        </g>
      </g>
      <g>
        <g>
          <use xlink:href="#bDoxAiBv" opacity="1" fill-opacity="0" stroke="#000000" stroke-width="8" stroke-opacity="1"></use>
        </g>
      </g>
      <g>
        <use xlink:href="#a3n3qCYYPS" opacity="1" fill="#000000" fill-opacity="1"></use>
      </g>
      <g>
        <g>
          <use xlink:href="#a3ZQGNik8L" opacity="1" fill-opacity="0" stroke="#000000" stroke-width="15" stroke-opacity="1"></use>
        </g>
      </g>
      <g>
        <g>
          <use xlink:href="#g1khbrLdJL" opacity="1" fill-opacity="0" stroke="#000000" stroke-width="8" stroke-opacity="1"></use>
        </g>
      </g>
      <g>
        <use xlink:href="#l2ko74s1EL" opacity="1" fill="#000000" fill-opacity="1"></use>
      </g>
      <g>
        <g>
          <use xlink:href="#gX5fvAj5w" opacity="1" fill-opacity="0" stroke="#000000" stroke-width="15" stroke-opacity="1"></use>
        </g>
      </g>
      <g>
        <g>
          <use xlink:href="#fThQ6zdcT" opacity="1" fill-opacity="0" stroke="#000000" stroke-width="8" stroke-opacity="1"></use>
        </g>
      </g>
      <g>
        <use xlink:href="#e12ENgI65R" opacity="1" fill="#000000" fill-opacity="1"></use>
      </g>
      <g>
        <g>
          <use xlink:href="#awmPtocl" opacity="1" fill-opacity="0" stroke="#000000" stroke-width="15" stroke-opacity="1"></use>
        </g>
      </g>
      <g>
        <g>
          <use xlink:href="#b1nXYRyJKR" opacity="1" fill-opacity="0" stroke="#000000" stroke-width="8" stroke-opacity="1"></use>
        </g>
      </g>
      <g>
        <use xlink:href="#b8NsHb7mw" opacity="1" fill="#000000" fill-opacity="1"></use>
      </g>
    </g>
  </g>
</svg>
