<?xml version="1.0" encoding="UTF-8" standalone="no"?>
<svg xmlns="http://www.w3.org/2000/svg" xmlns:xlink="http://www.w3.org/1999/xlink" version="1.1" preserveAspectRatio="xMidYMid meet" viewBox="0 0 640 640" width="640" height="640">
  <defs>
    <path d="M626.86 320L12.57 320" id="a3bvh4Ev3"></path>
    <path d="M320 626.86L320 12.57" id="bsYkfU9yZ"></path>
    <path d="M246.86 584C297.91 565.44 329.81 553.83 342.57 549.19C382.85 534.55 418.71 509.83 446.72 477.39C449.03 474.71 438.18 487.28 446.72 477.39C454.35 468.56 460.09 458.25 463.58 447.12C481.16 391.08 525.11 251 595.43 26.86C547.74 34.81 517.93 39.77 506.01 41.76C474.84 46.96 445.78 60.9 422.23 81.97C418.59 85.24 429.44 75.52 422.23 81.97C410.25 92.69 401.03 106.13 395.33 121.16C385.29 147.67 360.18 213.95 320 320" id="bGVLweX3K"></path>
    <path d="M266.76 53.88C266.76 65.14 255.1 74.29 240.73 74.29C226.37 74.29 214.71 65.14 214.71 53.88C214.71 42.61 226.37 33.47 240.73 33.47C255.1 33.47 266.76 42.61 266.76 53.88Z" id="dG0KQOWTS"></path>
    <path d="M294.46 32.97C265.45 29.68 244.36 29.94 231.18 33.77C218 37.6 212.73 44.99 215.38 55.93" id="e2UqBJ9jWs"></path>
    <path d="M630.98 284.55C630.98 284.55 630.98 284.55 630.98 284.55C620.46 290.87 608.41 294.2 596.14 294.2C596.05 294.2 595.85 294.2 595.51 294.2C595.25 294.01 595.08 293.89 595.01 293.84C588.27 288.94 584.29 281.11 584.29 272.78C584.29 272.78 584.29 272.78 584.29 272.78C585.92 270.89 586.93 269.71 587.34 269.24C589.64 266.58 589.64 262.64 587.34 259.98C586.73 259.28 588.14 260.91 587.34 259.98C585.43 257.77 584.71 254.76 585.42 251.92C585.68 250.89 586.32 248.32 587.35 244.2C587.35 244.2 587.35 244.2 587.35 244.2C597.04 239.11 608.51 238.59 618.62 242.79C619.08 242.98 620.22 243.45 622.04 244.2" id="brgJjsMAk"></path>
    <path d="M622.78 267.09L589.1 267.09" id="f2u9q9L9y"></path>
  </defs>
  <g>
    <g>
      <g>
        <g>
          <use xlink:href="#a3bvh4Ev3" opacity="1" fill-opacity="0" stroke="#777777" stroke-width="16" stroke-opacity="1"></use>
        </g>
      </g>
      <g>
        <g>
          <use xlink:href="#bsYkfU9yZ" opacity="1" fill-opacity="0" stroke="#777777" stroke-width="16" stroke-opacity="1"></use>
        </g>
      </g>
      <g>
        <g>
          <use xlink:href="#bGVLweX3K" opacity="1" fill-opacity="0" stroke="#777777" stroke-width="28" stroke-opacity="1"></use>
        </g>
      </g>
      <g>
        <use xlink:href="#dG0KQOWTS" opacity="1" fill="#0b2d4d" fill-opacity="0"></use>
        <g>
          <use xlink:href="#dG0KQOWTS" opacity="1" fill-opacity="0" stroke="#777777" stroke-width="12" stroke-opacity="1"></use>
        </g>
      </g>
      <g>
        <g>
          <use xlink:href="#e2UqBJ9jWs" opacity="1" fill-opacity="0" stroke="#777777" stroke-width="12" stroke-opacity="1"></use>
        </g>
      </g>
      <g>
        <g>
          <use xlink:href="#brgJjsMAk" opacity="1" fill-opacity="0" stroke="#777777" stroke-width="12" stroke-opacity="1"></use>
        </g>
      </g>
      <g>
        <g>
          <use xlink:href="#f2u9q9L9y" opacity="1" fill-opacity="0" stroke="#777777" stroke-width="12" stroke-opacity="1"></use>
        </g>
      </g>
    </g>
  </g>
</svg>
